<svg viewBox="0 0 624 231" xmlns="http://www.w3.org/2000/svg" fill-rule="evenodd" clip-rule="evenodd" stroke-linejoin="round" stroke-miterlimit="2">
  <path d="M607 18.6a4 4 0 00-4-4H19a4 4 0 00-4 4v194a4 4 0 004 4h584a4 4 0 004-4v-194z" fill="#fff"/>
  <path d="M71.49 97.6v-.72a6.08 6.08 0 001.73-.29c.4-.14.64-.43.79-.86.1-.43.18-1.08.18-1.95V75.93c0-.9-.07-1.55-.18-1.98a1.4 1.4 0 00-.83-.87 5.78 5.78 0 00-1.7-.25v-.72c.66.04 1.52.04 2.56.07 1.05.04 2.06.04 3.1.04 1.12 0 2.16 0 3.13-.04.97-.03 1.73-.03 2.34-.07v.72a6.3 6.3 0 00-1.73.25c-.4.18-.68.47-.79.87-.1.43-.18 1.08-.18 1.98v17.85c0 .87.07 1.52.22 1.95.1.43.36.72.75.86.4.15.98.25 1.73.29v.72c-.61-.04-1.37-.07-2.34-.1h-6.23c-1.04.03-1.9.06-2.55.1zm-15.27 0v-.72a6.08 6.08 0 001.73-.29c.4-.14.65-.43.76-.86.14-.43.21-1.08.21-1.95V75.93c0-.9-.07-1.55-.21-1.98a1.3 1.3 0 00-.76-.87 6.53 6.53 0 00-1.73-.25v-.72c.62.04 1.44.04 2.45.07.97.04 2.05.04 3.24.04 1.01 0 2.02 0 2.99-.04.97-.03 1.8-.03 2.45-.07v.72a6.3 6.3 0 00-1.73.25c-.43.18-.68.47-.8.87-.1.43-.17 1.08-.17 1.98v17.85c0 .87.07 1.52.21 1.95.11.43.36.72.76.86.4.15.97.25 1.73.29v.72c-.65-.04-1.48-.07-2.45-.1h-6.23a113 113 0 00-2.45.1zm6.09-12.46v-.72h14.22v.72H62.3zM93.27 78.48c2.12 0 3.78.62 4.97 1.88 1.18 1.26 1.8 3.27 1.8 6.12H88.19l-.07-.69h7.38c.04-1.19-.04-2.27-.22-3.27a7.35 7.35 0 00-.79-2.38c-.36-.61-.83-.9-1.44-.9-.83 0-1.55.54-2.12 1.58-.61 1.05-.97 2.81-1.08 5.26l.1.22c-.03.28-.03.57-.03.9-.04.32-.04.64-.04.97 0 1.65.26 2.99.69 4.03a5.6 5.6 0 001.8 2.27c.72.43 1.44.68 2.2.68.71 0 1.5-.18 2.37-.54a5.83 5.83 0 002.38-2.34l.64.22c-.28.9-.75 1.8-1.36 2.66a7.12 7.12 0 01-2.38 2.13c-.97.54-2.12.82-3.46.82a8.92 8.92 0 01-4.32-1.04 6.95 6.95 0 01-2.91-3.17c-.72-1.4-1.08-3.2-1.08-5.4 0-2.23.4-4.1 1.15-5.58a7.36 7.36 0 013.13-3.31 9.02 9.02 0 014.54-1.12zM114.3 78.48c.75 0 1.4.15 1.86.47.47.36.83.76 1.08 1.26.22.5.33 1.05.33 1.59 0 .9-.25 1.62-.76 2.16a2.7 2.7 0 01-2.05.86c-.83 0-1.48-.22-1.94-.65a2.1 2.1 0 01-.72-1.65c0-.69.14-1.23.46-1.7.3-.43.65-.79 1.12-1.11-.32-.11-.68-.07-1 .03-.62.11-1.2.4-1.66.9-.5.47-.9 1.05-1.2 1.73a5.05 5.05 0 00-.42 1.98v9.54c0 1.15.28 1.95.86 2.34.54.4 1.4.61 2.52.61v.76c-.54-.04-1.37-.07-2.41-.1-1.05-.04-2.16-.04-3.31-.04a78.76 78.76 0 00-5.15.14v-.76c.83 0 1.44-.18 1.8-.54.32-.36.5-1.04.5-2.05V82.91c0-1.08-.14-1.87-.47-2.37-.32-.54-.93-.8-1.83-.8V79a23.73 23.73 0 005.07-.04c.87-.07 1.66-.18 2.42-.36v3.35a7.1 7.1 0 011.15-1.76 5.62 5.62 0 011.65-1.26 4.92 4.92 0 012.1-.44zM133.84 78.8l-9 18.26h1.87c.94 0 1.84-.22 2.67-.61a4.98 4.98 0 002.08-1.98c.54-.94.9-2.23 1.01-3.85h.76a145.73 145.73 0 00.14 7.12l-3.38-.1c-1.19-.04-2.34-.04-3.53-.04-1.22 0-2.48 0-3.78.04-1.3.03-2.52.1-3.7.14l9-18.25h-2.02c-.98 0-1.84.18-2.63.57a4.66 4.66 0 00-1.98 2.02 9.67 9.67 0 00-1.01 3.85h-.76c0-1.76 0-3.2-.03-4.32a188.5 188.5 0 00-.11-2.8l3.42.1c1.19.04 2.34.04 3.5.04 1.25 0 2.51-.04 3.8-.07l3.68-.11zM143.13 69.41v24.84c0 1.01.18 1.7.54 2.05.32.36.93.54 1.76.54v.76c-.47-.04-1.15-.07-2.05-.1-.9-.04-1.84-.04-2.77-.04a73.03 73.03 0 00-4.97.14v-.76c.83 0 1.44-.18 1.8-.54.32-.36.5-1.04.5-2.05V73.73c0-1.08-.14-1.87-.5-2.41-.29-.5-.9-.76-1.8-.76v-.75a23.73 23.73 0 005.04-.04c.9-.07 1.7-.18 2.45-.36zM151.66 69.7c1 0 1.8.25 2.41.76.58.46.87 1.15.87 2.01 0 .87-.3 1.55-.87 2.02-.61.5-1.4.75-2.41.75-1 0-1.8-.25-2.41-.75a2.46 2.46 0 01-.87-2.02c0-.86.3-1.55.87-2.01.61-.5 1.4-.76 2.41-.76zm2.8 8.9v15.65c0 1.01.19 1.7.55 2.05.32.36.93.54 1.76.54v.76c-.43-.04-1.11-.07-2.01-.1-.9-.04-1.84-.04-2.78-.04a75.87 75.87 0 00-5 .14v-.76c.83 0 1.44-.18 1.8-.54.32-.36.5-1.04.5-2.05V82.91c0-1.08-.14-1.87-.46-2.37-.33-.54-.94-.8-1.84-.8V79a23.73 23.73 0 005.08-.04c.86-.07 1.65-.18 2.4-.36zM167.68 78.48c.94 0 1.8.11 2.6.3.75.2 1.4.46 1.9.78.61.4 1.12.87 1.48 1.4.32.58.5 1.23.5 1.99a2.9 2.9 0 01-.8 2.09c-.53.5-1.22.79-2.04.79-.83 0-1.52-.25-2.02-.72a2.52 2.52 0 01-.76-1.95c0-.75.26-1.4.72-1.94.47-.5 1.05-.83 1.66-1a2.05 2.05 0 00-.86-.62c-.4-.18-.83-.25-1.3-.25-.76 0-1.4.21-1.94.65a5.22 5.22 0 00-1.44 1.8c-.4.75-.69 1.65-.87 2.7a16.62 16.62 0 00-.32 3.38c0 1.84.25 3.31.68 4.36a4.85 4.85 0 001.84 2.23c.72.43 1.47.65 2.27.65.68 0 1.44-.18 2.3-.58a5.68 5.68 0 002.41-2.34l.61.22c-.25.9-.68 1.76-1.3 2.66a6.74 6.74 0 01-5.86 3.02 8.7 8.7 0 01-4.21-1.04 7.48 7.48 0 01-3.03-3.13 11.85 11.85 0 01-1.15-5.55c0-2.16.4-4 1.19-5.43a7.72 7.72 0 013.17-3.35 9.15 9.15 0 014.57-1.12zM183.48 69.45v12.38a5.08 5.08 0 012.45-2.59c1.01-.5 2.16-.76 3.42-.76 1.05 0 1.87.11 2.49.36.6.26 1.11.62 1.47 1.05.4.47.72 1.04.9 1.76.18.72.25 1.7.25 2.92v9.68c0 1.01.18 1.7.54 2.05.33.36.94.54 1.77.54v.76c-.47-.04-1.15-.07-2.05-.1-.94-.04-1.84-.04-2.7-.04-.94 0-1.84 0-2.7.03-.9.04-1.55.07-1.98.11v-.76c.72 0 1.22-.18 1.5-.54.3-.36.44-1.04.44-2.05v-11.2c0-.6-.07-1.11-.18-1.58-.1-.43-.32-.75-.65-1-.32-.3-.79-.4-1.4-.4-.97 0-1.84.4-2.52 1.15a4.31 4.31 0 00-1.05 2.99v10.04c0 1.01.15 1.7.44 2.05.28.36.79.54 1.5.54v.76a53.1 53.1 0 00-1.9-.1c-.83-.04-1.7-.04-2.56-.04a73.03 73.03 0 00-4.96.14v-.76c.82 0 1.44-.18 1.8-.54.32-.36.5-1.04.5-2.05V73.77c0-1.08-.14-1.87-.47-2.41-.32-.5-.93-.76-1.83-.76v-.76a23.73 23.73 0 005.04-.03c.9-.07 1.69-.18 2.44-.36zM239.32 72.11v.72c-.54.18-1.08.61-1.66 1.23a8.3 8.3 0 00-1.5 3.06l-6.34 20.55c-.18-.03-.4-.03-.62-.03h-1.3c-.2 0-.42 0-.6.03l-7.56-22.9c-.26-.75-.54-1.25-.87-1.5-.36-.26-.72-.4-1.11-.44v-.72c.68.04 1.47.04 2.4.07.9.04 1.84.04 2.74.04 1.05 0 2.06 0 3-.04.9-.03 1.65-.03 2.19-.07v.72c-.72.04-1.3.11-1.7.25-.43.15-.68.44-.71.83-.08.4.03 1.05.32 1.95l5.11 15.62-.83 1.48 4.07-12.93c.58-1.83.87-3.24.83-4.28-.04-1.05-.29-1.77-.83-2.23a3.78 3.78 0 00-2.27-.69v-.72c.83.04 1.59.04 2.3.07.73.04 1.45.04 2.17.04.54 0 1.08 0 1.55-.04.46-.03.86-.03 1.22-.07zm-25.7 0v.72c-.47.07-.83.25-1.01.5-.18.3-.25.65-.22 1.09.04.46.11.93.29 1.44l5.5 15.98-.96 1.3 4.6-13.47.5.97-5.64 17.03c-.18-.03-.4-.03-.62-.03h-1.3c-.2 0-.42 0-.6.03l-8.07-22.53a4.06 4.06 0 00-1.08-1.8 2.36 2.36 0 00-1.19-.5v-.73c.72.04 1.59.04 2.56.07.97.04 1.9.04 2.8.04.98 0 1.84 0 2.6-.04.76-.03 1.37-.03 1.84-.07zM243.64 69.7c1 0 1.8.25 2.41.76.58.46.87 1.15.87 2.01 0 .87-.3 1.55-.87 2.02-.61.5-1.4.75-2.41.75-1 0-1.8-.25-2.41-.75a2.46 2.46 0 01-.87-2.02c0-.86.3-1.55.87-2.01.61-.5 1.4-.76 2.41-.76zm2.8 8.9v15.65c0 1.01.19 1.7.55 2.05.32.36.93.54 1.76.54v.76c-.43-.04-1.11-.07-2.01-.1-.9-.04-1.84-.04-2.78-.04a75.87 75.87 0 00-5 .14v-.76c.83 0 1.44-.18 1.8-.54.32-.36.5-1.04.5-2.05V82.91c0-1.08-.14-1.87-.46-2.37-.33-.54-.94-.8-1.84-.8V79a23.73 23.73 0 005.08-.04c.86-.07 1.65-.18 2.4-.36zM257.64 69.41v24.84c0 1.01.18 1.7.54 2.05.33.36.94.54 1.77.54v.76c-.47-.04-1.15-.07-2.05-.1-.9-.04-1.84-.04-2.78-.04a73.03 73.03 0 00-4.96.14v-.76c.82 0 1.44-.18 1.8-.54.32-.36.5-1.04.5-2.05V73.73c0-1.08-.14-1.87-.5-2.41-.3-.5-.9-.76-1.8-.76v-.75a23.73 23.73 0 005.04-.04c.9-.07 1.69-.18 2.44-.36zM269.06 69.41v24.84c0 1.01.18 1.7.54 2.05.32.36.93.54 1.76.54v.76c-.47-.04-1.15-.07-2.05-.1-.9-.04-1.84-.04-2.77-.04a73.03 73.03 0 00-4.97.14v-.76c.83 0 1.44-.18 1.8-.54.32-.36.5-1.04.5-2.05V73.73c0-1.08-.14-1.87-.5-2.41-.29-.5-.9-.76-1.8-.76v-.75a23.73 23.73 0 005.04-.04c.9-.07 1.69-.18 2.45-.36zM280.43 69.41v24.84c0 1.01.18 1.7.5 2.05.33.36.87.54 1.66.54v.76c-.47-.04-1.11-.07-1.98-.1-.9-.04-1.8-.04-2.7-.04a73.03 73.03 0 00-4.97.14v-.76c.83 0 1.44-.18 1.8-.54.33-.36.5-1.04.5-2.05V73.73c0-1.08-.14-1.87-.46-2.41-.32-.5-.94-.76-1.84-.76v-.75a23.73 23.73 0 005.04-.04c.9-.07 1.7-.18 2.45-.36zM292.17 79v.72c-.76.14-1.48.47-2.23.93a12.7 12.7 0 00-2.27 1.84l-2.77 2.88.36-.68 6.15 10.3c.25.42.54.82.83 1.14.29.33.65.58 1.04.72v.76c-.36-.04-.9-.07-1.62-.1-.72-.04-1.44-.04-2.16-.04a65.74 65.74 0 00-4.64.14v-.76c.47 0 .8-.1.97-.36.18-.21.15-.5-.07-.86l-3.56-6.44a2.56 2.56 0 00-.83-.9c-.29-.11-.65-.18-1.12-.22v-.68c.5-.04.94-.15 1.33-.26.36-.1.69-.36 1.01-.68l2.74-2.66c.83-.76 1.22-1.44 1.22-2.06 0-.6-.25-1.08-.75-1.44a3.94 3.94 0 00-2.06-.57v-.72c.69.03 1.4.03 2.2.07.8.04 1.48.04 2.02.04.46 0 1 0 1.5-.04.58 0 1.09 0 1.56-.04.46 0 .86 0 1.15-.03zM302.64 78.48c1.77 0 3.28.33 4.61.98a6.87 6.87 0 013.1 3.13c.75 1.44 1.11 3.35 1.11 5.72 0 2.38-.36 4.29-1.11 5.69a6.87 6.87 0 01-3.1 3.13c-1.33.65-2.84.97-4.6.97-1.7 0-3.21-.32-4.54-.97a6.77 6.77 0 01-3.13-3.13c-.76-1.4-1.16-3.31-1.16-5.69 0-2.37.4-4.28 1.16-5.72a6.77 6.77 0 013.13-3.13c1.33-.65 2.84-.98 4.53-.98zm0 .72c-.97 0-1.76.72-2.4 2.13-.66 1.44-.98 3.78-.98 6.98 0 3.2.32 5.55.97 6.95.65 1.4 1.44 2.12 2.41 2.12.98 0 1.8-.72 2.42-2.12.64-1.4.97-3.74.97-6.95 0-3.2-.33-5.54-.97-6.98-.62-1.4-1.44-2.13-2.42-2.13zM326.76 78.48c1.01 0 1.84.11 2.45.36a4.2 4.2 0 011.51 1.05c.4.47.65 1.04.83 1.76.18.76.25 1.73.25 2.92v9.68c0 1.01.15 1.7.47 2.05.33.36.87.54 1.62.54v.76c-.43-.04-1.08-.07-1.94-.1-.9-.04-1.77-.04-2.6-.04-.86 0-1.72 0-2.55.03-.83.04-1.48.07-1.9.11v-.76c.64 0 1.1-.18 1.36-.54.25-.36.36-1.04.36-2.05v-11.2c0-.6-.04-1.11-.14-1.58-.11-.43-.3-.75-.54-1-.3-.3-.72-.4-1.26-.4-.62 0-1.2.18-1.73.54a4.35 4.35 0 00-1.76 3.64v10c0 1.01.14 1.7.39 2.05.25.36.72.54 1.33.54v.76c-.4-.04-.97-.07-1.76-.1-.83-.04-1.66-.04-2.49-.04a60.06 60.06 0 00-4.97.14v-.76c.83 0 1.45-.18 1.8-.54.33-.36.51-1.04.51-2.05V82.91c0-1.08-.14-1.87-.47-2.37-.32-.54-.93-.8-1.83-.8V79a23.73 23.73 0 005.07-.04c.87-.07 1.66-.18 2.41-.36v3.24a5.44 5.44 0 012.34-2.55c.98-.54 2.06-.8 3.24-.8zm10.84 0c1 0 1.84.11 2.45.36a4.2 4.2 0 011.51 1.05c.4.47.65 1.04.83 1.76.18.76.25 1.73.25 2.92v9.68c0 1.01.18 1.7.54 2.05.32.36.94.54 1.76.54v.76c-.46-.04-1.15-.07-2.05-.1-.9-.04-1.8-.04-2.7-.04a53.1 53.1 0 00-4.46.14v-.76c.65 0 1.11-.18 1.37-.54.25-.36.36-1.04.36-2.05v-11.2c0-.6-.04-1.11-.15-1.58-.1-.43-.32-.75-.61-1-.32-.3-.8-.4-1.4-.4a3.2 3.2 0 00-2.45 1.22 4.94 4.94 0 00-1.08 3.06l-.18-2.2a5.52 5.52 0 012.59-2.91 7.8 7.8 0 013.42-.76zM359.34 78.48c1.01 0 1.84.11 2.45.36a4.2 4.2 0 011.51 1.05c.4.47.65 1.04.83 1.76.18.76.25 1.73.25 2.92v9.68c0 1.01.15 1.7.47 2.05.33.36.87.54 1.62.54v.76c-.43-.04-1.08-.07-1.94-.1-.9-.04-1.77-.04-2.6-.04-.86 0-1.72 0-2.55.03-.83.04-1.48.07-1.9.11v-.76c.64 0 1.1-.18 1.36-.54.25-.36.36-1.04.36-2.05v-11.2c0-.6-.04-1.11-.14-1.58-.11-.43-.3-.75-.54-1-.3-.3-.72-.4-1.26-.4-.62 0-1.2.18-1.73.54a4.35 4.35 0 00-1.76 3.64v10c0 1.01.14 1.7.39 2.05.25.36.72.54 1.33.54v.76c-.4-.04-.97-.07-1.76-.1-.83-.04-1.66-.04-2.49-.04a60.06 60.06 0 00-4.97.14v-.76c.83 0 1.45-.18 1.8-.54.33-.36.51-1.04.51-2.05V82.91c0-1.08-.14-1.87-.47-2.37-.32-.54-.93-.8-1.83-.8V79a23.73 23.73 0 005.07-.04c.87-.07 1.66-.18 2.41-.36v3.24a5.44 5.44 0 012.34-2.55c.98-.54 2.06-.8 3.24-.8zm10.84 0c1 0 1.84.11 2.45.36a4.2 4.2 0 011.51 1.05c.4.47.65 1.04.83 1.76.18.76.25 1.73.25 2.92v9.68c0 1.01.18 1.7.54 2.05.32.36.94.54 1.76.54v.76c-.46-.04-1.15-.07-2.05-.1-.9-.04-1.8-.04-2.7-.04a53.1 53.1 0 00-4.46.14v-.76c.65 0 1.11-.18 1.37-.54.25-.36.36-1.04.36-2.05v-11.2c0-.6-.04-1.11-.15-1.58-.1-.43-.32-.75-.61-1-.32-.3-.8-.4-1.4-.4a3.2 3.2 0 00-2.45 1.22 4.94 4.94 0 00-1.08 3.06l-.18-2.2a5.52 5.52 0 012.59-2.91 7.8 7.8 0 013.42-.76zM388.14 78.48c2.13 0 3.78.62 4.97 1.88 1.19 1.26 1.8 3.27 1.8 6.12h-11.84l-.07-.69h7.38c.03-1.19-.04-2.27-.22-3.27a7.35 7.35 0 00-.8-2.38c-.35-.61-.82-.9-1.43-.9-.83 0-1.55.54-2.13 1.58-.6 1.05-.97 2.81-1.08 5.26l.11.22c-.03.28-.03.57-.03.9-.04.32-.04.64-.04.97 0 1.65.25 2.99.68 4.03a5.6 5.6 0 001.8 2.27c.72.43 1.44.68 2.2.68.72 0 1.51-.18 2.38-.54a5.83 5.83 0 002.37-2.34l.65.22c-.29.9-.76 1.8-1.37 2.66a7.12 7.12 0 01-2.37 2.13c-.98.54-2.13.82-3.46.82a8.92 8.92 0 01-4.32-1.04 6.95 6.95 0 01-2.92-3.17c-.72-1.4-1.08-3.2-1.08-5.4 0-2.23.4-4.1 1.16-5.58a7.36 7.36 0 013.13-3.31 9.02 9.02 0 014.53-1.12zM410.18 78.48c1 0 1.83.11 2.48.36a3.77 3.77 0 012.34 2.81c.18.72.25 1.7.25 2.92v9.68c0 1.01.18 1.7.54 2.05.33.36.94.54 1.77.54v.76c-.47-.04-1.16-.07-2.06-.1-.9-.04-1.8-.04-2.7-.04-.9 0-1.8 0-2.66.03-.9.04-1.55.07-2.02.11v-.76c.72 0 1.23-.18 1.52-.54.28-.36.43-1.04.43-2.05v-11.2c0-.6-.07-1.11-.18-1.58-.11-.43-.33-.75-.65-1-.32-.3-.8-.4-1.4-.4-1.01 0-1.84.4-2.52 1.19-.69.79-1.05 1.8-1.05 2.98v10.01c0 1.01.15 1.7.47 2.05.29.36.8.54 1.48.54v.76a50.1 50.1 0 00-1.88-.1c-.82-.04-1.69-.04-2.59-.04a60.06 60.06 0 00-4.97.14v-.76c.83 0 1.44-.18 1.8-.54.33-.36.5-1.04.5-2.05V82.91c0-1.08-.14-1.87-.46-2.37-.32-.54-.94-.8-1.84-.8V79a23.73 23.73 0 005.08-.04c.86-.07 1.66-.18 2.41-.36v3.24a5.38 5.38 0 012.45-2.59c1.04-.5 2.2-.76 3.46-.76zM423.2 69.45c.76 0 1.45.29 2.06.93.61.58.9 1.48.9 2.6 0 1.04-.1 2.2-.36 3.49-.25 1.3-.54 2.7-.86 4.21a73.52 73.52 0 00-.9 4.72 47.05 47.05 0 00-.5 5.14h-.66c-.03-1.76-.21-3.49-.46-5.14-.3-1.66-.58-3.24-.9-4.72-.36-1.51-.62-2.92-.87-4.21-.25-1.3-.4-2.45-.4-3.5 0-1.11.3-2.01.87-2.59a2.6 2.6 0 012.09-.93zm0 23.11c.94 0 1.7.25 2.24.76.54.46.83 1.15.83 2.01 0 .87-.29 1.55-.83 2.02-.54.5-1.3.75-2.23.75-.94 0-1.7-.25-2.23-.75a2.55 2.55 0 01-.83-2.02c0-.86.29-1.55.83-2.01.54-.5 1.3-.76 2.23-.76z" fill="#1a202c" fill-rule="nonzero"/>
  <g>
    <path d="M66.44 141.87c0 2.02-.55 3.56-1.65 4.62-1.1 1.08-2.67 1.61-4.72 1.61h-3.4v-12.22h3.76c1.9 0 3.37.53 4.43 1.57 1.05 1.06 1.58 2.54 1.58 4.42zm-1.51.05c0-1.6-.4-2.8-1.2-3.6-.8-.8-1.98-1.21-3.56-1.21H58.1v9.76h1.73c1.7 0 2.98-.41 3.82-1.25.85-.82 1.28-2.06 1.28-3.7zM74.59 148.1l-.28-1.3h-.07c-.46.56-.9.96-1.37 1.16-.44.2-1 .31-1.7.31a3.1 3.1 0 01-2.13-.7 2.58 2.58 0 01-.77-2c0-1.85 1.47-2.83 4.43-2.91l1.56-.06v-.56c0-.72-.15-1.25-.46-1.6-.31-.34-.8-.5-1.5-.5-.74 0-1.62.23-2.58.7l-.42-1.07a6.43 6.43 0 013.1-.78c1.09 0 1.9.24 2.42.73.54.48.8 1.25.8 2.33v6.25h-1.03zm-3.14-.98c.86 0 1.54-.24 2.04-.71s.74-1.13.74-2v-.81l-1.4.05c-1.09.05-1.9.22-2.37.51-.5.31-.74.79-.74 1.42 0 .5.16.9.45 1.15.3.26.73.4 1.28.4zM84.38 145.6c0 .86-.3 1.5-.96 1.97-.63.46-1.52.7-2.67.7a5.72 5.72 0 01-2.84-.58v-1.28a6.29 6.29 0 002.88.72c.73 0 1.28-.13 1.67-.35.4-.24.59-.58.59-1.06 0-.36-.16-.67-.47-.92a7.6 7.6 0 00-1.81-.9 9.89 9.89 0 01-1.82-.83 2.4 2.4 0 01-.8-.8 2.1 2.1 0 01-.26-1.09c0-.73.3-1.33.91-1.76.6-.43 1.44-.65 2.5-.65 1 0 1.95.2 2.9.6l-.5 1.13a6.67 6.67 0 00-2.5-.57c-.65 0-1.15.1-1.5.31-.32.2-.49.5-.49.86 0 .24.07.44.19.61.12.2.32.35.6.5.29.15.82.4 1.6.69 1.1.39 1.82.78 2.22 1.2.37.39.56.9.56 1.5zM97.35 148.1v-5.92c0-.76-.17-1.3-.5-1.68-.33-.36-.88-.55-1.6-.55-.96 0-1.66.26-2.1.79-.45.51-.67 1.39-.67 2.57v4.79h-1.4v-13.01h1.4v3.94c0 .48-.02.87-.07 1.18h.08c.28-.45.67-.79 1.17-1.05a3.78 3.78 0 011.73-.37c1.1 0 1.95.27 2.51.8.57.53.84 1.37.84 2.54v5.97h-1.39zM102.98 148.1h-1.38v-9.16h1.38v9.16zm-1.5-11.64c0-.33.08-.55.24-.7a.77.77 0 01.58-.23c.22 0 .4.09.58.23.15.15.24.39.24.7 0 .3-.09.55-.24.7a.83.83 0 01-.58.22.77.77 0 01-.58-.22c-.16-.15-.24-.4-.24-.7zM109.8 148.27a4.14 4.14 0 01-3.2-1.25 4.76 4.76 0 01-1.19-3.42 5.3 5.3 0 011.1-3.53c.72-.87 1.7-1.3 2.93-1.3 1.14 0 2.05.38 2.72 1.13a4.37 4.37 0 011 3v.87h-6.3c.03 1.08.3 1.9.81 2.45.52.56 1.24.84 2.18.84.99 0 1.97-.21 2.92-.62v1.23c-.5.2-.95.36-1.38.46-.45.09-.98.14-1.6.14zm-.38-8.34c-.74 0-1.32.24-1.76.72a3.43 3.43 0 00-.77 1.99h4.79c0-.87-.2-1.54-.58-2a2.1 2.1 0 00-1.68-.7zM119.7 138.77c.42 0 .78.03 1.1.1l-.18 1.29a4.6 4.6 0 00-1.01-.12c-.74 0-1.37.29-1.9.9-.54.6-.8 1.34-.8 2.25v4.91h-1.38v-9.16h1.15l.15 1.7h.07c.34-.6.75-1.07 1.23-1.4.48-.3 1.01-.47 1.58-.47zM128.35 148.1h-1.38v-9.16h1.38v9.16zm-1.5-11.64c0-.33.08-.55.24-.7a.77.77 0 01.58-.23c.22 0 .41.09.58.23.16.15.24.39.24.7 0 .3-.09.55-.24.7a.83.83 0 01-.58.22.77.77 0 01-.58-.22c-.16-.15-.24-.4-.24-.7zM137.2 145.6c0 .86-.3 1.5-.96 1.97-.63.46-1.52.7-2.67.7a5.72 5.72 0 01-2.84-.58v-1.28a6.29 6.29 0 002.88.72c.73 0 1.28-.13 1.68-.35.39-.24.58-.58.58-1.06 0-.36-.16-.67-.46-.92a7.6 7.6 0 00-1.82-.9 9.89 9.89 0 01-1.81-.83 2.4 2.4 0 01-.8-.8 2.1 2.1 0 01-.26-1.09c0-.73.29-1.33.9-1.76.6-.43 1.44-.65 2.5-.65 1 0 1.95.2 2.9.6l-.5 1.13a6.67 6.67 0 00-2.5-.57c-.65 0-1.15.1-1.49.31-.33.2-.5.5-.5.86 0 .24.07.44.2.61.11.2.32.35.6.5.28.15.81.4 1.6.69 1.1.39 1.81.78 2.2 1.2.39.39.57.9.57 1.5zM142.43 147.12c.24 0 .48-.01.7-.05.24-.03.4-.08.55-.12v1.06c-.16.07-.38.14-.67.2-.3.03-.55.06-.79.06-1.76 0-2.65-.94-2.65-2.8v-5.45h-1.32v-.67l1.32-.58.58-1.95h.8v2.12h2.66v1.08h-2.66v5.4c0 .54.14.97.4 1.26.25.29.61.44 1.08.44zM159.92 141.87c0 2.02-.55 3.56-1.64 4.62-1.1 1.08-2.68 1.61-4.73 1.61h-3.39v-12.22h3.75c1.9 0 3.37.53 4.43 1.57 1.05 1.06 1.58 2.54 1.58 4.42zm-1.5.05c0-1.6-.4-2.8-1.2-3.6-.81-.8-2-1.21-3.57-1.21h-2.07v9.76h1.73c1.7 0 2.98-.41 3.82-1.25.85-.82 1.28-2.06 1.28-3.7zM166.3 148.27a4.14 4.14 0 01-3.2-1.25 4.76 4.76 0 01-1.18-3.42 5.3 5.3 0 011.1-3.53c.72-.87 1.7-1.3 2.92-1.3 1.15 0 2.06.38 2.73 1.13a4.37 4.37 0 011 3v.87h-6.31c.03 1.08.3 1.9.82 2.45.52.56 1.23.84 2.18.84.99 0 1.96-.21 2.92-.62v1.23c-.5.2-.96.36-1.38.46-.45.09-.98.14-1.6.14zm-.37-8.34c-.74 0-1.32.24-1.77.72a3.43 3.43 0 00-.77 1.99h4.8c0-.87-.2-1.54-.58-2a2.1 2.1 0 00-1.68-.7zM183.72 148.1v-5.96c0-.73-.16-1.28-.47-1.64-.32-.36-.8-.55-1.45-.55-.87 0-1.5.24-1.92.74-.41.5-.62 1.26-.62 2.3v5.11h-1.38v-5.96c0-.73-.16-1.28-.48-1.64-.3-.36-.79-.55-1.46-.55-.87 0-1.5.26-1.91.79-.4.51-.6 1.37-.6 2.55v4.81h-1.39v-9.16h1.13l.22 1.25h.07c.26-.44.63-.79 1.11-1.04a3.27 3.27 0 011.6-.38c1.43 0 2.36.51 2.8 1.56h.07c.28-.48.67-.86 1.18-1.15a3.8 3.8 0 011.78-.41c1.05 0 1.82.27 2.33.8.52.53.77 1.4.77 2.56v5.97h-1.38zM195.87 143.51c0 1.5-.37 2.66-1.13 3.5a3.99 3.99 0 01-3.11 1.26 3.88 3.88 0 01-3.66-2.24 5.8 5.8 0 01-.52-2.52c0-1.49.38-2.65 1.13-3.5a3.92 3.92 0 013.1-1.24c1.28 0 2.31.43 3.06 1.28.76.86 1.13 2 1.13 3.46zm-6.98 0c0 1.17.24 2.06.7 2.67.46.62 1.17.93 2.07.93.91 0 1.6-.31 2.07-.93.47-.6.7-1.49.7-2.67a4.3 4.3 0 00-.7-2.65c-.47-.6-1.18-.9-2.08-.9-.91 0-1.6.28-2.06.88-.46.6-.7 1.5-.7 2.67zM197.52 142.96h4.1v1.2h-4.1zM207.1 148.1h-1.42v-10.96h-3.87v-1.26h9.16v1.26h-3.87v10.96zM215.27 148.27a4.14 4.14 0 01-3.2-1.25 4.76 4.76 0 01-1.18-3.42 5.3 5.3 0 011.1-3.53c.72-.87 1.7-1.3 2.92-1.3 1.15 0 2.06.38 2.73 1.13a4.37 4.37 0 011 3v.87h-6.31c.03 1.08.3 1.9.82 2.45.52.56 1.23.84 2.18.84.99 0 1.96-.21 2.92-.62v1.23c-.5.2-.96.36-1.38.46-.45.09-.98.14-1.6.14zm-.37-8.34c-.74 0-1.32.24-1.77.72a3.43 3.43 0 00-.77 1.99h4.8c0-.87-.2-1.54-.58-2a2.1 2.1 0 00-1.68-.7zM222.88 143.4l-3.19-4.46h1.58l2.41 3.51 2.41-3.5h1.56l-3.18 4.46 3.35 4.69h-1.57l-2.57-3.72-2.58 3.72h-1.58l3.36-4.7zM232.6 147.12c.24 0 .48-.01.7-.05.24-.03.41-.08.55-.12v1.06c-.16.07-.38.14-.67.2-.3.03-.55.06-.79.06-1.76 0-2.65-.94-2.65-2.8v-5.45h-1.32v-.67l1.32-.58.58-1.95h.8v2.12h2.66v1.08h-2.65v5.4c0 .54.13.97.39 1.26.26.29.62.44 1.08.44zM237.14 146.11l.12.2c-.14.56-.35 1.2-.62 1.94s-.57 1.43-.86 2.06h-1.04c.15-.58.3-1.3.5-2.16.17-.84.3-1.52.37-2.04h1.53zM250.56 146.87h-.07c-.65.94-1.61 1.4-2.88 1.4-1.2 0-2.14-.41-2.79-1.23a5.4 5.4 0 01-1-3.5c0-1.5.33-2.68 1-3.52a3.35 3.35 0 012.8-1.25c1.22 0 2.18.44 2.85 1.35h.1l-.05-.65-.03-.65v-3.73h1.38v13.01h-1.13l-.18-1.23zm-2.78.24c.94 0 1.65-.26 2.06-.77.42-.52.65-1.36.65-2.5v-.3c0-1.3-.23-2.22-.65-2.77-.43-.56-1.13-.84-2.07-.84-.8 0-1.44.31-1.87.95a4.76 4.76 0 00-.65 2.68c0 1.17.22 2.06.65 2.66.43.58 1.06.89 1.88.89zM258.68 148.27a4.14 4.14 0 01-3.2-1.25 4.76 4.76 0 01-1.18-3.42 5.3 5.3 0 011.1-3.53c.72-.87 1.7-1.3 2.92-1.3 1.15 0 2.06.38 2.73 1.13a4.37 4.37 0 011 3v.87h-6.31c.03 1.08.3 1.9.82 2.45.52.56 1.23.84 2.18.84.99 0 1.96-.21 2.92-.62v1.23c-.5.2-.96.36-1.38.46-.45.09-.98.14-1.6.14zm-.37-8.34c-.74 0-1.32.24-1.77.72a3.43 3.43 0 00-.77 1.99h4.8c0-.87-.2-1.54-.58-2a2.1 2.1 0 00-1.68-.7zM268.6 138.77c.4 0 .77.03 1.1.1l-.2 1.29a4.6 4.6 0 00-1-.12c-.74 0-1.37.29-1.9.9-.54.6-.8 1.34-.8 2.25v4.91h-1.38v-9.16h1.15l.15 1.7h.07c.34-.6.75-1.07 1.23-1.4.48-.3 1.01-.47 1.58-.47zM277.22 143.4c.24-.33.6-.78 1.1-1.33l2.96-3.13h1.65l-3.72 3.9 3.97 5.26h-1.68l-3.23-4.33-1.05.9v3.43h-1.36v-13.01h1.36v6.9c0 .3-.01.79-.06 1.42h.06zM288.37 148.27a4.14 4.14 0 01-3.2-1.25 4.76 4.76 0 01-1.18-3.42 5.3 5.3 0 011.1-3.53c.71-.87 1.69-1.3 2.92-1.3 1.15 0 2.05.38 2.72 1.13a4.37 4.37 0 011.01 3v.87h-6.32c.04 1.08.31 1.9.83 2.45.5.56 1.23.84 2.17.84 1 0 1.97-.21 2.93-.62v1.23c-.5.2-.96.36-1.39.46-.44.09-.98.14-1.6.14zm-.38-8.34c-.73 0-1.32.24-1.76.72a3.43 3.43 0 00-.77 1.99h4.8c0-.87-.21-1.54-.59-2a2.1 2.1 0 00-1.68-.7zM295.5 148.1h-1.4v-9.16h1.4v9.16zm-1.52-11.64c0-.33.09-.55.24-.7a.77.77 0 01.59-.23c.22 0 .4.09.58.23.15.15.24.39.24.7 0 .3-.09.55-.24.7a.83.83 0 01-.58.22.77.77 0 01-.59-.22c-.15-.15-.24-.4-.24-.7zM304.7 148.1v-5.92c0-.76-.17-1.3-.51-1.68-.33-.36-.88-.55-1.6-.55-.95 0-1.66.26-2.1.77-.45.53-.67 1.39-.67 2.57v4.81h-1.39v-9.16h1.13l.23 1.25h.07c.29-.44.68-.8 1.2-1.04a3.75 3.75 0 011.7-.38c1.1 0 1.94.27 2.49.8.56.53.84 1.4.84 2.56v5.97h-1.39zM312.81 148.27a4.14 4.14 0 01-3.2-1.25 4.76 4.76 0 01-1.18-3.42 5.3 5.3 0 011.1-3.53c.71-.87 1.69-1.3 2.92-1.3 1.15 0 2.06.38 2.72 1.13a4.37 4.37 0 011.01 3v.87h-6.31c.03 1.08.3 1.9.82 2.45.51.56 1.23.84 2.17.84 1 0 1.97-.21 2.93-.62v1.23c-.5.2-.96.36-1.39.46-.44.09-.97.14-1.59.14zm-.38-8.34c-.73 0-1.31.24-1.76.72a3.43 3.43 0 00-.77 1.99h4.8c0-.87-.21-1.54-.59-2a2.1 2.1 0 00-1.68-.7zM322.72 138.77c.42 0 .77.03 1.1.1l-.19 1.29a4.6 4.6 0 00-1-.12c-.74 0-1.38.29-1.9.9-.54.6-.8 1.34-.8 2.25v4.91h-1.38v-9.16h1.14l.16 1.7h.07c.34-.6.75-1.07 1.23-1.4.48-.3 1.01-.47 1.57-.47zM325.6 135.09h1.37v13.01h-1.37zM333.73 148.27a4.14 4.14 0 01-3.2-1.25 4.76 4.76 0 01-1.18-3.42 5.3 5.3 0 011.1-3.53c.72-.87 1.7-1.3 2.92-1.3 1.15 0 2.06.38 2.73 1.13a4.37 4.37 0 011 3v.87h-6.31c.03 1.08.3 1.9.82 2.45.52.56 1.23.84 2.18.84.99 0 1.96-.21 2.92-.62v1.23c-.5.2-.96.36-1.38.46-.45.09-.98.14-1.6.14zm-.37-8.34c-.74 0-1.32.24-1.77.72a3.43 3.43 0 00-.77 1.99h4.8c0-.87-.2-1.54-.58-2a2.1 2.1 0 00-1.68-.7zM340.86 148.1h-1.39v-9.16h1.39v9.16zm-1.51-11.64c0-.33.09-.55.24-.7a.77.77 0 01.58-.23c.22 0 .41.09.58.23.16.15.24.39.24.7 0 .3-.08.55-.24.7a.83.83 0 01-.58.22.77.77 0 01-.58-.22c-.15-.15-.24-.4-.24-.7zM348.49 135.94h1.37v12.16h-1.37zM359.29 148.1v-5.92c0-.76-.17-1.3-.52-1.68-.32-.36-.87-.55-1.59-.55-.96 0-1.66.26-2.1.77-.45.53-.67 1.39-.67 2.57v4.81h-1.39v-9.16h1.13l.22 1.25h.07c.3-.44.69-.8 1.2-1.04a3.75 3.75 0 011.71-.38c1.1 0 1.94.27 2.49.8.56.53.83 1.4.83 2.56v5.97h-1.38zM367.66 140.02h-2.33v8.08h-1.39v-8.08h-1.64v-.63l1.64-.5v-.51c0-2.25.98-3.38 2.94-3.38.5 0 1.07.1 1.72.3l-.36 1.1a4.6 4.6 0 00-1.37-.25c-.53 0-.91.17-1.17.51-.25.36-.37.91-.37 1.68v.6h2.33v1.08zM377.24 143.51c0 1.5-.38 2.66-1.13 3.5a3.99 3.99 0 01-3.12 1.26 3.88 3.88 0 01-3.66-2.24 5.8 5.8 0 01-.51-2.52c0-1.49.37-2.65 1.13-3.5a3.92 3.92 0 013.1-1.24c1.28 0 2.3.43 3.06 1.28.75.86 1.13 2 1.13 3.46zm-6.99 0c0 1.17.24 2.06.7 2.67.47.62 1.17.93 2.08.93.9 0 1.59-.31 2.07-.93.46-.6.7-1.49.7-2.67a4.3 4.3 0 00-.7-2.65c-.48-.6-1.18-.9-2.09-.9-.9 0-1.6.28-2.05.88-.47.6-.7 1.5-.7 2.67zM385.58 145.6c0 .86-.31 1.5-.96 1.97-.63.46-1.52.7-2.67.7a5.72 5.72 0 01-2.84-.58v-1.28a6.29 6.29 0 002.88.72c.73 0 1.28-.13 1.67-.35.4-.24.58-.58.58-1.06 0-.36-.15-.67-.46-.92a7.6 7.6 0 00-1.81-.9 9.89 9.89 0 01-1.82-.83 2.4 2.4 0 01-.8-.8 2.1 2.1 0 01-.26-1.09c0-.73.29-1.33.9-1.76.6-.43 1.44-.65 2.5-.65 1 0 1.96.2 2.9.6l-.5 1.13a6.67 6.67 0 00-2.5-.57c-.65 0-1.14.1-1.49.31-.32.2-.5.5-.5.86 0 .24.08.44.2.61.12.2.32.35.6.5.29.15.82.4 1.6.69 1.1.39 1.82.78 2.21 1.2.38.39.57.9.57 1.5zM396.15 148.27a4.14 4.14 0 01-3.2-1.25 4.76 4.76 0 01-1.18-3.42 5.3 5.3 0 011.1-3.53c.72-.87 1.7-1.3 2.92-1.3 1.15 0 2.06.38 2.73 1.13a4.37 4.37 0 011 3v.87h-6.31c.03 1.08.3 1.9.82 2.45.52.56 1.23.84 2.18.84.99 0 1.96-.21 2.92-.62v1.23c-.5.2-.96.36-1.38.46-.45.09-.98.14-1.6.14zm-.37-8.34c-.74 0-1.32.24-1.77.72a3.43 3.43 0 00-.77 1.99h4.8c0-.87-.2-1.54-.58-2a2.1 2.1 0 00-1.68-.7zM408.16 148.1v-5.92c0-.76-.17-1.3-.52-1.68-.32-.36-.87-.55-1.59-.55-.96 0-1.66.26-2.1.77-.45.53-.67 1.39-.67 2.57v4.81h-1.39v-9.16h1.13l.22 1.25h.07c.3-.44.69-.8 1.2-1.04a3.75 3.75 0 011.71-.38c1.1 0 1.94.27 2.48.8.57.53.84 1.4.84 2.56v5.97h-1.38zM415.36 147.12c.24 0 .48-.01.7-.05.24-.03.41-.08.55-.12v1.06c-.16.07-.38.14-.67.2-.29.03-.55.06-.79.06-1.76 0-2.65-.94-2.65-2.8v-5.45h-1.32v-.67l1.32-.58.58-1.95h.8v2.12h2.66v1.08h-2.65v5.4c0 .54.13.97.4 1.26.25.29.6.44 1.07.44zM424.7 148.1v-5.92c0-.76-.16-1.3-.5-1.68-.33-.36-.88-.55-1.6-.55-.96 0-1.66.26-2.1.79-.45.51-.67 1.39-.67 2.57v4.79h-1.39v-13.01h1.39v3.94c0 .48-.02.87-.07 1.18h.09c.27-.45.66-.79 1.16-1.05a3.78 3.78 0 011.73-.37c1.11 0 1.95.27 2.52.8.56.53.83 1.37.83 2.54v5.97h-1.38zM434.58 148.1l-.27-1.3h-.07c-.46.56-.9.96-1.37 1.16-.45.2-1.01.31-1.7.31a3.1 3.1 0 01-2.14-.7 2.58 2.58 0 01-.77-2c0-1.85 1.48-2.83 4.44-2.91l1.56-.06v-.56c0-.72-.16-1.25-.47-1.6-.3-.34-.8-.5-1.49-.5-.75 0-1.62.23-2.58.7l-.43-1.07a6.43 6.43 0 013.1-.78c1.1 0 1.9.24 2.43.73.53.48.79 1.25.79 2.33v6.25h-1.03zm-3.13-.98c.85 0 1.54-.24 2.04-.71s.73-1.13.73-2v-.81l-1.38.05c-1.1.05-1.9.22-2.38.51-.5.31-.74.79-.74 1.42 0 .5.15.9.44 1.15.31.26.74.4 1.29.4zm-1.64-10.66c0-.3.08-.5.22-.64a.84.84 0 01.53-.18c.22 0 .4.07.55.18.15.14.24.35.24.64 0 .27-.09.48-.24.61a.78.78 0 01-.55.21.77.77 0 01-.53-.2.84.84 0 01-.22-.62zm3.18 0c0-.3.09-.5.22-.64a.84.84 0 01.53-.18c.2 0 .4.07.55.18.15.14.22.35.22.64 0 .27-.07.48-.22.61a.8.8 0 01-1.08 0 .84.84 0 01-.22-.61zM438.54 135.09h1.37v13.01h-1.37zM445.76 147.12c.24 0 .48-.01.7-.05.24-.03.42-.08.55-.12v1.06c-.15.07-.37.14-.66.2-.3.03-.55.06-.8.06-1.76 0-2.65-.94-2.65-2.8v-5.45h-1.31v-.67l1.31-.58.59-1.95h.8v2.12h2.65v1.08h-2.65v5.4c0 .54.14.97.4 1.26.25.29.61.44 1.07.44zM459.2 145.6c0 .86-.3 1.5-.96 1.97-.63.46-1.52.7-2.67.7a5.72 5.72 0 01-2.84-.58v-1.28a6.29 6.29 0 002.88.72c.73 0 1.28-.13 1.67-.35.4-.24.58-.58.58-1.06 0-.36-.15-.67-.46-.92a7.6 7.6 0 00-1.81-.9 9.89 9.89 0 01-1.82-.83 2.4 2.4 0 01-.8-.8 2.1 2.1 0 01-.26-1.09c0-.73.3-1.33.9-1.76.6-.43 1.45-.65 2.5-.65 1 0 1.96.2 2.9.6l-.5 1.13a6.67 6.67 0 00-2.5-.57c-.65 0-1.14.1-1.49.31-.32.2-.5.5-.5.86 0 .24.08.44.2.61.12.2.32.35.6.5.29.15.82.4 1.6.69 1.1.39 1.82.78 2.21 1.2.38.39.57.9.57 1.5zM469.37 143.51c0 1.5-.38 2.66-1.13 3.5a3.99 3.99 0 01-3.12 1.26 3.88 3.88 0 01-3.66-2.24 5.8 5.8 0 01-.51-2.52c0-1.49.37-2.65 1.13-3.5a3.92 3.92 0 013.1-1.24c1.28 0 2.3.43 3.06 1.28.75.86 1.13 2 1.13 3.46zm-6.99 0c0 1.17.24 2.06.7 2.67.47.62 1.17.93 2.08.93.9 0 1.59-.31 2.07-.93.46-.6.7-1.49.7-2.67a4.3 4.3 0 00-.7-2.65c-.48-.6-1.18-.9-2.09-.9-.9 0-1.6.28-2.05.88-.47.6-.7 1.5-.7 2.67zM478.07 148.1v-5.92c0-.76-.18-1.3-.52-1.68-.32-.36-.87-.55-1.6-.55-.95 0-1.65.26-2.1.77-.44.53-.66 1.39-.66 2.57v4.81h-1.4v-9.16h1.14l.22 1.25h.07c.3-.44.69-.8 1.2-1.04a3.75 3.75 0 011.71-.38c1.1 0 1.94.27 2.48.8.57.53.84 1.4.84 2.56v5.97h-1.38zM488.54 146.87h-.07c-.65.94-1.6 1.4-2.88 1.4-1.2 0-2.14-.41-2.79-1.23a5.4 5.4 0 01-1-3.5c0-1.5.34-2.68 1-3.52a3.35 3.35 0 012.8-1.25c1.23 0 2.19.44 2.85 1.35h.1l-.05-.65-.03-.65v-3.73h1.39v13.01h-1.13l-.2-1.23zm-2.77.24c.94 0 1.64-.26 2.05-.77.43-.52.65-1.36.65-2.5v-.3c0-1.3-.22-2.22-.65-2.77-.43-.56-1.13-.84-2.07-.84-.8 0-1.44.31-1.87.95a4.76 4.76 0 00-.65 2.68c0 1.17.22 2.06.65 2.66.43.58 1.06.89 1.89.89zM496.67 148.27a4.14 4.14 0 01-3.2-1.25 4.76 4.76 0 01-1.19-3.42 5.3 5.3 0 011.1-3.53c.72-.87 1.7-1.3 2.93-1.3 1.14 0 2.05.38 2.72 1.13a4.37 4.37 0 011.01 3v.87h-6.32c.04 1.08.31 1.9.82 2.45.52.56 1.24.84 2.18.84 1 0 1.97-.21 2.93-.62v1.23c-.5.2-.96.36-1.39.46-.45.09-.98.14-1.6.14zm-.38-8.34c-.74 0-1.32.24-1.76.72a3.43 3.43 0 00-.77 1.99h4.8c0-.87-.21-1.54-.6-2a2.1 2.1 0 00-1.67-.7zM506.58 138.77c.41 0 .77.03 1.1.1l-.2 1.29a4.6 4.6 0 00-1-.12c-.74 0-1.37.29-1.9.9-.53.6-.79 1.34-.79 2.25v4.91h-1.39v-9.16h1.15l.15 1.7h.07c.35-.6.76-1.07 1.24-1.4.47-.3 1-.47 1.57-.47zM515.66 148.1v-5.92c0-.76-.17-1.3-.52-1.68-.32-.36-.87-.55-1.59-.55-.96 0-1.66.26-2.1.77-.45.53-.67 1.39-.67 2.57v4.81h-1.39v-9.16h1.13l.22 1.25h.07c.3-.44.69-.8 1.2-1.04a3.75 3.75 0 011.71-.38c1.1 0 1.94.27 2.49.8.56.53.83 1.4.83 2.56v5.97h-1.38zM530.61 148.1v-5.92c0-.76-.17-1.3-.51-1.68-.33-.36-.87-.55-1.6-.55-.95 0-1.65.26-2.1.77-.44.53-.67 1.39-.67 2.57v4.81h-1.38v-9.16h1.13l.22 1.25h.07c.29-.44.68-.8 1.2-1.04a3.75 3.75 0 011.7-.38c1.1 0 1.94.27 2.49.8.57.53.84 1.4.84 2.56v5.97h-1.39zM536.16 138.94v5.94c0 .75.17 1.3.5 1.68.35.36.88.55 1.6.55.96 0 1.66-.26 2.1-.79.45-.53.67-1.39.67-2.57v-4.8h1.4v9.15h-1.16l-.2-1.23H541c-.3.46-.68.8-1.18 1.04a4 4 0 01-1.73.36c-1.11 0-1.95-.27-2.5-.8-.56-.53-.84-1.37-.84-2.54v-5.99h1.4zM549.54 138.77c.41 0 .77.03 1.1.1l-.2 1.29a4.6 4.6 0 00-1-.12c-.74 0-1.37.29-1.9.9-.53.6-.8 1.34-.8 2.25v4.91h-1.38v-9.16h1.15l.15 1.7h.07c.34-.6.76-1.07 1.23-1.4.48-.3 1.01-.47 1.58-.47z" fill="#111827" fill-rule="nonzero"/>
    <g>
      <path d="M62.38 177.6c0 .86-.3 1.5-.96 1.97-.63.46-1.52.7-2.67.7a5.72 5.72 0 01-2.84-.58v-1.28a6.29 6.29 0 002.88.72c.73 0 1.28-.13 1.67-.35.4-.24.58-.58.58-1.06 0-.36-.15-.67-.46-.92a7.6 7.6 0 00-1.81-.9 9.89 9.89 0 01-1.82-.83 2.4 2.4 0 01-.8-.8 2.1 2.1 0 01-.26-1.09c0-.73.3-1.33.9-1.76.6-.43 1.45-.65 2.5-.65 1 0 1.96.2 2.9.6l-.5 1.13a6.67 6.67 0 00-2.5-.57c-.65 0-1.14.1-1.49.31-.32.2-.5.5-.5.86 0 .24.08.44.2.61.12.2.32.35.6.5.29.15.82.4 1.6.69 1.1.39 1.82.78 2.21 1.2.38.39.57.9.57 1.5zM68.3 180.27c-1.33 0-2.36-.41-3.08-1.23-.73-.8-1.1-1.97-1.1-3.46 0-1.54.38-2.72 1.12-3.56.73-.84 1.78-1.25 3.15-1.25.44 0 .89.05 1.32.14.44.1.78.2 1.04.34l-.43 1.18c-.3-.12-.63-.22-1-.3a4.18 4.18 0 00-.97-.13c-1.86 0-2.79 1.18-2.79 3.56 0 1.13.23 1.99.69 2.59.44.6 1.13.9 2.02.9.75 0 1.54-.17 2.34-.5v1.24c-.61.31-1.38.48-2.3.48zM79.06 180.1v-5.92c0-.76-.18-1.3-.52-1.68-.32-.36-.87-.55-1.59-.55-.96 0-1.66.26-2.1.79-.45.51-.67 1.39-.67 2.57v4.79h-1.39v-13.01h1.39v3.94c0 .48-.02.87-.07 1.18h.08c.28-.45.67-.79 1.17-1.05a3.78 3.78 0 011.73-.37c1.11 0 1.95.27 2.51.8.57.53.84 1.37.84 2.54v5.97h-1.38zM84.68 180.1H83.3v-9.16h1.38v9.16zm-1.5-11.64c0-.33.08-.55.24-.7a.77.77 0 01.58-.23c.22 0 .41.09.58.23.16.15.24.39.24.7 0 .3-.08.55-.24.7a.83.83 0 01-.58.22.77.77 0 01-.58-.22c-.16-.15-.24-.4-.24-.7zM91.3 180.27c-1.34 0-2.37-.41-3.09-1.23-.74-.8-1.1-1.97-1.1-3.46 0-1.54.38-2.72 1.12-3.56.73-.84 1.78-1.25 3.15-1.25.44 0 .89.05 1.32.14.44.1.78.2 1.04.34l-.43 1.18c-.3-.12-.63-.22-1-.3a4.18 4.18 0 00-.97-.13c-1.86 0-2.79 1.18-2.79 3.56 0 1.13.22 1.99.69 2.59.44.6 1.13.9 2.02.9.75 0 1.54-.17 2.34-.5v1.24c-.61.31-1.38.48-2.3.48zM97.15 175.4c.24-.33.6-.78 1.1-1.33l2.96-3.13h1.64l-3.72 3.9 3.98 5.26h-1.68l-3.24-4.33-1.04.9v3.43h-1.37v-13.01h1.37v6.9c0 .3-.02.79-.07 1.42h.07zM114.84 180.1l-.27-1.3h-.07c-.46.56-.9.96-1.37 1.16-.44.2-1 .31-1.7.31a3.1 3.1 0 01-2.13-.7 2.58 2.58 0 01-.77-2c0-1.85 1.47-2.83 4.43-2.91l1.56-.06v-.56c0-.72-.16-1.25-.46-1.6-.31-.34-.8-.5-1.5-.5-.75 0-1.62.23-2.58.7l-.43-1.07a6.43 6.43 0 013.1-.78c1.1 0 1.9.24 2.43.73.53.48.8 1.25.8 2.33v6.25h-1.04zm-3.13-.98c.86 0 1.54-.24 2.04-.71s.73-1.13.73-2v-.81l-1.38.05c-1.1.05-1.9.22-2.38.51-.5.31-.74.79-.74 1.42 0 .5.16.9.45 1.15.3.26.73.4 1.28.4zM120.03 170.94v5.94c0 .75.18 1.3.52 1.68.34.36.87.55 1.59.55.96 0 1.66-.26 2.1-.79.45-.53.67-1.39.67-2.57v-4.8h1.39v9.15h-1.15l-.2-1.23h-.07c-.3.46-.69.8-1.18 1.04a4 4 0 01-1.73.36c-1.11 0-1.95-.27-2.5-.8-.57-.53-.84-1.37-.84-2.54v-5.99h1.4zM135.15 177.6c0 .86-.31 1.5-.96 1.97-.64.46-1.53.7-2.67.7a5.72 5.72 0 01-2.84-.58v-1.28a6.29 6.29 0 002.88.72c.73 0 1.28-.13 1.67-.35.4-.24.58-.58.58-1.06 0-.36-.15-.67-.46-.92a7.6 7.6 0 00-1.82-.9 9.89 9.89 0 01-1.81-.83 2.4 2.4 0 01-.8-.8 2.1 2.1 0 01-.26-1.09c0-.73.29-1.33.9-1.76.6-.43 1.44-.65 2.5-.65 1 0 1.96.2 2.9.6l-.5 1.13a6.67 6.67 0 00-2.5-.57c-.65 0-1.14.1-1.49.31-.32.2-.5.5-.5.86 0 .24.08.44.2.61.12.2.32.35.6.5.29.15.82.4 1.6.69 1.1.39 1.82.78 2.21 1.2.38.39.57.9.57 1.5zM143.31 177.6c0 .86-.3 1.5-.95 1.97-.64.46-1.53.7-2.68.7a5.72 5.72 0 01-2.84-.58v-1.28a6.29 6.29 0 002.88.72c.74 0 1.28-.13 1.68-.35.4-.24.58-.58.58-1.06 0-.36-.16-.67-.46-.92a7.6 7.6 0 00-1.82-.9 9.89 9.89 0 01-1.81-.83 2.4 2.4 0 01-.8-.8 2.1 2.1 0 01-.26-1.09c0-.73.29-1.33.9-1.76.6-.43 1.44-.65 2.5-.65 1 0 1.95.2 2.9.6l-.5 1.13a6.67 6.67 0 00-2.5-.57c-.65 0-1.15.1-1.49.31-.32.2-.5.5-.5.86 0 .24.07.44.2.61.11.2.32.35.6.5.28.15.81.4 1.6.69 1.1.39 1.82.78 2.2 1.2.39.39.57.9.57 1.5zM146.96 180.1h-1.39v-9.16h1.4v9.16zm-1.5-11.64c0-.33.08-.55.23-.7a.77.77 0 01.59-.23c.22 0 .4.09.58.23.15.15.24.39.24.7 0 .3-.09.55-.24.7a.83.83 0 01-.58.22.77.77 0 01-.59-.22c-.15-.15-.23-.4-.23-.7zM153.77 180.27a4.14 4.14 0 01-3.2-1.25 4.76 4.76 0 01-1.18-3.42 5.3 5.3 0 011.1-3.53c.72-.87 1.7-1.3 2.92-1.3 1.15 0 2.06.38 2.73 1.13a4.37 4.37 0 011 3v.87h-6.31c.03 1.08.3 1.9.82 2.45.51.56 1.23.84 2.18.84.99 0 1.96-.21 2.92-.62v1.23c-.5.2-.96.36-1.38.46-.45.09-.98.14-1.6.14zm-.37-8.34c-.74 0-1.32.24-1.77.72a3.43 3.43 0 00-.77 1.99h4.8c0-.87-.2-1.54-.58-2a2.1 2.1 0 00-1.68-.7zM165.78 180.1v-5.92c0-.76-.17-1.3-.52-1.68-.32-.36-.87-.55-1.59-.55-.96 0-1.66.26-2.1.79-.45.51-.67 1.39-.67 2.57v4.79h-1.39v-13.01h1.39v3.94c0 .48-.02.87-.07 1.18h.08c.28-.45.67-.79 1.17-1.05a3.78 3.78 0 011.73-.37c1.11 0 1.95.27 2.51.8.57.53.84 1.37.84 2.54v5.97h-1.38zM172.98 179.12c.24 0 .48-.01.7-.05.24-.03.41-.08.55-.12v1.06c-.16.07-.38.14-.67.2-.29.03-.55.06-.79.06-1.76 0-2.65-.94-2.65-2.8v-5.45h-1.32v-.67l1.32-.58.58-1.95h.8v2.12h2.66v1.08h-2.65v5.4c0 .54.13.97.4 1.26.25.29.6.44 1.07.44z" fill="#111827" fill-rule="nonzero"/>
    </g>
  </g>
</svg>