<svg width="1028" height="697" viewBox="0 0 1028 697" fill="none" xmlns="http://www.w3.org/2000/svg">
<g clip-path="url(#clip0_2_173)">
<path d="M1020 693.902H0V695.902H1020V693.902Z" fill="#2F2E41"/>
<path d="M548.686 604.006H388.374C364.329 604.006 344.767 584.444 344.767 560.399V136.607C344.767 112.562 364.329 93 388.374 93H548.686C572.731 93 592.293 112.562 592.293 136.607C595.277 306.789 600.366 497.365 592.293 560.399C592.293 584.444 572.731 604.006 548.686 604.006L548.686 604.006V604.006Z" fill="#3F3D56"/>
<path d="M594.528 248.885C593.511 248.885 592.683 249.712 592.683 250.729V309.762C592.683 310.78 593.511 311.607 594.528 311.607C595.546 311.607 596.373 310.78 596.373 309.762V250.729C596.373 249.712 595.546 248.885 594.528 248.885Z" fill="#3F3D56"/>
<path d="M588.142 136.607V560.391C588.142 581.32 571.853 598.44 551.256 599.768H551.247C550.942 599.787 550.638 599.805 550.324 599.814C549.78 599.842 549.236 599.851 548.682 599.851C548.682 599.851 546.653 599.704 542.945 599.427C539.2 599.15 533.749 598.735 526.951 598.191C524.912 598.034 522.763 597.859 520.494 597.674C515.974 597.306 511.012 596.9 505.69 596.438C503.568 596.263 501.373 596.07 499.131 595.876C487.675 594.889 474.845 593.736 461.313 592.426C459.026 592.214 456.72 591.993 454.395 591.762C453.787 591.697 348.918 565.335 348.918 560.391V136.607C348.918 114.811 366.582 97.1473 388.378 97.1473H411.936C415.699 97.1473 418.725 100.081 419.048 103.835C419.075 104.084 419.103 104.333 419.149 104.582C419.832 108.354 423.291 110.983 427.128 110.983H509.933C513.77 110.983 517.229 108.354 517.911 104.582C517.957 104.333 517.985 104.084 518.013 103.835C518.336 100.081 521.361 97.1473 525.124 97.1473H548.682C570.478 97.1473 588.142 114.811 588.142 136.607H588.142Z" fill="white"/>
<path d="M343.845 204.61C342.827 204.61 342 205.437 342 206.454V221.213C342 222.23 342.827 223.058 343.845 223.058C344.862 223.058 345.69 222.23 345.69 221.213V206.454C345.69 205.437 344.862 204.61 343.845 204.61V204.61Z" fill="#3F3D56"/>
<path d="M343.845 248.885C342.827 248.885 342 249.712 342 250.729V279.323C342 280.341 342.827 281.168 343.845 281.168C344.862 281.168 345.69 280.341 345.69 279.323V250.729C345.69 249.712 344.862 248.884 343.845 248.884V248.885Z" fill="#3F3D56"/>
<path d="M343.845 289.47C342.827 289.47 342 290.297 342 291.315V319.909C342 320.926 342.827 321.754 343.845 321.754C344.862 321.754 345.69 320.926 345.69 319.909V291.315C345.69 290.297 344.862 289.47 343.845 289.47Z" fill="#3F3D56"/>
<path d="M411.33 103.608H375.978C375.806 103.608 375.667 103.747 375.667 103.918V107.909C375.667 108.081 375.806 108.22 375.978 108.22H411.33C411.502 108.22 411.641 108.081 411.641 107.909V103.918C411.641 103.747 411.502 103.608 411.33 103.608Z" fill="#E6E6E6"/>
<path d="M530.954 108.22C532.991 108.22 534.643 106.568 534.643 104.53C534.643 102.492 532.991 100.84 530.954 100.84C528.916 100.84 527.264 102.492 527.264 104.53C527.264 106.568 528.916 108.22 530.954 108.22Z" fill="#E6E6E6"/>
<path d="M541.1 108.22C543.138 108.22 544.79 106.568 544.79 104.53C544.79 102.492 543.138 100.84 541.1 100.84C539.062 100.84 537.41 102.492 537.41 104.53C537.41 106.568 539.062 108.22 541.1 108.22Z" fill="#E6E6E6"/>
<path d="M551.246 108.22C553.284 108.22 554.936 106.568 554.936 104.53C554.936 102.492 553.284 100.84 551.246 100.84C549.209 100.84 547.557 102.492 547.557 104.53C547.557 106.568 549.209 108.22 551.246 108.22Z" fill="#E6E6E6"/>
<path d="M847 246.799V352.799C847 362.173 839.374 369.799 830 369.799H568C558.626 369.799 551 362.173 551 352.799V246.799C551 237.425 558.626 229.799 568 229.799H830C839.374 229.799 847 237.425 847 246.799Z" fill="white"/>
<path d="M847 246.799V352.799C847 362.173 839.374 369.799 830 369.799H568C558.626 369.799 551 362.173 551 352.799V246.799C551 237.425 558.626 229.799 568 229.799H830C839.374 229.799 847 237.425 847 246.799ZM830 367.799C838.284 367.799 845 361.083 845 352.799V299.358C845 262.046 814.753 231.799 777.441 231.799H568C559.716 231.799 553 238.515 553 246.799V352.799C553 361.083 559.716 367.799 568 367.799H830Z" fill="#3F3D56"/>
<path d="M668.61 293.841H634.39C633.527 293.841 632.825 294.542 632.825 295.405C632.825 296.268 633.527 296.97 634.39 296.97H668.61C669.473 296.97 670.175 296.268 670.175 295.405C670.175 294.542 669.473 293.841 668.61 293.841Z" fill="#6C63FF"/>
<path d="M720.61 293.841H686.39C685.527 293.841 684.825 294.542 684.825 295.405C684.825 296.268 685.527 296.97 686.39 296.97H720.61C721.473 296.97 722.175 296.268 722.175 295.405C722.175 294.542 721.473 293.841 720.61 293.841Z" fill="#6C63FF"/>
<path d="M668.61 310.947H634.39C633.527 310.947 632.825 311.648 632.825 312.511C632.825 313.374 633.527 314.076 634.39 314.076H668.61C669.473 314.076 670.175 313.374 670.175 312.511C670.175 311.648 669.473 310.947 668.61 310.947Z" fill="#6C63FF"/>
<path d="M720.61 310.947H686.39C685.527 310.947 684.825 311.648 684.825 312.511C684.825 313.374 685.527 314.076 686.39 314.076H720.61C721.473 314.076 722.175 313.374 722.175 312.511C722.175 311.648 721.473 310.947 720.61 310.947Z" fill="#6C63FF"/>
<path d="M774.175 312.511C774.175 311.648 773.473 310.947 772.61 310.947H738.39C737.527 310.947 736.825 311.648 736.825 312.511C736.825 313.374 737.527 314.076 738.39 314.076H772.61C773.473 314.076 774.175 313.374 774.175 312.511Z" fill="#6C63FF"/>
<path d="M648.61 280.182C649.473 280.182 650.175 279.48 650.175 278.617C650.175 277.754 649.473 277.053 648.61 277.053H614.39C613.527 277.053 612.825 277.754 612.825 278.617C612.825 279.48 613.527 280.182 614.39 280.182H648.61Z" fill="#6C63FF"/>
<path d="M749.39 279.546H783.61C784.473 279.546 785.175 278.844 785.175 277.981C785.175 277.118 784.473 276.416 783.61 276.416H749.39C748.527 276.416 747.825 277.118 747.825 277.981C747.825 278.844 748.527 279.546 749.39 279.546Z" fill="#6C63FF"/>
<path d="M663.027 279.875H733.974C734.836 279.875 735.538 279.173 735.538 278.31C735.538 277.447 734.836 276.746 733.974 276.746H663.027C662.164 276.746 661.462 277.447 661.462 278.31C661.462 279.173 662.164 279.875 663.027 279.875Z" fill="#6C63FF"/>
<path d="M690.941 326.488H656.72C655.857 326.488 655.156 327.19 655.156 328.053C655.156 328.915 655.857 329.617 656.72 329.617H690.941C691.804 329.617 692.505 328.915 692.505 328.053C692.505 327.19 691.804 326.488 690.941 326.488Z" fill="#6C63FF"/>
<path d="M801.462 246V352C801.462 361.374 793.836 369 784.462 369H678.462C669.088 369 661.462 361.374 661.462 352V246C661.462 236.626 669.088 229 678.462 229H784.462C793.836 229 801.462 236.626 801.462 246Z" fill="white"/>
<path d="M801.462 246V352C801.462 361.374 793.836 369 784.462 369H678.462C669.088 369 661.462 361.374 661.462 352V246C661.462 236.626 669.088 229 678.462 229H784.462C793.836 229 801.462 236.626 801.462 246ZM777.886 367C789.802 367 799.462 357.34 799.462 345.424V298.559C799.462 261.247 769.215 231 731.903 231H678.462C670.178 231 663.462 237.716 663.462 246V337.211C663.462 353.663 676.799 367 693.251 367H777.886V367H777.886V367Z" fill="#3F3D56"/>
<path d="M745.572 272.292H711.352C710.489 272.292 709.787 271.59 709.787 270.727C709.787 269.865 710.489 269.163 711.352 269.163H745.572C746.435 269.163 747.137 269.865 747.137 270.727C747.137 271.59 746.435 272.292 745.572 272.292V272.292Z" fill="#6C63FF"/>
<path d="M745.572 305.656H711.352C710.489 305.656 709.787 304.954 709.787 304.091C709.787 303.228 710.489 302.527 711.352 302.527H745.572C746.435 302.527 747.137 303.228 747.137 304.091C747.137 304.954 746.435 305.656 745.572 305.656V305.656Z" fill="#6C63FF"/>
<path d="M728.572 351.656H694.352C693.489 351.656 692.787 350.954 692.787 350.091C692.787 349.228 693.489 348.527 694.352 348.527H728.572C729.435 348.527 730.137 349.228 730.137 350.091C730.137 350.954 729.435 351.656 728.572 351.656V351.656Z" fill="#6C63FF"/>
<path d="M763.936 288.985H692.989C692.126 288.985 691.424 288.283 691.424 287.42C691.424 286.557 692.126 285.856 692.989 285.856H763.936C764.798 285.856 765.5 286.557 765.5 287.42C765.5 288.283 764.798 288.985 763.936 288.985V288.985V288.985Z" fill="#6C63FF"/>
<path d="M904.914 661.402C861.284 661.402 825.914 626.032 825.914 582.402C825.914 538.771 861.284 503.402 904.914 503.402C948.545 503.402 983.914 538.771 983.914 582.402C983.914 626.032 948.545 661.402 904.914 661.402Z" fill="#2F2E41"/>
<path d="M916.914 644.402H940.914V687.402H916.914V644.402Z" fill="#2F2E41"/>
<path d="M868.914 644.402H892.914V687.402H868.914V644.402Z" fill="#2F2E41"/>
<path d="M920.914 695.402C909.869 695.402 900.914 692.044 900.914 687.902C900.914 683.76 909.869 680.402 920.914 680.402C931.96 680.402 940.914 683.76 940.914 687.902C940.914 692.044 931.96 695.402 920.914 695.402Z" fill="#2F2E41"/>
<path d="M872.914 694.402C861.869 694.402 852.914 691.044 852.914 686.902C852.914 682.76 861.869 679.402 872.914 679.402C883.96 679.402 892.914 682.76 892.914 686.902C892.914 691.044 883.96 694.402 872.914 694.402Z" fill="#2F2E41"/>
<path d="M902.914 589.402C888.003 589.402 875.914 577.314 875.914 562.402C875.914 547.49 888.003 535.402 902.914 535.402C917.826 535.402 929.914 547.49 929.914 562.402C929.914 577.314 917.826 589.402 902.914 589.402Z" fill="white"/>
<path d="M902.914 559.402C897.944 559.402 893.914 555.372 893.914 550.402C893.914 545.431 897.944 541.402 902.914 541.402C907.885 541.402 911.914 545.431 911.914 550.402C911.914 555.372 907.885 559.402 902.914 559.402Z" fill="#3F3D56"/>
<path d="M981.547 508.934C987.926 480.367 967.535 451.5 936.003 444.459C904.471 437.419 873.738 454.869 867.359 483.437C860.98 512.005 881.878 522.541 913.41 529.582C944.942 536.622 975.168 537.502 981.547 508.934Z" fill="#6C63FF"/>
<path d="M833.892 500.212C824.699 480.428 822.282 462.051 828.493 459.165C834.703 456.279 847.19 469.977 856.383 489.761C865.576 509.545 867.994 527.922 861.783 530.808C855.573 533.694 843.085 519.996 833.892 500.212Z" fill="#2F2E41"/>
<path d="M971.659 553.897C965.606 550.693 968.973 532.466 979.178 513.185C989.384 493.904 1002.56 480.872 1008.62 484.075C1014.67 487.279 1011.3 505.507 1001.1 524.787C990.892 544.068 977.712 557.101 971.659 553.897Z" fill="#2F2E41"/>
<path d="M230.25 564.023C225.571 559.022 234.694 542.886 250.626 527.984C266.557 513.081 283.265 505.054 287.943 510.056C292.622 515.057 283.499 531.193 267.567 546.095C251.636 560.998 234.928 569.024 230.25 564.023Z" fill="#2F2E41"/>
<path d="M179.225 662.104C135.594 662.104 100.225 626.734 100.225 583.104C100.225 539.473 135.594 504.104 179.225 504.104C222.855 504.104 258.225 539.473 258.225 583.104C258.225 626.734 222.855 662.104 179.225 662.104Z" fill="#2F2E41"/>
<path d="M166.934 688.066L142.934 687.999L143.054 644.999L167.054 645.066L166.934 688.066Z" fill="#2F2E41"/>
<path d="M214.931 688.204L190.931 688.137L191.051 645.137L215.051 645.204L214.931 688.204Z" fill="#2F2E41"/>
<path d="M162.908 696.058C151.863 696.027 142.918 692.645 142.929 688.502C142.941 684.36 151.905 681.028 162.95 681.058C173.996 681.089 182.941 684.472 182.929 688.614C182.918 692.757 173.954 696.089 162.908 696.058Z" fill="#2F2E41"/>
<path d="M210.911 695.193C199.865 695.162 190.92 691.779 190.932 687.637C190.943 683.495 199.907 680.162 210.953 680.193C221.998 680.224 230.943 683.607 230.932 687.749C230.92 691.891 221.956 695.224 210.911 695.193Z" fill="#2F2E41"/>
<path d="M181.281 590.109C166.369 590.109 154.281 578.021 154.281 563.109C154.281 548.198 166.369 536.109 181.281 536.109C196.192 536.109 208.281 548.198 208.281 563.109C208.281 578.021 196.192 590.109 181.281 590.109Z" fill="white"/>
<path d="M188.414 567C183.444 567 179.414 562.971 179.414 558C179.414 553.029 183.444 549 188.414 549C193.385 549 197.414 553.029 197.414 558C197.414 562.971 193.385 567 188.414 567Z" fill="#3F3D56"/>
<path d="M102.798 509.422C96.4992 480.836 116.971 452.027 148.523 445.075C180.074 438.122 210.758 455.659 217.057 484.245C223.356 512.83 202.429 523.308 170.877 530.26C139.325 537.212 109.097 538.007 102.798 509.422Z" fill="#6C63FF"/>
<path d="M96.959 630.169C75.7207 635.153 57.2353 633.788 55.6706 627.121C54.106 620.454 70.0546 611.008 91.2929 606.024C112.531 601.04 131.017 602.405 132.581 609.072C134.146 615.74 118.197 625.185 96.959 630.169Z" fill="#2F2E41"/>
<path d="M140.34 611.495C140.319 619.227 160.185 634.551 182.276 634.613C204.367 634.674 225.141 612.965 225.163 605.233C225.185 597.501 204.446 606.675 182.354 606.613C160.263 606.551 140.362 603.763 140.34 611.495Z" fill="white"/>
<path d="M882.009 427.59C838.379 427.59 803.009 392.221 803.009 348.59C803.009 304.96 838.379 269.59 882.009 269.59C925.64 269.59 961.009 304.96 961.009 348.59C961.009 392.221 925.64 427.59 882.009 427.59Z" fill="#2F2E41"/>
<path d="M904.862 407.461L928.478 403.186L936.138 445.498L912.522 449.773L904.862 407.461Z" fill="#2F2E41"/>
<path d="M857.63 416.011L881.246 411.736L888.905 454.048L865.289 458.324L857.63 416.011Z" fill="#2F2E41"/>
<path d="M857.717 474.43C855.04 471.269 859.703 462.92 868.132 455.781C876.561 448.643 885.564 445.418 888.241 448.579C890.918 451.74 886.255 460.09 877.826 467.228C869.397 474.367 860.394 477.591 857.717 474.43Z" fill="#2F2E41"/>
<path d="M903.965 466.058C901.288 462.897 905.951 454.548 914.38 447.409C922.809 440.271 931.812 437.046 934.489 440.207C937.166 443.368 932.503 451.717 924.074 458.856C915.645 465.994 906.642 469.219 903.965 466.058Z" fill="#2F2E41"/>
<path d="M876.479 356.266C861.567 356.266 849.479 344.178 849.479 329.266C849.479 314.355 861.567 302.266 876.479 302.266C891.39 302.266 903.479 314.355 903.479 329.266C903.479 344.178 891.39 356.266 876.479 356.266Z" fill="white"/>
<path d="M865.382 328.588C860.411 328.588 856.382 324.559 856.382 319.588C856.382 314.618 860.411 310.588 865.382 310.588C870.352 310.588 874.382 314.618 874.382 319.588C874.382 324.559 870.352 328.588 865.382 328.588Z" fill="#3F3D56"/>
<path d="M944.329 262.647C945.517 233.4 920.311 208.627 888.029 207.316C855.747 206.005 828.614 228.651 827.426 257.898C826.238 287.145 848.678 293.79 880.96 295.101C913.242 296.413 943.141 291.894 944.329 262.647Z" fill="#6C63FF"/>
<path d="M806.293 346.284C785.03 341.41 769.032 332.048 770.562 325.373C772.092 318.697 790.571 317.237 811.834 322.111C833.098 326.985 849.095 336.347 847.565 343.023C846.035 349.698 827.557 351.158 806.293 346.284Z" fill="#2F2E41"/>
<path d="M961.367 372.073C940.104 367.199 924.106 357.837 925.636 351.161C927.166 344.486 945.645 343.025 966.908 347.9C988.172 352.774 1004.17 362.136 1002.64 368.811C1001.11 375.487 982.631 376.947 961.367 372.073Z" fill="#2F2E41"/>
<path d="M903.707 379.723C904.557 384.421 903.507 389.264 900.786 393.187C898.066 397.11 893.899 399.791 889.201 400.642C884.504 401.492 879.661 400.441 875.738 397.721C871.815 395.001 869.133 390.833 868.283 386.136C866.512 376.354 874.075 372.892 883.857 371.121C893.639 369.351 901.936 369.941 903.707 379.723Z" fill="white"/>
<path d="M408 634C490.843 634 558 566.843 558 484C558 401.157 490.843 334 408 334C325.157 334 258 401.157 258 484C258 566.843 325.157 634 408 634Z" fill="#6C63FF"/>
<path d="M408 416.849C418.596 416.849 427.186 425.439 427.186 436.035V474.407H388.814V436.035C388.814 425.439 397.404 416.849 408 416.849V416.849ZM436.779 474.407V436.035C436.779 420.141 423.894 407.256 408 407.256C392.106 407.256 379.221 420.141 379.221 436.035V474.407C368.625 474.407 360.035 482.997 360.035 493.593V541.558C360.035 552.154 368.625 560.744 379.221 560.744H436.779C447.375 560.744 455.965 552.154 455.965 541.558V493.593C455.965 482.997 447.375 474.407 436.779 474.407H436.779V474.407ZM379.221 484H436.779C442.077 484 446.372 488.295 446.372 493.593V541.558C446.372 546.856 442.077 551.151 436.779 551.151H379.221C373.923 551.151 369.628 546.856 369.628 541.558V493.593C369.628 488.295 373.923 484 379.221 484V484Z" fill="white"/>
</g>
<defs>
<clipPath id="clip0_2_173">
<rect width="1027.5" height="696.059" fill="white"/>
</clipPath>
</defs>
</svg>
