<svg viewBox="0 0 604 402" xmlns="http://www.w3.org/2000/svg" fill-rule="evenodd" clip-rule="evenodd"><g><g><g><path d="M41.8 41.6h-2.1V28.7h7.2v1.8h-5.1v4h4.8v1.8h-4.8v5.3zM55.1 41.6l-.4-1.4c-.5.6-1 1-1.5 1.2-.4.3-1 .4-1.8.4-1 0-1.7-.3-2.2-.8-.6-.5-.8-1.2-.8-2.2 0-1 .4-1.7 1-2.3.8-.5 2-.8 3.5-.8h1.7V35c0-.6-.2-1-.5-1.4-.3-.3-.7-.4-1.3-.4-.5 0-1 0-1.5.2L50 34l-.6-1.5c.5-.2 1-.5 1.7-.6a8 8 0 011.8-.2c1.2 0 2.1.3 2.8.8.6.5 1 1.4 1 2.5v6.6H55zm-3-1.4c.7 0 1.3-.2 1.8-.6.4-.5.6-1 .6-1.8v-.9l-1.2.1c-1 0-1.7.2-2.1.5-.5.3-.7.7-.7 1.3 0 .4.1.8.4 1 .3.3.6.4 1.2.4zM67.7 41.6h-2v-6c0-.7-.2-1.3-.5-1.7-.3-.3-.7-.5-1.3-.5-.8 0-1.4.2-1.8.8-.4.5-.5 1.3-.5 2.5v4.9h-2.1v-9.7h1.6l.3 1.2h.1c.3-.4.7-.8 1.2-1 .5-.3 1-.4 1.7-.4 1.5 0 2.5.5 3 1.5.4-.5.8-.8 1.3-1.1.5-.3 1.1-.4 1.8-.4 1.1 0 2 .3 2.5.9.6.6.8 1.4.8 2.7v6.3h-2v-6c0-.7-.2-1.3-.5-1.7-.2-.3-.7-.5-1.3-.5-.8 0-1.4.2-1.8.7-.3.5-.5 1.3-.5 2.3v5.2zM78.8 41.6h-2v-9.7h2v9.7zm-2.2-12.3c0-.4 0-.7.3-.9.2-.2.5-.3.9-.3.3 0 .6.1.8.3.2.2.3.5.3.9 0 .3-.1.6-.3.8-.2.2-.5.3-.8.3-.4 0-.7 0-1-.3l-.2-.8zM82 27.2h1.8v14.4H82zM88.8 41.6h-2v-9.7h2v9.7zm-2.2-12.3c0-.4.1-.7.3-.9.2-.2.5-.3.9-.3.3 0 .6.1.8.3.2.2.3.5.3.9 0 .3 0 .6-.3.8-.2.2-.5.3-.8.3-.4 0-.7 0-.9-.3-.2-.2-.3-.5-.3-.8zM96 41.8c-1.5 0-2.7-.5-3.5-1.4a5 5 0 01-1.3-3.6c0-1.6.4-2.8 1.2-3.7a4 4 0 013.2-1.4 4 4 0 013 1.2c.8.7 1.2 1.8 1.2 3.2v1.1h-6.5c0 1 .3 1.7.8 2.2.5.5 1.1.7 2 .7a7.4 7.4 0 003.2-.7v1.7l-1.5.5-1.8.2zm-.4-8.5a2 2 0 00-1.6.6 3 3 0 00-.7 1.8h4.5c0-.8-.2-1.4-.6-1.8a2 2 0 00-1.6-.6zM110.7 41.6h-2v-6c0-.7-.2-1.3-.5-1.7-.3-.3-.8-.5-1.5-.5-.9 0-1.5.2-1.9.8-.4.5-.6 1.3-.6 2.5v4.9h-2v-9.7h1.6l.2 1.2h.1c.3-.4.8-.8 1.3-1 .5-.3 1.1-.4 1.8-.4 2.3 0 3.5 1.2 3.5 3.6v6.3zM122.1 41.6h-2v-6c0-.7-.2-1.3-.5-1.7-.3-.3-.8-.5-1.5-.5-.8 0-1.5.2-1.9.8-.4.5-.6 1.3-.6 2.5v4.9h-2v-9.7h1.6l.3 1.2c.4-.4.8-.8 1.3-1 .6-.3 1.2-.4 1.8-.4 2.3 0 3.5 1.2 3.5 3.6v6.3zM131 41.6l-.3-1.4h-.1c-.5.6-1 1-1.4 1.2-.5.3-1.1.4-1.9.4-1 0-1.7-.3-2.2-.8-.5-.5-.8-1.2-.8-2.2 0-1 .4-1.7 1.1-2.3.8-.5 1.9-.8 3.4-.8h1.7V35c0-.6-.2-1-.4-1.4-.3-.3-.8-.4-1.4-.4-.5 0-1 0-1.4.2l-1.3.5-.7-1.5c.5-.2 1-.5 1.7-.6a8 8 0 011.8-.2c1.2 0 2.2.3 2.8.8.6.5 1 1.4 1 2.5v6.6H131zm-3-1.4c.7 0 1.3-.2 1.8-.6.5-.5.7-1 .7-1.8v-.9l-1.3.1c-1 0-1.6.2-2 .5-.5.3-.8.7-.8 1.3 0 .4.2.8.4 1 .3.3.7.4 1.2.4zM143.6 41.6h-2v-6c0-.7-.2-1.3-.5-1.7-.3-.3-.7-.5-1.3-.5-.8 0-1.4.2-1.7.8-.4.5-.6 1.3-.6 2.5v4.9h-2v-9.7h1.5l.3 1.2h.1c.3-.4.7-.8 1.2-1 .5-.3 1-.4 1.7-.4 1.5 0 2.5.5 3 1.5h.1c.3-.5.7-.8 1.2-1.1.5-.3 1.1-.4 1.8-.4 1.2 0 2 .3 2.6.9.5.6.8 1.4.8 2.7v6.3h-2.1v-6c0-.7-.2-1.3-.4-1.7-.3-.3-.8-.5-1.4-.5-.8 0-1.3.2-1.7.7-.4.5-.6 1.3-.6 2.3v5.2zM156.9 41.8c-1.5 0-2.7-.5-3.6-1.4a5 5 0 01-1.2-3.6c0-1.6.4-2.8 1.1-3.7a4 4 0 013.3-1.4 4 4 0 013 1.2c.8.7 1.2 1.8 1.2 3.2v1.1h-6.5c0 1 .3 1.7.7 2.2.5.5 1.2.7 2 .7a7.4 7.4 0 003.3-.7v1.7l-1.6.5-1.7.2zm-.4-8.5a2 2 0 00-1.6.6 3 3 0 00-.7 1.8h4.4c0-.8-.2-1.4-.5-1.8a2 2 0 00-1.6-.6z" fill-rule="nonzero"/><g><path d="M566 59a8 8 0 00-8-8H46a8 8 0 00-8 8v28a8 8 0 008 8h512a8 8 0 008-8V59z" fill="#fff" stroke="#e5e7eb" stroke-width="2"/></g><g><path d="M47.7 152.6l-1.3-3.6h-5l-1.2 3.6H38l4.8-13h2.3l4.8 13h-2.2zm-1.9-5.4l-1.2-3.5-.3-1.1-.4-1.1-.6 2.4-1.2 3.3h3.7zM54.7 152.8c-1.3 0-2.2-.5-2.9-1.3a6 6 0 01-1-3.8 6 6 0 011-3.7c.7-.9 1.7-1.3 2.9-1.3 1.3 0 2.2.5 2.9 1.4h.1l-.1-1.6v-3.6h2v13.7H58l-.3-1.3h-.1c-.7 1-1.7 1.5-3 1.5zm.5-1.7c.9 0 1.5-.2 1.9-.7.3-.5.6-1.3.6-2.3v-.3c0-1.3-.2-2.1-.6-2.6-.4-.6-1-.8-2-.8-.6 0-1.2.3-1.6.9-.4.6-.6 1.4-.6 2.5 0 1 .2 1.9.6 2.4.4.6 1 .9 1.7.9zM67.5 142.7h1l-.1 2-1-.1c-.8 0-1.5.3-2 .8s-.7 1.2-.7 2.1v5h-2.1V143h1.6l.3 1.7c.4-.6.8-1 1.3-1.4a3 3 0 011.7-.5zM74.2 152.8c-1.5 0-2.7-.5-3.5-1.4a5 5 0 01-1.3-3.6c0-1.6.4-2.8 1.2-3.7a4 4 0 013.3-1.4 4 4 0 013 1.2c.7.7 1.1 1.8 1.1 3.2v1.1h-6.5c0 1 .3 1.7.8 2.2.5.5 1.2.7 2 .7a7.4 7.4 0 003.2-.7v1.7l-1.5.5-1.8.2zm-.3-8.5a2 2 0 00-1.6.6 3 3 0 00-.7 1.8H76c0-.8-.2-1.4-.6-1.8a2 2 0 00-1.5-.6zM86.9 149.8c0 1-.3 1.7-1 2.2a5 5 0 01-3 .8c-1.3 0-2.4-.2-3.1-.6v-1.8c1.1.5 2.2.8 3.2.8 1.2 0 1.9-.4 1.9-1.2l-.3-.6-.6-.5a20 20 0 00-1.4-.6 6.2 6.2 0 01-2.3-1.3c-.4-.4-.5-1-.5-1.7 0-.8.3-1.5 1-2 .6-.4 1.5-.6 2.7-.6 1.1 0 2.2.2 3.2.7l-.6 1.5c-1-.4-2-.6-2.7-.6-1 0-1.6.3-1.6 1 0 .2.1.5.4.7l1.9.9 1.7.8c.4.3.6.6.8 1 .2.3.3.6.3 1.1zM95.7 149.8c0 1-.4 1.7-1 2.2a5 5 0 01-3 .8c-1.4 0-2.4-.2-3.2-.6v-1.8c1.2.5 2.2.8 3.2.8 1.3 0 2-.4 2-1.2l-.3-.6-.7-.5a20 20 0 00-1.3-.6A6.2 6.2 0 0189 147c-.4-.4-.6-1-.6-1.7 0-.8.3-1.5 1-2 .7-.4 1.6-.6 2.8-.6 1 0 2.2.2 3.2.7l-.7 1.5c-1-.4-1.9-.6-2.6-.6-1.1 0-1.7.3-1.7 1 0 .2.2.5.5.7l1.8.9 1.8.8.8 1c.2.3.3.6.3 1.1zM102.1 152.8c-1.5 0-2.7-.5-3.5-1.4a5 5 0 01-1.3-3.6c0-1.6.4-2.8 1.2-3.7a4 4 0 013.3-1.4 4 4 0 013 1.2c.7.7 1.1 1.8 1.1 3.2v1.1h-6.5c0 1 .3 1.7.8 2.2.5.5 1.2.7 2 .7a7.4 7.4 0 003.2-.7v1.7l-1.5.5-1.8.2zm-.3-8.5a2 2 0 00-1.6.6 3 3 0 00-.7 1.8h4.4c0-.8-.2-1.4-.6-1.8a2 2 0 00-1.5-.6z" fill-rule="nonzero"/><g><path d="M566 170a8 8 0 00-8-8H46a8 8 0 00-8 8v52a8 8 0 008 8h512a8 8 0 008-8v-52z" fill="#fff" stroke="#e5e7eb" stroke-width="2"/></g><g><path d="M49.5 256.4c0 1.8-.5 3.2-1.4 4.3-1 1-2.2 1.5-3.9 1.5-1.6 0-3-.5-3.8-1.5-1-1-1.4-2.5-1.4-4.4 0-1.8.4-3.3 1.4-4.3a5 5 0 013.9-1.5c1.6 0 2.9.5 3.8 1.6 1 1 1.4 2.4 1.4 4.3zm-9.1 0c0 1.5.3 2.7 1 3.5.6.8 1.6 1.2 2.8 1.2 1.3 0 2.3-.4 2.9-1.2.7-.8 1-2 1-3.5 0-1.6-.3-2.7-1-3.5-.6-.8-1.6-1.2-2.8-1.2-1.3 0-2.3.4-3 1.2-.6.8-1 2-1 3.5zM55.7 253.4h1l-.1 1.3-1-.1c-.6 0-1.2.2-1.7.8a3 3 0 00-.8 2.1v4.6h-1.3v-8.6H53l.2 1.6c.3-.5.7-1 1.2-1.3.4-.3 1-.4 1.4-.4zM61.1 261.2h.7l.5-.2v1l-.6.2h-.8c-1.6 0-2.4-.8-2.4-2.6v-5h-1.3v-.7l1.3-.5.5-1.9h.8v2h2.4v1h-2.4v5c0 .6 0 1 .3 1.3.3.2.6.4 1 .4zM65.4 260.2v.2a17.6 17.6 0 01-1.3 3.8h-1l.5-2 .4-2h1.4zM78.7 259c0 1-.3 1.8-1 2.4-.8.6-1.8.8-3 .8-1.4 0-2.4-.1-3.1-.5v-1.3a8.4 8.4 0 003.1.7c.9 0 1.6-.2 2-.5.5-.4.7-.8.7-1.4 0-.4 0-.7-.2-1l-.8-.7-1.7-.7c-1.1-.4-1.9-.9-2.3-1.4a3 3 0 01-.7-2c0-.9.3-1.6 1-2.1a4 4 0 012.6-.8c1.1 0 2.2.2 3.1.6l-.4 1.2a7 7 0 00-2.7-.6c-.7 0-1.3.1-1.7.4-.4.3-.6.8-.6 1.3 0 .4.1.7.3 1 .1.2.3.5.7.7l1.6.7c1.2.4 2 .8 2.5 1.3.4.5.6 1.2.6 2zM83.6 261.2h.7l.5-.2v1l-.6.2h-.7c-1.7 0-2.5-.8-2.5-2.6v-5h-1.3v-.7l1.3-.5.5-1.9h.8v2h2.4v1h-2.4v5c0 .6.1 1 .3 1.3.3.2.6.4 1 .4zM90.4 253.4h1l-.1 1.3-1-.1c-.7 0-1.2.2-1.7.8a3 3 0 00-.8 2.1v4.6h-1.3v-8.6h1.1l.1 1.6h.1c.3-.5.7-1 1.2-1.3.4-.3.9-.4 1.4-.4zM98 262l-.3-1.1c-.5.5-.9.9-1.3 1-.4.3-1 .3-1.6.3-.8 0-1.5-.2-2-.6-.5-.5-.7-1-.7-1.9 0-1.7 1.4-2.6 4.1-2.7h1.5v-.6c0-.6-.1-1.1-.4-1.5-.3-.3-.8-.4-1.4-.4-.7 0-1.5.2-2.4.6l-.4-1a6 6 0 012.9-.7c1 0 1.7.2 2.2.7.5.4.8 1.1.8 2.1v5.9h-1zm-3-.8c.9 0 1.5-.2 2-.7.4-.4.7-1 .7-1.9v-.7h-1.3a5 5 0 00-2.3.5c-.4.3-.6.7-.6 1.3 0 .5.1.9.4 1.1.3.2.7.4 1.2.4zM108.4 252.2c0 .7-.3 1.3-1 2l-1 .8-.2.5.1.4.4.4.9.6 1.5 1.3c.2.5.4 1 .4 1.5 0 .8-.3 1.4-.8 1.9-.5.4-1.2.6-2.1.6-1 0-1.8-.1-2.3-.5v-1.2l1 .5 1.2.2c1.1 0 1.7-.5 1.7-1.4 0-.4-.1-.8-.3-1-.2-.3-.6-.6-1.2-1-.7-.4-1.1-.8-1.4-1.1-.2-.4-.3-.7-.3-1.2 0-.3 0-.6.2-.9l.8-.8.9-.8c.2-.2.2-.5.2-.8a1 1 0 00-.5-1c-.3-.2-.9-.3-1.5-.3-1.5 0-2.2.6-2.2 1.8v9.4h-1.3v-9.4c0-1 .3-1.6.9-2.1.6-.5 1.4-.8 2.6-.8 1 0 1.9.3 2.5.7.6.4.8 1 .8 1.7zM115.2 262.2c-1.3 0-2.3-.3-3-1.1a4.4 4.4 0 01-1-3.2 5 5 0 011-3.3c.6-.8 1.5-1.2 2.7-1.2 1 0 1.9.3 2.5 1a4 4 0 011 2.8v.8h-6c0 1 .3 1.8.8 2.3.5.6 1.2.8 2 .8 1 0 1.9-.2 2.8-.6v1.2l-1.3.4a8 8 0 01-1.5.1zm-.3-7.7c-.7 0-1.3.2-1.7.6-.4.5-.6 1.1-.7 1.9h4.5c0-.8-.2-1.5-.6-1.9a2 2 0 00-1.5-.6zM122 260.2v.2a17.6 17.6 0 01-1.3 3.8h-1l.4-2 .4-2h1.4zM137.8 262h-1.6l-6.2-9.5v9.6h-1.2v-11.4h1.5l6.3 9.5V259v-8.2h1.2V262zM144.6 253.4h1l-.1 1.3-1-.1c-.7 0-1.3.2-1.8.8a3 3 0 00-.7 2.1v4.6h-1.3v-8.6h1l.2 1.6 1.2-1.3c.5-.3 1-.4 1.5-.4zM147 261.3c0-.4.1-.7.3-.8.1-.2.4-.3.7-.3.3 0 .5 0 .7.3.2.1.2.4.2.8 0 .3 0 .6-.2.7a1 1 0 01-.7.3c-.3 0-.5 0-.7-.2-.2-.2-.3-.5-.3-.8z" fill-rule="nonzero"/></g></g><g><path d="M47 320.6h-7.3v-12.9H47v1.8h-5.2v3.5h4.8v1.8h-4.8v4H47v1.8zM48 315.2h5.4v1.8H48zM61 320.6l-3.6-10.7h-.1l.1 4.4v6.3h-1.9v-12.9h3l3.6 10.3 3.7-10.3h3v12.9h-2v-6.4-2.5-1.8l-3.9 10.7h-1.8zM78 320.6l-.4-1.4c-.5.6-1 1-1.5 1.2-.5.3-1 .4-1.8.4-1 0-1.7-.3-2.2-.8-.6-.5-.9-1.2-.9-2.2 0-1 .4-1.7 1.2-2.3.7-.5 1.8-.8 3.4-.8h1.6v-.6c0-.6-.1-1-.4-1.4-.3-.3-.7-.4-1.3-.4-.6 0-1 0-1.5.2l-1.3.5-.7-1.5c.6-.2 1.1-.5 1.8-.6a8 8 0 011.7-.2c1.3 0 2.2.3 2.8.8.7.5 1 1.4 1 2.5v6.6H78zm-3-1.4c.7 0 1.3-.2 1.7-.6.5-.5.7-1 .7-1.8v-.9l-1.2.1c-1 0-1.7.2-2.2.5-.4.3-.6.7-.6 1.3 0 .4.1.8.4 1 .2.3.6.4 1.1.4zM84.4 320.6h-2v-9.7h2v9.7zm-2.2-12.3c0-.4.1-.7.3-.9.2-.2.5-.3 1-.3.3 0 .6.1.8.3.2.2.3.5.3.9 0 .3-.1.6-.3.8-.2.2-.5.3-.9.3s-.7 0-.9-.3c-.2-.2-.3-.5-.3-.8zM87.7 306.2h1.8v14.4h-1.8zM91 315.2h5.3v1.8H91zM106.4 320.6L105 317h-5l-1.2 3.6h-2.2l4.8-13h2.3l4.8 13h-2.2zm-1.9-5.4l-1.2-3.5-.3-1.1-.3-1.1-.7 2.4-1.2 3.3h3.7zM113.4 320.8c-1.2 0-2.2-.5-2.9-1.3a6 6 0 01-1-3.8 6 6 0 011-3.7c.7-.9 1.7-1.3 3-1.3 1.2 0 2.2.5 2.8 1.4h.1l-.1-1.6v-3.6h2v13.7h-1.6l-.3-1.3h-.1c-.7 1-1.6 1.5-3 1.5zm.5-1.7c.9 0 1.5-.2 1.9-.7.4-.5.6-1.3.6-2.3v-.3c0-1.3-.2-2.1-.6-2.6-.4-.6-1-.8-1.9-.8-.7 0-1.3.3-1.7.9-.4.6-.6 1.4-.6 2.5 0 1 .2 1.9.6 2.4.4.6 1 .9 1.7.9zM126.2 310.7h1l-.1 2-1-.1c-.8 0-1.4.3-2 .8-.5.5-.7 1.2-.7 2.1v5h-2V311h1.5l.3 1.7h.1c.3-.6.7-1 1.3-1.4a3 3 0 011.6-.5zM133 320.8c-1.6 0-2.7-.5-3.6-1.4a5 5 0 01-1.3-3.6c0-1.6.4-2.8 1.2-3.7a4 4 0 013.3-1.4 4 4 0 013 1.2c.8.7 1.1 1.8 1.1 3.2v1.1h-6.4c0 1 .2 1.7.7 2.2.5.5 1.2.7 2 .7a7.4 7.4 0 003.3-.7v1.7l-1.6.5-1.7.2zm-.4-8.5a2 2 0 00-1.6.6 3 3 0 00-.7 1.8h4.4c0-.8-.2-1.4-.6-1.8a2 2 0 00-1.5-.6zM145.6 317.8c0 1-.3 1.7-1 2.2a5 5 0 01-3 .8c-1.3 0-2.3-.2-3.1-.6v-1.8c1.1.5 2.2.8 3.2.8 1.3 0 1.9-.4 1.9-1.2 0-.2 0-.4-.2-.6l-.7-.5a20 20 0 00-1.4-.6 6.2 6.2 0 01-2.2-1.3c-.4-.4-.6-1-.6-1.7 0-.8.3-1.5 1-2 .6-.4 1.6-.6 2.7-.6s2.2.2 3.3.7l-.7 1.5c-1-.4-2-.6-2.7-.6-1 0-1.6.3-1.6 1 0 .2.1.5.4.7l1.9.9 1.7.8c.4.3.7.6.8 1 .2.3.3.6.3 1.1zM154.4 317.8c0 1-.4 1.7-1 2.2a5 5 0 01-3 .8c-1.3 0-2.4-.2-3.1-.6v-1.8c1 .5 2.1.8 3.1.8 1.3 0 2-.4 2-1.2l-.3-.6-.7-.5a20 20 0 00-1.3-.6 6.2 6.2 0 01-2.3-1.3c-.4-.4-.6-1-.6-1.7 0-.8.4-1.5 1-2 .7-.4 1.6-.6 2.8-.6 1.1 0 2.2.2 3.2.7l-.6 1.5c-1-.4-2-.6-2.7-.6-1 0-1.6.3-1.6 1 0 .2.1.5.4.7l1.9.9 1.7.8c.4.3.6.6.8 1 .2.3.3.6.3 1.1zM160.9 320.8c-1.6 0-2.7-.5-3.6-1.4a5 5 0 01-1.3-3.6c0-1.6.4-2.8 1.2-3.7a4 4 0 013.3-1.4 4 4 0 013 1.2c.8.7 1.1 1.8 1.1 3.2v1.1h-6.4c0 1 .2 1.7.7 2.2.5.5 1.2.7 2 .7a7.4 7.4 0 003.3-.7v1.7l-1.6.5-1.7.2zm-.4-8.5a2 2 0 00-1.6.6 3 3 0 00-.7 1.8h4.4c0-.8-.2-1.4-.6-1.8a2 2 0 00-1.5-.6z" fill-rule="nonzero"/><g><path d="M566 338a8 8 0 00-8-8H46a8 8 0 00-8 8v28a8 8 0 008 8h512a8 8 0 008-8v-28z" fill="#fff" stroke="#e5e7eb" stroke-width="2"/></g></g></g></g></g></svg>