<svg viewBox="0 0 215 75" xmlns="http://www.w3.org/2000/svg" fill-rule="evenodd" clip-rule="evenodd" stroke-linejoin="round" stroke-miterlimit="2">
  <g>
    <g>
      <path d="M195 17.5a4 4 0 00-4-4H24a4 4 0 00-4 4v40a4 4 0 004 4h167a4 4 0 004-4v-40z" fill="#e5e7eb"/>
      <path d="M53.29 44.5h-2.41l-2.62-4.21-.9.64v3.57h-2.1v-10h2.1v4.58l.85-1.17 2.7-3.4h2.35l-3.49 4.42 3.52 5.57zM54.65 44.5v-10h2.11v8.25h4.06v1.75h-6.17zM62.65 34.56h2.1v9.94h-2.1zM71.63 36.13c-.8 0-1.42.3-1.85.9-.45.6-.66 1.44-.66 2.5 0 2.23.84 3.35 2.5 3.35.7 0 1.56-.19 2.56-.54v1.78a6.9 6.9 0 01-2.75.52c-1.45 0-2.56-.45-3.33-1.33-.77-.88-1.16-2.14-1.16-3.8 0-1.03.2-1.94.57-2.72.38-.79.91-1.39 1.63-1.8a4.81 4.81 0 012.49-.63c.96 0 1.94.24 2.92.7l-.68 1.73c-.37-.17-.74-.34-1.12-.47-.38-.12-.76-.2-1.12-.2zM84.44 44.5h-2.4l-2.62-4.21-.9.64v3.57H76.4v-10h2.1v4.58l.85-1.17 2.7-3.4h2.35l-3.48 4.42 3.51 5.57zM93.76 44.5l-2.4-7.84h-.06c.08 1.6.12 2.66.12 3.2v4.64h-1.89v-10h2.89l2.36 7.65h.05l2.5-7.65h2.89v10h-1.98v-4.73c0-.23 0-.48.02-.77 0-.3.02-1.07.08-2.33h-.06l-2.57 7.83h-1.95zM102.83 34.56h2.1v9.94h-2.1zM111.8 36.13c-.79 0-1.4.3-1.84.9-.45.6-.66 1.44-.66 2.5 0 2.23.84 3.35 2.5 3.35.7 0 1.56-.19 2.56-.54v1.78a6.9 6.9 0 01-2.75.52c-1.45 0-2.56-.45-3.33-1.33-.77-.88-1.16-2.14-1.16-3.8 0-1.03.2-1.94.57-2.72.38-.79.91-1.39 1.63-1.8a4.81 4.81 0 012.49-.63c.96 0 1.94.24 2.92.7l-.68 1.73c-.37-.17-.74-.34-1.12-.47-.38-.12-.76-.2-1.12-.2zM124.77 44.5h-2.1v-4.31h-3.97v4.31h-2.12v-10h2.12v3.92h3.96V34.5h2.11v10zM128.98 41.18h-1.67l-.35-6.68h2.37l-.35 6.68zm-2.05 2.34c0-.38.1-.67.31-.87.21-.2.5-.3.9-.3.37 0 .67.1.88.32.2.2.3.47.3.85 0 .36-.1.64-.3.85-.21.21-.5.31-.88.31s-.68-.1-.89-.3c-.2-.2-.32-.48-.32-.86z" fill-rule="nonzero"/>
      <g>
        <path d="M162.96 33.6c-.3.28-.29.76.02 1.07l3.76 3.58h-8.98a.75.75 0 00-.75.75v1c0 .41.33.75.75.75h8.98l-3.76 3.58c-.3.3-.3.79-.02 1.07l.69.7c.3.3.77.3 1.07 0l6.06-6.07c.3-.29.3-.77 0-1.06l-6.06-6.08a.77.77 0 00-1.07 0l-.69.7z" fill-rule="nonzero"/>
      </g>
    </g>
  </g>
</svg>