<svg viewBox="0 0 305 117" xmlns="http://www.w3.org/2000/svg" fill-rule="evenodd" clip-rule="evenodd" stroke-linejoin="round" stroke-miterlimit="2">
  <g>
    <g>
      <path d="M63.72 45.35v.88c-.92.13-1.67.35-2.1.7-.5.4-.84.97-.98 1.76-.13.8-.22 1.9-.22 3.35V63.7c0 1.89-.13 3.65-.4 5.23a12.13 12.13 0 01-1.4 4.1 7.93 7.93 0 01-3.34 2.99c-1.46.74-3.35 1.1-5.6 1.1-1.36 0-2.72-.18-4.13-.49a9.58 9.58 0 01-3.78-1.71 8.3 8.3 0 01-2.16-2.69 11.7 11.7 0 01-1.01-3.56 38.1 38.1 0 01-.26-4.84V50c0-1.1-.1-1.89-.22-2.42a1.76 1.76 0 00-.97-1.05 7.7 7.7 0 00-2.11-.31v-.88c.74.04 1.71.04 2.94.09 1.28.04 2.56.04 3.92.04 1.36 0 2.64 0 3.92-.04 1.23-.05 2.24-.05 3.08-.1v.89a8.93 8.93 0 00-2.3.3c-.48.23-.83.58-1 1.06a8.14 8.14 0 00-.27 2.42V66.6c0 1.98.18 3.6.53 4.93a5.12 5.12 0 001.9 3.03 6 6 0 003.64 1.02c2.07 0 3.66-.49 4.8-1.46a7.79 7.79 0 002.5-4.04c.5-1.72.71-3.66.71-5.9V52.56c0-1.62-.09-2.86-.3-3.7a3.08 3.08 0 00-1.2-1.88 6.57 6.57 0 00-2.77-.75v-.88c.58.04 1.28.04 2.2.09.93.04 1.76.04 2.56.04.7 0 1.4 0 2.06-.04.7-.05 1.28-.05 1.76-.1zm-8.53-9.2c.88 0 1.67.35 2.33 1.01.66.66.97 1.46.97 2.34 0 .92-.31 1.67-.97 2.33a3.2 3.2 0 01-2.33.97c-.93 0-1.67-.31-2.33-.97a3.1 3.1 0 01-1.02-2.38c0-.88.31-1.63 1.02-2.33.66-.66 1.4-.97 2.33-.97zm-10.56 0c.88 0 1.67.35 2.33 1.01a3.24 3.24 0 011.01 2.34c0 .92-.35 1.67-1.01 2.33a3.2 3.2 0 01-2.33.97c-.93 0-1.67-.31-2.33-.97a3.22 3.22 0 01-.97-2.38c0-.88.3-1.63.97-2.33.66-.66 1.4-.97 2.33-.97zM80.4 53.14c2.29 0 4.18.92 5.72 2.77 1.5 1.89 2.24 4.75 2.24 8.62 0 3.04-.44 5.5-1.36 7.35a8.89 8.89 0 01-3.7 4 10.33 10.33 0 01-8.36.62 6.47 6.47 0 01-2.64-2.02l.62-.22a4.85 4.85 0 001.85 1.45c.75.3 1.45.48 2.15.48 1.63 0 2.82-.92 3.61-2.73.8-1.8 1.19-4.57 1.19-8.31 0-2.51-.13-4.53-.44-6.03-.3-1.45-.8-2.5-1.36-3.17a2.77 2.77 0 00-2.12-.92A4.1 4.1 0 0075 56.26a5.5 5.5 0 00-1.45 3.52l-.22-1.54A6.75 6.75 0 0176 54.46a7.53 7.53 0 014.4-1.32zm-6.73-11.05v33.53a6.4 6.4 0 00-2.25 0c-.74.13-1.45.3-2.1.57-.67.31-1.2.62-1.64 1.01l-.66-.4c.14-.39.22-.83.27-1.22.04-.4.04-.84.04-1.24V47.37c0-1.32-.17-2.29-.57-2.95-.4-.61-1.14-.92-2.24-.92v-.92a29 29 0 006.16-.05c1.1-.09 2.06-.22 2.99-.44zM102.44 53.14c2.6 0 4.62.74 6.08 2.28 1.45 1.54 2.2 4 2.2 7.48H96.24l-.09-.83h9.02c.05-1.45-.04-2.77-.26-4a8.98 8.98 0 00-.97-2.91c-.44-.75-1.01-1.1-1.76-1.1-1.01 0-1.9.66-2.6 1.94-.74 1.27-1.18 3.43-1.32 6.42l.14.26c-.05.36-.05.7-.05 1.1-.04.4-.04.8-.04 1.2 0 2.02.3 3.64.83 4.92a6.84 6.84 0 002.2 2.77c.88.53 1.76.84 2.69.84.88 0 1.85-.22 2.9-.66 1.01-.44 1.98-1.41 2.9-2.86l.8.26c-.35 1.1-.93 2.2-1.67 3.26a8.7 8.7 0 01-2.9 2.6 8.57 8.57 0 01-4.23 1 10.9 10.9 0 01-5.28-1.27 8.5 8.5 0 01-3.57-3.87c-.88-1.72-1.32-3.92-1.32-6.6 0-2.73.49-5.02 1.41-6.82a9 9 0 013.83-4.05 11.02 11.02 0 015.54-1.36zM128.14 53.14c.92 0 1.72.17 2.29.57.57.44 1.01.92 1.32 1.54.26.61.4 1.27.4 1.93 0 1.1-.31 1.98-.93 2.64-.66.7-1.5 1.06-2.5 1.06-1.02 0-1.81-.26-2.38-.8a2.56 2.56 0 01-.88-2.02c0-.83.17-1.5.57-2.06.35-.53.79-.97 1.36-1.37-.4-.13-.83-.09-1.23.05-.75.13-1.45.48-2.02 1.1a6.03 6.03 0 00-1.46 2.1 6.17 6.17 0 00-.52 2.43v11.66c0 1.4.35 2.37 1.05 2.86.66.48 1.72.75 3.08.75v.92c-.66-.04-1.67-.09-2.95-.13-1.27-.05-2.64-.05-4.04-.05-1.2 0-2.38 0-3.57.05-1.19.04-2.11.09-2.73.13v-.92c1.02 0 1.76-.22 2.2-.66.4-.44.62-1.28.62-2.51V58.55c0-1.32-.18-2.29-.57-2.9-.4-.67-1.15-.97-2.25-.97v-.93a29.16 29.16 0 006.2-.04c1.06-.09 2.03-.22 2.96-.44v4.09c.35-.8.83-1.5 1.4-2.16a6.87 6.87 0 012.03-1.54 6.02 6.02 0 012.55-.52zM142.26 53.14c1.24 0 2.34.13 3.26.44.92.3 1.58.61 1.98.92 1.01.66 1.63.22 1.85-1.32h.92c-.04.84-.09 1.8-.13 3-.04 1.18-.04 2.76-.04 4.74h-.93c-.13-1.1-.44-2.15-.83-3.2a6.47 6.47 0 00-1.76-2.6 4.6 4.6 0 00-3.04-1.02c-.84 0-1.58.27-2.16.7a2.63 2.63 0 00-.88 2.12c0 .88.27 1.67.8 2.29.52.66 1.23 1.32 2.06 1.93.84.58 1.68 1.24 2.6 1.9a28.35 28.35 0 013.74 3.25 6.42 6.42 0 011.5 4.31c0 1.32-.4 2.47-1.15 3.44a7.1 7.1 0 01-2.99 2.28c-1.28.53-2.64.8-4.18.8a9.2 9.2 0 01-4.14-.93c-.4-.17-.74-.35-1.1-.53l-.92-.4c-.3-.08-.53 0-.75.32-.22.3-.4.7-.53 1.23h-.92c.04-.93.09-2.07.13-3.43.05-1.37.05-3.13.05-5.37h.92c.18 1.58.48 2.99.97 4.18a6.59 6.59 0 001.93 2.86c.8.7 1.8 1.05 3.04 1.05a3.8 3.8 0 002.11-.7c.66-.53.97-1.32.97-2.42 0-1.28-.4-2.38-1.23-3.21A38.69 38.69 0 00140.2 67c-.93-.75-1.8-1.54-2.64-2.3a9.21 9.21 0 01-2.07-2.46c-.53-.88-.8-1.89-.8-3.03 0-1.32.36-2.42 1.06-3.35a6.46 6.46 0 012.82-2.06 10.2 10.2 0 013.7-.66zM165.32 53.14c1.14 0 2.2.13 3.17.35.92.26 1.71.57 2.33.97a6.14 6.14 0 011.8 1.71c.4.7.62 1.5.62 2.42 0 1.01-.3 1.85-.97 2.55-.66.62-1.5.97-2.5.97-1.02 0-1.85-.3-2.47-.88a3.08 3.08 0 01-.92-2.37c0-.93.3-1.72.88-2.38a4.43 4.43 0 012.02-1.23 2.5 2.5 0 00-1.06-.75 3.77 3.77 0 00-1.58-.3c-.92 0-1.72.26-2.38.78a6.38 6.38 0 00-1.76 2.2c-.48.93-.83 2.03-1.05 3.3a20.3 20.3 0 00-.4 4.14c0 2.24.31 4.05.84 5.32a5.93 5.93 0 002.24 2.73c.88.53 1.8.8 2.77.8.84 0 1.76-.23 2.82-.71 1.06-.44 2.02-1.4 2.95-2.86l.75.26a11.1 11.1 0 01-1.59 3.26 8.24 8.24 0 01-7.17 3.7c-1.9 0-3.6-.44-5.15-1.28a9.14 9.14 0 01-3.7-3.83c-.92-1.76-1.4-4-1.4-6.77 0-2.64.48-4.89 1.45-6.65a9.44 9.44 0 013.87-4.09 11.19 11.19 0 015.59-1.36zM184.64 42.1v15.13a6.21 6.21 0 012.99-3.17 9.26 9.26 0 014.18-.92 8.2 8.2 0 013.03.44c.75.3 1.37.74 1.8 1.27.5.57.89 1.28 1.1 2.16.23.88.32 2.07.32 3.56v11.84c0 1.23.22 2.07.66 2.5.4.45 1.14.67 2.15.67v.92c-.57-.04-1.4-.09-2.5-.13-1.15-.05-2.25-.05-3.3-.05-1.15 0-2.25 0-3.3.05-1.1.04-1.9.09-2.43.13v-.92c.88 0 1.5-.22 1.85-.66.35-.44.53-1.28.53-2.51V58.72c0-.74-.09-1.36-.22-1.93-.13-.53-.4-.93-.8-1.23-.39-.36-.96-.49-1.7-.49-1.2 0-2.25.49-3.09 1.41a5.27 5.27 0 00-1.27 3.65v12.28c0 1.23.17 2.07.52 2.5.36.45.97.67 1.85.67v.92a64.9 64.9 0 00-2.33-.13c-1.01-.05-2.07-.05-3.12-.05-1.15 0-2.3 0-3.44.05-1.18.04-2.06.09-2.64.13v-.92c1.02 0 1.76-.22 2.2-.66.4-.44.62-1.28.62-2.51V47.37c0-1.32-.18-2.29-.57-2.95-.4-.61-1.15-.92-2.25-.92v-.92a29 29 0 006.16-.05c1.1-.09 2.07-.22 3-.44zM217.6 53.14c.92 0 1.7.17 2.28.57.57.44 1.01.92 1.32 1.54.26.61.4 1.27.4 1.93 0 1.1-.31 1.98-.93 2.64-.66.7-1.5 1.06-2.5 1.06-1.02 0-1.81-.26-2.38-.8a2.56 2.56 0 01-.88-2.02c0-.83.17-1.5.57-2.06.35-.53.8-.97 1.36-1.37-.4-.13-.83-.09-1.23.05-.75.13-1.45.48-2.02 1.1a6.03 6.03 0 00-1.45 2.1 6.17 6.17 0 00-.53 2.43v11.66c0 1.4.35 2.37 1.05 2.86.66.48 1.72.75 3.08.75v.92c-.66-.04-1.67-.09-2.94-.13-1.28-.05-2.64-.05-4.05-.05-1.19 0-2.38 0-3.57.05-1.18.04-2.1.09-2.72.13v-.92c1 0 1.76-.22 2.2-.66.4-.44.61-1.28.61-2.51V58.55c0-1.32-.17-2.29-.57-2.9-.4-.67-1.14-.97-2.24-.97v-.93a29.16 29.16 0 006.2-.04c1.06-.09 2.02-.22 2.95-.44v4.09c.35-.8.83-1.5 1.4-2.16a6.87 6.87 0 012.03-1.54 6.02 6.02 0 012.55-.52zM228.72 42.4c1.24 0 2.2.3 2.95.92.7.58 1.06 1.41 1.06 2.47 0 1.05-.35 1.89-1.06 2.46-.75.62-1.71.93-2.95.93-1.23 0-2.2-.31-2.94-.93a3.01 3.01 0 01-1.06-2.46c0-1.06.35-1.9 1.06-2.47a4.46 4.46 0 012.94-.92zm3.44 10.87V72.4c0 1.23.22 2.07.66 2.5.4.45 1.14.67 2.15.67v.92c-.53-.04-1.36-.09-2.46-.13-1.1-.05-2.25-.05-3.39-.05-1.14 0-2.29 0-3.48.05-1.18.04-2.06.09-2.64.13v-.92c1.02 0 1.76-.22 2.2-.66.4-.44.62-1.28.62-2.51V58.55c0-1.32-.18-2.29-.57-2.9-.4-.67-1.15-.97-2.25-.97v-.93a29.16 29.16 0 006.2-.04c1.06-.09 2.03-.22 2.96-.44zM248.48 42.1a7.36 7.36 0 014.7 1.45 4.1 4.1 0 011.5 3.3c0 .79-.26 1.49-.88 2.1-.52.62-1.32.93-2.24.93-.97 0-1.76-.26-2.38-.84a2.84 2.84 0 01-.96-2.28c0-.75.22-1.46.66-2.03a3.53 3.53 0 011.93-1.23c-.09-.18-.26-.3-.53-.44a2.4 2.4 0 00-1.05-.18c-.57 0-1.06.1-1.45.31-.4.22-.7.49-.93.84a4.5 4.5 0 00-.66 1.89c-.13.84-.17 2.16-.17 3.87v4h4.7v.89h-4.7v17.29c0 1.45.35 2.37 1.1 2.86.74.48 1.76.75 3.03.75v.92c-.75-.04-1.85-.09-3.21-.13-1.36-.05-2.82-.05-4.36-.05a79.27 79.27 0 00-5.72.18v-.92c1.02 0 1.76-.22 2.2-.66.4-.44.62-1.28.62-2.51V54.68h-3v-.88h3c0-2.6.22-4.62.62-5.99a8.14 8.14 0 012.15-3.52 8.16 8.16 0 012.6-1.58 9.7 9.7 0 013.43-.62z" fill-rule="nonzero"/>
      <path d="M261.28 46.54v7.21h5.2v.88h-5.2v17.78c0 .88.18 1.5.49 1.85.3.4.79.57 1.45.57.53 0 1.06-.22 1.58-.57a5.15 5.15 0 001.41-2.07l.75.4a8.05 8.05 0 01-2.11 3.25 5.82 5.82 0 01-3.92 1.28c-.97 0-1.8-.14-2.55-.4a4.32 4.32 0 01-1.85-1.1 4.78 4.78 0 01-1.27-2.42c-.22-.92-.31-2.16-.31-3.7V54.63h-3.7v-.88h3.7v-5.8c1.23 0 2.37-.14 3.43-.36a11.5 11.5 0 002.9-1.05z" fill-rule="nonzero"/>
      <g opacity=".25">
        <path fill="#5200ff" d="M126.5 88h48v4h-48z"/>
      </g>
    </g>
  </g>
</svg>