<svg viewBox="0 0 449 313" xmlns="http://www.w3.org/2000/svg" fill-rule="evenodd" clip-rule="evenodd" stroke-linejoin="round" stroke-miterlimit="2"><g><g><g><g><path d="M222.62 60.56a2.1 2.1 0 003.43 0c12.45-18.12 14.79-19.97 14.79-26.62a16.5 16.5 0 00-33 0c0 6.65 2.33 8.5 14.78 26.62zm1.72-19.75a6.87 6.87 0 11.01-13.75 6.87 6.87 0 01-.01 13.75z" fill="#cfbcfd" fill-rule="nonzero"/><path d="M72.87 90.95c3.14 0 5.5.72 7.03 2.14 1.54 1.44 2.3 3.5 2.3 6.17 0 1.75-.38 3.26-1.12 4.56a7.58 7.58 0 01-3.27 3.04 11.45 11.45 0 01-5.16 1.08l-1.63-.04c-.72-.03-1.34-.03-1.87-.03h-2.07l-1.63.07v-.48c.5-.02.89-.1 1.15-.19.27-.1.44-.29.5-.57.1-.3.15-.72.15-1.3V93.5c0-.6-.05-1.04-.14-1.32a.86.86 0 00-.5-.58c-.3-.1-.65-.14-1.16-.17v-.48c.41.03.94.03 1.63.05.68.02 1.35.05 2.02.02l1.97-.04c.72-.03 1.32-.03 1.8-.03zm-.03.43c-.74 0-1.22.15-1.44.41-.21.27-.33.82-.33 1.66v12c0 .84.12 1.39.33 1.65.24.27.72.41 1.47.41 1.34 0 2.4-.31 3.17-.96a5.07 5.07 0 001.68-2.76c.33-1.22.5-2.69.5-4.44 0-2.69-.4-4.68-1.25-6-.84-1.32-2.2-1.97-4.13-1.97zM92.1 95.2c.5 0 .93.1 1.24.31.31.24.55.5.72.84.14.34.22.7.22 1.06 0 .6-.17 1.08-.5 1.44a1.8 1.8 0 01-1.38.57c-.55 0-.98-.14-1.3-.43a1.4 1.4 0 01-.47-1.1c0-.46.1-.82.31-1.13.2-.29.43-.53.74-.74a1.07 1.07 0 00-.67.02c-.4.07-.79.26-1.1.6-.34.31-.6.7-.8 1.15-.19.46-.28.89-.28 1.32v6.36c0 .77.19 1.3.57 1.56.36.27.94.41 1.68.41v.5l-1.6-.07c-.7-.02-1.44-.02-2.21-.02-.65 0-1.3 0-1.95.02l-1.48.07v-.5c.55 0 .96-.12 1.2-.36.21-.24.33-.7.33-1.37v-7.56c0-.72-.1-1.25-.31-1.58-.22-.36-.62-.53-1.22-.53v-.5a15.82 15.82 0 003.38-.03c.58-.05 1.1-.12 1.6-.24v2.23c.2-.43.46-.81.78-1.17.3-.36.7-.63 1.1-.84.4-.2.89-.29 1.4-.29zM100.9 95.2c1.42 0 2.52.4 3.31 1.25.8.84 1.2 2.18 1.2 4.08h-7.9l-.04-.46h4.92c.02-.79-.03-1.51-.15-2.18a4.9 4.9 0 00-.52-1.59c-.24-.4-.56-.6-.96-.6-.56 0-1.04.36-1.42 1.06-.4.7-.65 1.87-.72 3.5l.07.15c-.02.19-.02.38-.02.6-.03.21-.03.43-.03.65 0 1.1.17 1.99.46 2.68.34.7.72 1.18 1.2 1.52.48.28.96.45 1.46.45.48 0 1.01-.12 1.59-.36a3.89 3.89 0 001.58-1.56l.43.15c-.19.6-.5 1.2-.9 1.77a4.67 4.67 0 01-3.89 1.97 5.94 5.94 0 01-2.89-.7 4.63 4.63 0 01-1.94-2.1 7.87 7.87 0 01-.72-3.6c0-1.5.26-2.74.77-3.73a4.9 4.9 0 012.09-2.2c.88-.51 1.9-.75 3.02-.75zM109.92 89.34c.68 0 1.2.17 1.61.5.39.32.58.78.58 1.35 0 .58-.2 1.03-.58 1.35-.4.33-.93.5-1.6.5-.68 0-1.2-.17-1.61-.5a1.64 1.64 0 01-.58-1.35c0-.57.2-1.03.58-1.34.4-.34.93-.5 1.6-.5zm1.88 5.93v10.44c0 .67.12 1.13.36 1.37.21.24.62.36 1.17.36v.5a35.1 35.1 0 00-1.34-.07c-.6-.02-1.23-.02-1.85-.02-.62 0-1.25 0-1.9.02l-1.44.07v-.5c.56 0 .96-.12 1.2-.36.22-.24.34-.7.34-1.37v-7.56c0-.72-.1-1.25-.31-1.58-.22-.36-.63-.53-1.23-.53v-.5a15.82 15.82 0 003.39-.03c.57-.05 1.1-.12 1.6-.24zM120.56 95.2c1.41 0 2.52.4 3.3 1.25.8.84 1.2 2.18 1.2 4.08h-7.89l-.05-.46h4.92c.03-.79-.02-1.51-.14-2.18a4.9 4.9 0 00-.53-1.59c-.24-.4-.55-.6-.96-.6-.55 0-1.03.36-1.41 1.06-.41.7-.65 1.87-.72 3.5l.07.15c-.03.19-.03.38-.03.6-.02.21-.02.43-.02.65 0 1.1.17 1.99.46 2.68.33.7.72 1.18 1.2 1.52.48.28.96.45 1.46.45.48 0 1-.12 1.58-.36a3.89 3.89 0 001.59-1.56l.43.15c-.2.6-.5 1.2-.91 1.77a4.67 4.67 0 01-3.89 1.97 5.94 5.94 0 01-2.88-.7 4.63 4.63 0 01-1.94-2.1 7.87 7.87 0 01-.72-3.6c0-1.5.26-2.74.76-3.73a4.9 4.9 0 012.1-2.2c.88-.51 1.89-.75 3.02-.75zM129.58 89.34c.67 0 1.2.17 1.6.5.4.32.58.78.58 1.35 0 .58-.19 1.03-.57 1.35-.41.33-.94.5-1.61.5-.67 0-1.2-.17-1.6-.5a1.64 1.64 0 01-.58-1.35c0-.57.19-1.03.57-1.34.41-.34.94-.5 1.61-.5zm1.87 5.93v10.44c0 .67.12 1.13.36 1.37.22.24.63.36 1.18.36v.5a35.1 35.1 0 00-1.35-.07c-.6-.02-1.22-.02-1.84-.02-.63 0-1.25 0-1.9.02l-1.44.07v-.5c.55 0 .96-.12 1.2-.36.22-.24.34-.7.34-1.37v-7.56c0-.72-.1-1.25-.32-1.58-.21-.36-.62-.53-1.22-.53v-.5a15.82 15.82 0 003.38-.03c.58-.05 1.1-.12 1.61-.24zM142.95 95.2c.67 0 1.22.07 1.65.24a2.52 2.52 0 011.56 1.87c.12.48.17 1.13.17 1.95v6.45c0 .67.12 1.13.36 1.37.22.24.63.36 1.18.36v.5a40.3 40.3 0 00-1.37-.07c-.6-.02-1.2-.02-1.8-.02-.6 0-1.2 0-1.78.02l-1.34.07v-.5c.48 0 .82-.12 1-.36.2-.24.3-.7.3-1.37v-7.46c0-.41-.05-.75-.12-1.06-.08-.29-.22-.5-.44-.67-.21-.2-.52-.26-.93-.26-.67 0-1.23.26-1.68.79-.46.53-.7 1.2-.7 1.99v6.67c0 .67.1 1.13.31 1.37.2.24.53.36.99.36v.5l-1.25-.07c-.55-.02-1.13-.02-1.73-.02a49.95 49.95 0 00-3.31.1v-.51c.55 0 .96-.12 1.2-.36.22-.24.34-.7.34-1.37v-7.56c0-.72-.1-1.25-.32-1.58-.21-.36-.62-.53-1.22-.53v-.5a15.82 15.82 0 003.38-.03c.58-.05 1.1-.12 1.61-.24v2.16c.41-.81.94-1.39 1.63-1.73.7-.33 1.47-.5 2.3-.5zM151.88 89.34c.67 0 1.2.17 1.6.5.39.32.58.78.58 1.35 0 .58-.2 1.03-.58 1.35-.4.33-.93.5-1.6.5-.68 0-1.2-.17-1.61-.5a1.64 1.64 0 01-.58-1.35c0-.57.2-1.03.58-1.34.4-.34.93-.5 1.6-.5zm1.87 5.93v10.44c0 .67.12 1.13.36 1.37.21.24.62.36 1.17.36v.5a35.1 35.1 0 00-1.34-.07c-.6-.02-1.22-.02-1.85-.02-.62 0-1.25 0-1.9.02l-1.43.07v-.5c.55 0 .96-.12 1.2-.36.21-.24.33-.7.33-1.37v-7.56c0-.72-.1-1.25-.31-1.58-.22-.36-.62-.53-1.22-.53v-.5a15.82 15.82 0 003.38-.03c.58-.05 1.1-.12 1.6-.24zM160.97 112.46c-.98 0-1.87-.1-2.64-.27-.79-.17-1.39-.4-1.82-.77a1.48 1.48 0 01-.67-1.24c0-.5.21-.94.67-1.35.45-.38 1.1-.7 1.99-.91l.22.38a2.1 2.1 0 00-.87 1.66c0 .67.31 1.18.94 1.54.6.36 1.44.55 2.5.55.71 0 1.36-.1 1.94-.29.55-.2 1-.48 1.34-.86.31-.39.48-.87.48-1.42 0-.48-.17-.89-.53-1.22-.36-.32-1.05-.48-2.1-.48h-1.5a6 6 0 01-1.7-.22 2.3 2.3 0 01-1.15-.7c-.27-.3-.41-.7-.41-1.17 0-.67.26-1.27.8-1.78a8.3 8.3 0 012.34-1.44l.24.2c-.3.19-.57.4-.84.6a1 1 0 00-.4.83c0 .5.3.77.96.77h2.61a6.9 6.9 0 013.31.72c.9.5 1.32 1.32 1.32 2.45 0 .8-.26 1.51-.74 2.18-.5.68-1.3 1.2-2.33 1.61-1.03.41-2.35.63-3.96.63zm.24-9.63c-1.37 0-2.5-.31-3.4-.93-.92-.6-1.37-1.56-1.37-2.88 0-1.32.45-2.3 1.36-2.9.92-.6 2.04-.92 3.41-.92s2.52.31 3.43.91c.9.6 1.35 1.59 1.35 2.9 0 1.33-.46 2.29-1.35 2.89-.9.62-2.06.93-3.43.93zm0-.43c.43 0 .77-.24 1.01-.74.24-.48.36-1.37.36-2.64 0-1.28-.12-2.16-.36-2.67-.24-.48-.58-.72-1-.72-.42 0-.75.24-1 .72-.26.5-.38 1.4-.38 2.67s.12 2.16.39 2.64c.24.5.57.74.98.74zm3.75-5.14l-.48-.16c.24-.63.62-1.16 1.15-1.56a2.9 2.9 0 011.75-.63c.5 0 .91.15 1.18.41.26.29.38.65.38 1.1 0 .48-.12.84-.38 1.06-.27.24-.56.36-.87.36-.26 0-.53-.1-.74-.29-.24-.19-.39-.48-.41-.86-.02-.41.1-.91.4-1.54l.18.15c-.6.21-1.06.48-1.37.76-.31.32-.58.7-.8 1.2zM174.46 89.15v16.56c0 .67.12 1.13.34 1.37.21.24.57.36 1.1.36v.5l-1.32-.07c-.6-.02-1.2-.02-1.8-.02-.62 0-1.25 0-1.87.02l-1.44.07v-.5c.55 0 .96-.12 1.2-.36.21-.24.33-.7.33-1.37V92.03c0-.72-.1-1.25-.3-1.6-.22-.34-.63-.51-1.23-.51v-.5a15.82 15.82 0 003.36-.03c.6-.05 1.13-.12 1.63-.24zm7.82 6.39v.48c-.5.1-.98.3-1.48.62-.5.31-1.01.72-1.52 1.22l-1.84 1.92.24-.45 4.1 6.86c.17.29.36.55.55.77.2.22.43.38.7.48v.5l-1.08-.07c-.48-.02-.96-.02-1.44-.02a43.82 43.82 0 00-3.1.1v-.51c.31 0 .53-.07.65-.24.12-.14.1-.34-.05-.58l-2.37-4.3a1.7 1.7 0 00-.56-.6c-.19-.06-.43-.11-.74-.14v-.45c.34-.03.62-.1.89-.17.24-.07.45-.24.67-.46l1.82-1.77c.56-.5.82-.96.82-1.37 0-.4-.17-.72-.5-.96a2.63 2.63 0 00-1.37-.38v-.48l1.46.04c.53.03.99.03 1.35.03.3 0 .67 0 1-.03.39 0 .72 0 1.04-.02.3 0 .57 0 .76-.02zM189.27 95.2c1.41 0 2.52.4 3.31 1.25.8.84 1.2 2.18 1.2 4.08h-7.9l-.04-.46h4.92c.02-.79-.03-1.51-.15-2.18a4.9 4.9 0 00-.53-1.59c-.24-.4-.55-.6-.96-.6-.55 0-1.03.36-1.41 1.06-.41.7-.65 1.87-.72 3.5l.07.15c-.02.19-.02.38-.02.6-.03.21-.03.43-.03.65 0 1.1.17 1.99.46 2.68.33.7.72 1.18 1.2 1.52.48.28.96.45 1.46.45.48 0 1.01-.12 1.59-.36a3.89 3.89 0 001.58-1.56l.43.15c-.19.6-.5 1.2-.91 1.77-.4.58-.94 1.06-1.58 1.42-.65.36-1.42.55-2.3.55a5.94 5.94 0 01-2.89-.7 4.63 4.63 0 01-1.94-2.1 7.87 7.87 0 01-.72-3.6c0-1.5.26-2.74.77-3.73a4.9 4.9 0 012.08-2.2c.9-.51 1.9-.75 3.03-.75zM198.3 89.34c.66 0 1.2.17 1.6.5.38.32.58.78.58 1.35 0 .58-.2 1.03-.58 1.35-.4.33-.94.5-1.6.5-.68 0-1.2-.17-1.62-.5a1.64 1.64 0 01-.57-1.35c0-.57.19-1.03.57-1.34.41-.34.94-.5 1.61-.5zm1.86 5.93v10.44c0 .67.12 1.13.36 1.37.22.24.63.36 1.18.36v.5a35.1 35.1 0 00-1.34-.07c-.6-.02-1.23-.02-1.85-.02-.63 0-1.25 0-1.9.02l-1.44.07v-.5c.55 0 .96-.12 1.2-.36.22-.24.34-.7.34-1.37v-7.56c0-.72-.1-1.25-.31-1.58-.22-.36-.63-.53-1.23-.53v-.5a15.82 15.82 0 003.39-.03c.57-.05 1.1-.12 1.6-.24zM207.6 91.6v3.94h2.84v.48h-2.84v9.7c0 .47.1.8.27 1 .17.22.43.31.79.31.29 0 .58-.12.86-.31.3-.24.56-.6.77-1.13l.41.22a4.39 4.39 0 01-1.15 1.77c-.53.46-1.25.7-2.14.7-.53 0-.98-.07-1.39-.22-.4-.12-.74-.33-1-.6a2.6 2.6 0 01-.7-1.32 9.14 9.14 0 01-.17-2.01v-8.11h-2.02v-.48h2.02v-3.17c.67 0 1.3-.07 1.87-.2a6.27 6.27 0 001.58-.57zM215.93 95.2c.67 0 1.27.07 1.78.24.5.17.86.34 1.08.5.55.36.89.12 1-.72h.51l-.07 1.64c-.03.64-.03 1.5-.03 2.59h-.5a7.54 7.54 0 00-.46-1.75 3.53 3.53 0 00-.96-1.42 2.5 2.5 0 00-1.65-.55c-.46 0-.87.14-1.18.38-.31.27-.48.65-.48 1.15 0 .48.15.92.43 1.25.3.36.68.72 1.13 1.06.46.31.91.67 1.42 1.03.79.6 1.49 1.18 2.04 1.78.53.62.81 1.39.81 2.35 0 .72-.21 1.34-.62 1.87-.4.55-.96.96-1.63 1.25a5.85 5.85 0 01-5.14-.36l-.5-.22c-.17-.05-.29 0-.41.17s-.22.38-.29.67h-.5l.07-1.87c.02-.74.02-1.7.02-2.93h.5c.1.87.27 1.63.54 2.28.26.67.6 1.2 1.05 1.56.43.39.99.58 1.66.58.4 0 .79-.15 1.15-.39.36-.28.53-.72.53-1.32 0-.7-.22-1.3-.67-1.75a21.1 21.1 0 00-1.76-1.51c-.5-.4-.98-.84-1.44-1.25a5.02 5.02 0 01-1.12-1.34 3.16 3.16 0 01-.44-1.66c0-.72.2-1.32.58-1.82.38-.5.89-.87 1.54-1.13.62-.24 1.3-.36 2.01-.36zM227.14 89.15v16.56c0 .67.12 1.13.34 1.37.21.24.57.36 1.1.36v.5l-1.32-.07c-.6-.02-1.2-.02-1.8-.02-.62 0-1.25 0-1.87.02l-1.44.07v-.5c.55 0 .96-.12 1.2-.36.21-.24.33-.7.33-1.37V92.03c0-.72-.1-1.25-.3-1.6-.22-.34-.63-.51-1.23-.51v-.5a15.82 15.82 0 003.36-.03c.6-.05 1.13-.12 1.63-.24zm7.82 6.39v.48c-.5.1-.98.3-1.48.62-.5.31-1.01.72-1.52 1.22l-1.84 1.92.24-.45 4.1 6.86c.17.29.36.55.55.77.2.22.43.38.7.48v.5l-1.08-.07c-.48-.02-.96-.02-1.44-.02a43.82 43.82 0 00-3.1.1v-.51c.31 0 .53-.07.65-.24.12-.14.1-.34-.05-.58l-2.37-4.3a1.7 1.7 0 00-.56-.6c-.19-.06-.43-.11-.74-.14v-.45c.34-.03.62-.1.89-.17.24-.07.45-.24.67-.46l1.82-1.77c.56-.5.82-.96.82-1.37 0-.4-.17-.72-.5-.96a2.63 2.63 0 00-1.37-.38v-.48l1.46.04c.53.03.99.03 1.35.03.3 0 .67 0 1-.03.39 0 .72 0 1.04-.02.3 0 .57 0 .76-.02zM239.43 89.34c.67 0 1.2.17 1.6.5.39.32.58.78.58 1.35 0 .58-.19 1.03-.57 1.35-.41.33-.94.5-1.61.5-.67 0-1.2-.17-1.61-.5a1.64 1.64 0 01-.58-1.35c0-.57.2-1.03.58-1.34.4-.34.94-.5 1.6-.5zm1.87 5.93v10.44c0 .67.12 1.13.36 1.37.22.24.62.36 1.18.36v.5a35.1 35.1 0 00-1.35-.07c-.6-.02-1.22-.02-1.85-.02-.62 0-1.24 0-1.9.02l-1.43.07v-.5c.55 0 .96-.12 1.2-.36.21-.24.33-.7.33-1.37v-7.56c0-.72-.1-1.25-.3-1.58-.22-.36-.63-.53-1.23-.53v-.5a15.82 15.82 0 003.38-.03c.58-.05 1.1-.12 1.61-.24zM252.12 95.2c.5 0 .94.1 1.25.31.31.24.55.5.72.84.15.34.22.7.22 1.06 0 .6-.17 1.08-.5 1.44a1.8 1.8 0 01-1.37.57c-.56 0-.99-.14-1.3-.43a1.4 1.4 0 01-.48-1.1c0-.46.1-.82.31-1.13.2-.29.43-.53.75-.74a1.07 1.07 0 00-.68.02c-.4.07-.79.26-1.1.6-.34.31-.6.7-.8 1.15-.18.46-.28.89-.28 1.32v6.36c0 .77.2 1.3.58 1.56.36.27.93.41 1.68.41v.5l-1.61-.07c-.7-.02-1.44-.02-2.21-.02-.65 0-1.3 0-1.94.02l-1.5.07v-.5c.56 0 .97-.12 1.2-.36.22-.24.34-.7.34-1.37v-7.56c0-.72-.1-1.25-.3-1.58-.22-.36-.63-.53-1.23-.53v-.5a15.82 15.82 0 003.38-.03c.58-.05 1.1-.12 1.61-.24v2.23c.2-.43.46-.81.77-1.17.31-.36.7-.63 1.1-.84.41-.2.89-.29 1.4-.29zM260.98 95.2c.62 0 1.2.07 1.73.2.5.14.93.3 1.27.52.4.26.74.58.98.94.22.38.34.81.34 1.32 0 .55-.17 1-.53 1.39-.36.33-.81.53-1.37.53-.55 0-1-.17-1.34-.48-.34-.32-.5-.75-.5-1.3 0-.5.16-.94.48-1.3.3-.33.7-.55 1.1-.67a1.37 1.37 0 00-.58-.4 2.06 2.06 0 00-.86-.17c-.5 0-.94.14-1.3.43-.38.29-.7.7-.96 1.2a6.1 6.1 0 00-.57 1.8c-.15.7-.22 1.44-.22 2.25 0 1.23.17 2.21.46 2.9.33.7.72 1.2 1.22 1.5.48.28.99.43 1.51.43a3.79 3.79 0 003.14-1.94l.42.14c-.17.6-.46 1.17-.87 1.77a4.5 4.5 0 01-3.91 2.02 5.8 5.8 0 01-2.8-.7 4.99 4.99 0 01-2.02-2.08 7.9 7.9 0 01-.77-3.7c0-1.44.26-2.66.79-3.62.5-1.01 1.22-1.73 2.11-2.24a6.1 6.1 0 013.05-.74zM271.52 89.18v8.25c.4-.84.93-1.41 1.63-1.73.67-.33 1.44-.5 2.28-.5.7 0 1.25.07 1.65.24.41.17.75.4.99.7.26.3.48.7.6 1.17.12.48.17 1.13.17 1.95v6.45c0 .67.12 1.13.36 1.37.21.24.62.36 1.17.36v.5a40.3 40.3 0 00-1.37-.07c-.62-.02-1.22-.02-1.8-.02-.62 0-1.22 0-1.8.02l-1.32.07v-.5c.48 0 .82-.12 1.01-.36.2-.24.29-.7.29-1.37v-7.46c0-.41-.05-.75-.12-1.06-.07-.29-.22-.5-.43-.67-.22-.2-.53-.26-.94-.26-.65 0-1.22.26-1.68.76-.45.5-.7 1.18-.7 2v6.7c0 .66.1 1.12.3 1.36.19.24.52.36 1 .36v.5a35.4 35.4 0 00-1.27-.07c-.55-.02-1.13-.02-1.7-.02-.63 0-1.25 0-1.88.02l-1.44.07v-.5c.56 0 .96-.12 1.2-.36.22-.24.34-.7.34-1.37V92.06c0-.72-.1-1.25-.31-1.61-.22-.34-.63-.5-1.23-.5v-.51a15.82 15.82 0 003.36-.02c.6-.05 1.13-.12 1.64-.24zM287.43 95.2c1.41 0 2.52.4 3.31 1.25.8.84 1.2 2.18 1.2 4.08h-7.9l-.04-.46h4.92c.02-.79-.03-1.51-.15-2.18a4.9 4.9 0 00-.53-1.59c-.24-.4-.55-.6-.96-.6-.55 0-1.03.36-1.41 1.06-.41.7-.65 1.87-.72 3.5l.07.15c-.02.19-.02.38-.02.6-.03.21-.03.43-.03.65 0 1.1.17 1.99.46 2.68.33.7.72 1.18 1.2 1.52.48.28.96.45 1.46.45.48 0 1.01-.12 1.59-.36a3.89 3.89 0 001.58-1.56l.43.15c-.19.6-.5 1.2-.91 1.77-.4.58-.94 1.06-1.58 1.42-.65.36-1.42.55-2.3.55a5.94 5.94 0 01-2.89-.7 4.63 4.63 0 01-1.94-2.1 7.87 7.87 0 01-.72-3.6c0-1.5.26-2.74.77-3.73a4.9 4.9 0 012.08-2.2c.9-.51 1.9-.75 3.03-.75zM308.07 90.62a6.56 6.56 0 014.51 1.56c.2.14.36.21.48.21.31 0 .5-.48.6-1.44h.55l-.07 2.26c-.02.89-.02 2.09-.02 3.55h-.56c-.12-.96-.28-1.8-.5-2.52a4.01 4.01 0 00-1.3-1.82 4.4 4.4 0 00-1.41-.87 4.87 4.87 0 00-1.73-.31 3.7 3.7 0 00-2.26.67 5.2 5.2 0 00-1.53 1.87c-.41.8-.7 1.66-.89 2.64-.2.99-.29 2.02-.29 3.08 0 2.88.39 4.99 1.2 6.3.8 1.33 1.92 2 3.41 2 .38 0 .72-.05 1-.14.3-.1.54-.22.7-.34.22-.17.39-.34.46-.53.07-.17.12-.4.12-.72v-2.35c0-.74-.07-1.3-.2-1.66a1 1 0 00-.69-.72 5.7 5.7 0 00-1.53-.21v-.48c.33.02.74.02 1.22.02.46.03.96.03 1.46.03.5.02.99.02 1.42.02.67 0 1.3 0 1.85-.02l1.37-.05v.48c-.46.02-.75.17-.87.38-.14.22-.21.8-.21 1.68v4.75h-.48a4.4 4.4 0 00-.17-.88c-.12-.32-.29-.48-.53-.48-.12 0-.26.02-.43.07-.2.07-.48.21-.87.43-.6.34-1.22.62-1.87.84-.65.24-1.34.36-2.06.36-2.81 0-4.92-.77-6.39-2.28-1.46-1.51-2.18-3.65-2.18-6.36 0-1.82.38-3.4 1.13-4.75a7.9 7.9 0 013.07-3.15 8.84 8.84 0 014.49-1.12zM325.5 95.2c.66 0 1.22.07 1.65.24a2.52 2.52 0 011.56 1.87c.12.48.17 1.13.17 1.95v6.45c0 .67.12 1.13.36 1.37.21.24.62.36 1.17.36v.5a40.3 40.3 0 00-1.37-.07c-.6-.02-1.2-.02-1.8-.02-.6 0-1.2 0-1.77.02l-1.35.07v-.5c.48 0 .82-.12 1.01-.36.2-.24.29-.7.29-1.37v-7.46c0-.41-.05-.75-.12-1.06-.07-.29-.22-.5-.43-.67-.22-.2-.53-.26-.94-.26-.67 0-1.22.26-1.68.79-.45.53-.7 1.2-.7 1.99v6.67c0 .67.1 1.13.32 1.37.19.24.53.36.98.36v.5l-1.25-.07c-.55-.02-1.12-.02-1.72-.02a49.95 49.95 0 00-3.32.1v-.51c.56 0 .96-.12 1.2-.36.22-.24.34-.7.34-1.37v-7.56c0-.72-.1-1.25-.31-1.58-.22-.36-.63-.53-1.23-.53v-.5a15.82 15.82 0 003.39-.03c.57-.05 1.1-.12 1.6-.24v2.16c.41-.81.94-1.39 1.64-1.73.7-.33 1.46-.5 2.3-.5zM334.42 89.34c.67 0 1.2.17 1.6.5.4.32.58.78.58 1.35 0 .58-.19 1.03-.57 1.35-.41.33-.94.5-1.61.5-.67 0-1.2-.17-1.6-.5a1.64 1.64 0 01-.58-1.35c0-.57.19-1.03.57-1.34.41-.34.94-.5 1.61-.5zm1.87 5.93v10.44c0 .67.12 1.13.36 1.37.22.24.63.36 1.18.36v.5a35.1 35.1 0 00-1.35-.07c-.6-.02-1.22-.02-1.84-.02-.63 0-1.25 0-1.9.02l-1.44.07v-.5c.55 0 .96-.12 1.2-.36.22-.24.34-.7.34-1.37v-7.56c0-.72-.1-1.25-.32-1.58-.21-.36-.62-.53-1.22-.53v-.5a15.82 15.82 0 003.38-.03c.58-.05 1.1-.12 1.61-.24zM345.05 95.2c1.42 0 2.52.4 3.31 1.25.8.84 1.2 2.18 1.2 4.08h-7.9l-.04-.46h4.92c.02-.79-.02-1.51-.14-2.18a4.9 4.9 0 00-.53-1.59c-.24-.4-.55-.6-.96-.6-.55 0-1.03.36-1.42 1.06-.4.7-.65 1.87-.72 3.5l.07.15c-.02.19-.02.38-.02.6-.02.21-.02.43-.02.65 0 1.1.16 1.99.45 2.68.34.7.72 1.18 1.2 1.52.48.28.96.45 1.47.45.48 0 1-.12 1.58-.36a3.89 3.89 0 001.58-1.56l.44.15c-.2.6-.5 1.2-.92 1.77-.4.58-.93 1.06-1.58 1.42-.65.36-1.42.55-2.3.55a5.94 5.94 0 01-2.88-.7 4.63 4.63 0 01-1.95-2.1 7.87 7.87 0 01-.72-3.6c0-1.5.27-2.74.77-3.73a4.9 4.9 0 012.09-2.2c.89-.51 1.9-.75 3.02-.75zM359.19 95.2c1.25 0 2.28.5 3.12 1.51.81 1.03 1.22 2.6 1.22 4.7 0 1.66-.24 3-.74 4.01-.5 1.01-1.18 1.73-2.02 2.19a5.63 5.63 0 01-4.56.33 3.53 3.53 0 01-1.44-1.1l.34-.12c.29.36.62.62 1 .8.41.16.8.26 1.18.26.89 0 1.54-.5 1.97-1.5.43-.98.65-2.49.65-4.53 0-1.37-.07-2.47-.24-3.29a3.88 3.88 0 00-.75-1.72c-.3-.34-.7-.5-1.15-.5-.55 0-1.08.23-1.53.66a3 3 0 00-.8 1.92l-.12-.84c.3-.9.77-1.6 1.47-2.06a4.1 4.1 0 012.4-.72zm-3.67-6.02v18.28a3.5 3.5 0 00-1.23 0c-.4.08-.79.17-1.15.32a3.5 3.5 0 00-.89.55l-.36-.22c.07-.21.12-.45.15-.67.02-.22.02-.46.02-.67V92.06c0-.72-.1-1.25-.31-1.61-.22-.34-.63-.5-1.23-.5v-.51a15.82 15.82 0 003.36-.02c.6-.05 1.13-.12 1.64-.24zM371.21 95.2c1.42 0 2.52.4 3.31 1.25.8.84 1.2 2.18 1.2 4.08h-7.9l-.04-.46h4.92c.02-.79-.02-1.51-.14-2.18a4.9 4.9 0 00-.53-1.59c-.24-.4-.55-.6-.96-.6-.55 0-1.03.36-1.42 1.06-.4.7-.65 1.87-.72 3.5l.07.15c-.02.19-.02.38-.02.6-.02.21-.02.43-.02.65 0 1.1.16 1.99.45 2.68.34.7.72 1.18 1.2 1.52.48.28.96.45 1.47.45.48 0 1-.12 1.58-.36a3.89 3.89 0 001.58-1.56l.44.15c-.2.6-.5 1.2-.92 1.77-.4.58-.93 1.06-1.58 1.42-.65.36-1.42.55-2.3.55a5.94 5.94 0 01-2.88-.7 4.63 4.63 0 01-1.95-2.1 7.87 7.87 0 01-.72-3.6c0-1.5.27-2.74.77-3.73a4.9 4.9 0 012.09-2.2c.89-.51 1.9-.75 3.02-.75zM382.01 89.15v16.56c0 .67.12 1.13.36 1.37.22.24.63.36 1.18.36v.5a40.3 40.3 0 00-1.37-.07c-.6-.02-1.22-.02-1.85-.02-.62 0-1.25 0-1.87.02l-1.44.07v-.5c.55 0 .96-.12 1.2-.36.22-.24.34-.7.34-1.37V92.03c0-.72-.1-1.25-.34-1.6-.2-.34-.6-.51-1.2-.51v-.5a15.82 15.82 0 003.36-.03c.6-.05 1.13-.12 1.63-.24z" fill="#1a202c" fill-rule="nonzero"/><g><path d="M147.5 130.78c0 1.23-.43 2.2-1.26 2.86-.86.67-2.06 1-3.63 1h-1.44v4.8h-1.42v-12.22h3.16c3.07 0 4.6 1.18 4.6 3.56zm-6.33 2.64h1.28c1.25 0 2.18-.2 2.74-.62.55-.4.84-1.06.84-1.95 0-.8-.27-1.4-.8-1.8-.52-.4-1.36-.6-2.47-.6h-1.6v4.97zM149.92 126.43h1.37v13.01h-1.37zM155.57 139.44h-1.4v-9.16h1.4v9.16zm-1.51-11.64c0-.32.08-.55.24-.7a.77.77 0 01.58-.22c.22 0 .41.08.58.22.16.15.24.4.24.7 0 .31-.08.55-.24.7a.83.83 0 01-.58.23.77.77 0 01-.58-.23c-.16-.15-.24-.39-.24-.7zM162.38 139.61a4.14 4.14 0 01-3.2-1.25 4.76 4.76 0 01-1.18-3.42 5.3 5.3 0 011.1-3.53c.71-.87 1.69-1.3 2.92-1.3 1.15 0 2.05.38 2.72 1.13a4.37 4.37 0 011.01 3v.87h-6.32c.04 1.08.31 1.9.82 2.45.52.57 1.24.84 2.18.84 1 0 1.97-.2 2.93-.62v1.24c-.5.2-.96.35-1.39.46-.45.08-.98.13-1.6.13zm-.38-8.33c-.73 0-1.32.24-1.76.72a3.43 3.43 0 00-.77 1.98h4.8c0-.87-.21-1.54-.6-2a2.1 2.1 0 00-1.67-.7zM173.8 139.44h-6.64v-.94l5-7.14h-4.7v-1.08h6.22v1.08l-4.93 7h5.05v1.08zM182.22 139.44v-5.92c0-.75-.17-1.3-.51-1.68-.33-.36-.88-.55-1.6-.55-.95 0-1.66.26-2.1.8-.45.5-.67 1.38-.67 2.56v4.8h-1.39v-13.02h1.4v3.94c0 .48-.03.87-.08 1.18h.09c.27-.44.67-.79 1.16-1.04a3.78 3.78 0 011.73-.38c1.11 0 1.95.27 2.52.8.56.54.84 1.37.84 2.54v5.97h-1.39zM192.1 139.44l-.28-1.3h-.07c-.46.57-.9.96-1.37 1.17-.44.2-1 .3-1.7.3a3.1 3.1 0 01-2.13-.7 2.58 2.58 0 01-.77-2c0-1.85 1.47-2.83 4.43-2.91l1.56-.05v-.57c0-.72-.15-1.25-.46-1.59-.31-.34-.8-.51-1.5-.51-.75 0-1.62.24-2.58.7l-.43-1.06a6.43 6.43 0 013.1-.79c1.1 0 1.9.24 2.43.74.54.48.8 1.25.8 2.32v6.25h-1.03zm-3.14-.97c.86 0 1.54-.24 2.04-.72.5-.46.74-1.13.74-1.99v-.82l-1.4.05c-1.09.05-1.9.22-2.37.52-.5.3-.74.78-.74 1.42 0 .5.16.89.45 1.14.3.26.73.4 1.28.4zm-1.64-10.67c0-.29.08-.5.22-.63a.84.84 0 01.53-.19c.22 0 .4.07.55.19.15.14.24.34.24.63 0 .28-.09.48-.24.62a.78.78 0 01-.55.2.77.77 0 01-.53-.2.84.84 0 01-.22-.62zm3.18 0c0-.29.09-.5.23-.63a.84.84 0 01.53-.19c.2 0 .39.07.54.19.16.14.23.34.23.63 0 .28-.07.48-.23.62a.8.8 0 01-1.07 0 .84.84 0 01-.23-.62zM197.28 130.28v5.94c0 .76.18 1.3.52 1.68.34.36.87.55 1.6.55.95 0 1.65-.26 2.1-.79.44-.53.66-1.38.66-2.57v-4.8h1.4v9.15h-1.16l-.2-1.23h-.07c-.3.46-.68.8-1.18 1.04a4 4 0 01-1.73.36c-1.11 0-1.95-.27-2.5-.8-.56-.53-.84-1.37-.84-2.53v-6h1.4zM212.4 136.94c0 .86-.31 1.51-.96 1.97-.63.46-1.52.7-2.67.7a5.72 5.72 0 01-2.84-.58v-1.28a6.29 6.29 0 002.88.72c.73 0 1.28-.12 1.67-.34.4-.24.58-.59.58-1.07 0-.36-.15-.66-.46-.92a7.6 7.6 0 00-1.81-.9 9.89 9.89 0 01-1.82-.83 2.4 2.4 0 01-.8-.8 2.1 2.1 0 01-.26-1.08c0-.74.29-1.34.9-1.77.6-.42 1.44-.65 2.5-.65 1 0 1.96.2 2.9.6l-.5 1.13a6.67 6.67 0 00-2.5-.56c-.65 0-1.14.1-1.49.3-.32.21-.5.5-.5.86 0 .24.08.45.2.62.12.19.32.34.6.5.29.15.82.39 1.6.68 1.1.4 1.82.79 2.21 1.2.38.4.57.9.57 1.5zM218.53 139.61a4.14 4.14 0 01-3.2-1.25 4.76 4.76 0 01-1.18-3.42 5.3 5.3 0 011.1-3.53c.71-.87 1.69-1.3 2.92-1.3 1.15 0 2.05.38 2.72 1.13a4.37 4.37 0 011.01 3v.87h-6.32c.04 1.08.31 1.9.82 2.45.52.57 1.24.84 2.18.84 1 0 1.97-.2 2.93-.62v1.24c-.5.2-.96.35-1.39.46-.45.08-.98.13-1.6.13zm-.38-8.33c-.74 0-1.32.24-1.76.72a3.43 3.43 0 00-.77 1.98h4.8c0-.87-.21-1.54-.6-2a2.1 2.1 0 00-1.67-.7zM228.44 130.11c.41 0 .77.04 1.1.1l-.2 1.29a4.6 4.6 0 00-1-.12c-.74 0-1.37.3-1.9.9-.53.6-.79 1.34-.79 2.25v4.91h-1.39v-9.16h1.15l.15 1.7h.07c.35-.6.76-1.06 1.24-1.39.48-.3 1-.48 1.57-.48zM242.8 136.19c0 1.08-.39 1.92-1.16 2.52-.79.6-1.85.9-3.18.9a7.82 7.82 0 01-3.34-.56v-1.37a9.03 9.03 0 003.39.68c.94 0 1.66-.17 2.14-.53.48-.36.72-.87.72-1.5 0-.43-.09-.77-.26-1.05a2.36 2.36 0 00-.86-.75c-.4-.22-.99-.48-1.81-.77a5.74 5.74 0 01-2.43-1.46 3.13 3.13 0 01-.74-2.17c0-.94.36-1.7 1.06-2.24.7-.57 1.65-.84 2.81-.84 1.22 0 2.33.22 3.36.67l-.45 1.23a7.49 7.49 0 00-2.94-.63c-.76 0-1.34.17-1.77.47-.43.33-.63.8-.63 1.36 0 .43.08.77.24 1.04.15.28.41.52.79.74.36.22.94.48 1.7.75 1.28.46 2.17.94 2.64 1.47.48.53.72 1.2.72 2.04zM248.06 138.47c.24 0 .48-.02.7-.05.24-.04.41-.09.55-.12v1.06c-.16.07-.38.13-.67.19-.3.03-.55.06-.79.06-1.76 0-2.65-.94-2.65-2.8v-5.45h-1.32v-.67l1.32-.58.58-1.95h.8v2.12h2.66v1.08h-2.66v5.4c0 .54.14.97.4 1.26.26.3.61.45 1.08.45zM255.32 130.11c.4 0 .77.04 1.1.1l-.2 1.29a4.6 4.6 0 00-1-.12c-.74 0-1.38.3-1.9.9-.54.6-.8 1.34-.8 2.25v4.91h-1.38v-9.16h1.15l.15 1.7h.07c.34-.6.75-1.06 1.23-1.39.48-.3 1.01-.48 1.58-.48zM263.42 139.44l-.28-1.3h-.07c-.46.57-.9.96-1.37 1.17-.44.2-1 .3-1.69.3a3.1 3.1 0 01-2.14-.7 2.58 2.58 0 01-.77-2c0-1.85 1.47-2.83 4.43-2.91l1.56-.05v-.57c0-.72-.15-1.25-.46-1.59-.3-.34-.8-.51-1.49-.51-.75 0-1.63.24-2.59.7l-.42-1.06a6.43 6.43 0 013.1-.79c1.1 0 1.9.24 2.43.74.53.48.78 1.25.78 2.32v6.25h-1.02zm-3.14-.97c.86 0 1.54-.24 2.04-.72.5-.46.74-1.13.74-1.99v-.82l-1.39.05c-1.1.05-1.9.22-2.38.52-.5.3-.74.78-.74 1.42 0 .5.16.89.45 1.14.3.26.74.4 1.28.4zM274.6 128.86c0 .76-.4 1.44-1.2 2.1-.48.39-.8.68-.96.85a.9.9 0 00-.24.56c0 .17.04.33.12.45.07.12.2.25.41.4.2.16.52.39.94.68a5.64 5.64 0 011.6 1.43c.29.45.43.95.43 1.51 0 .9-.28 1.58-.81 2.06a3.4 3.4 0 01-2.31.71 4.45 4.45 0 01-2.47-.58v-1.28c.36.22.74.4 1.19.51.42.14.85.2 1.25.2 1.2 0 1.8-.5 1.8-1.52 0-.4-.13-.77-.35-1.07-.24-.3-.65-.64-1.27-1.03a6.25 6.25 0 01-1.47-1.2c-.26-.34-.4-.75-.4-1.22 0-.36.11-.68.3-.97.19-.3.48-.58.87-.9.43-.3.72-.6.9-.83.18-.26.27-.53.27-.82 0-.45-.2-.79-.57-1.03a3.05 3.05 0 00-1.63-.36c-1.54 0-2.3.63-2.3 1.87v10.06h-1.4V129.4c0-.99.31-1.74.93-2.26.6-.53 1.52-.78 2.77-.78 1.15 0 2.04.22 2.66.65.63.44.94 1.06.94 1.86zM281.83 139.61a4.14 4.14 0 01-3.2-1.25 4.76 4.76 0 01-1.19-3.42 5.3 5.3 0 011.1-3.53c.72-.87 1.7-1.3 2.93-1.3 1.14 0 2.05.38 2.72 1.13a4.37 4.37 0 011 3v.87h-6.3c.03 1.08.3 1.9.81 2.45.52.57 1.24.84 2.18.84.99 0 1.97-.2 2.92-.62v1.24c-.5.2-.95.35-1.38.46-.45.08-.98.13-1.6.13zm-.38-8.33c-.74 0-1.32.24-1.76.72a3.43 3.43 0 00-.77 1.98h4.79c0-.87-.2-1.54-.58-2a2.1 2.1 0 00-1.68-.7zM296.51 139.44h-1.35v-8.71c0-.72.02-1.4.07-2.06l-.4.38c-.13.12-.8.67-1.98 1.63l-.74-.96 3.24-2.5h1.16v12.22zM309.26 133.31c0 2.11-.32 3.7-1 4.73a3.4 3.4 0 01-3.06 1.57 3.32 3.32 0 01-3-1.6c-.68-1.07-1.02-2.62-1.02-4.7 0-2.12.33-3.71 1-4.74a3.37 3.37 0 013.02-1.54c1.34 0 2.33.53 3.03 1.61.69 1.08 1.03 2.64 1.03 4.67zm-6.68 0c0 1.78.2 3.09.62 3.9.43.8 1.1 1.2 2 1.2.93 0 1.6-.4 2.02-1.23.41-.82.62-2.1.62-3.87 0-1.74-.2-3.04-.62-3.85a2.12 2.12 0 00-2.02-1.23c-.9 0-1.57.41-2 1.22-.41.8-.62 2.08-.62 3.86z" fill="#111827" fill-rule="nonzero"/><g><path d="M152.35 171.44l5.07-10.94h-6.66v-1.28h8.13v1.11l-5 11.11h-1.54zM168.63 171.44h-8.03v-1.2l3.22-3.23c.97-1 1.62-1.7 1.93-2.12.3-.43.55-.84.7-1.24.16-.4.24-.84.24-1.3 0-.65-.2-1.16-.6-1.54-.4-.4-.94-.58-1.64-.58-.51 0-1 .09-1.44.26-.46.17-.96.46-1.52.9l-.74-.94a5.6 5.6 0 013.68-1.4c1.15 0 2.06.29 2.7.87.66.6.98 1.39.98 2.38 0 .77-.22 1.54-.65 2.3-.44.75-1.25 1.7-2.45 2.87l-2.67 2.62v.07h6.29v1.28zM175.52 171.44h-1.35v-8.71c0-.72.02-1.4.07-2.06l-.4.38c-.13.12-.8.67-1.98 1.63l-.74-.96 3.24-2.5h1.16v12.22zM188.2 171.44h-8.03v-1.2l3.22-3.23c.98-1 1.63-1.7 1.94-2.12.3-.43.55-.84.7-1.24.15-.4.24-.84.24-1.3 0-.65-.2-1.16-.6-1.54-.4-.4-.94-.58-1.64-.58-.52 0-1 .09-1.44.26-.46.17-.96.46-1.53.9l-.73-.94a5.6 5.6 0 013.68-1.4c1.15 0 2.05.29 2.7.87.65.6.98 1.39.98 2.38 0 .77-.22 1.54-.65 2.3-.45.75-1.25 1.7-2.45 2.87l-2.67 2.62v.07h6.28v1.28zM198.57 168.64h-1.81v2.8h-1.34v-2.8h-5.94v-1.22l5.8-8.27h1.48v8.22h1.81v1.27zm-3.15-1.27v-4.06c0-.8.04-1.7.09-2.7h-.07c-.26.53-.51.97-.75 1.33l-3.82 5.43h4.55zM212.8 162.78c0 1.23-.43 2.2-1.27 2.86-.86.67-2.06 1-3.63 1h-1.44v4.8h-1.42v-12.22h3.17c3.06 0 4.58 1.18 4.58 3.56zm-6.34 2.64h1.28c1.25 0 2.18-.2 2.74-.62.55-.4.84-1.06.84-1.95 0-.8-.27-1.4-.8-1.8-.52-.4-1.36-.6-2.47-.6h-1.6v4.97zM215.2 158.43h1.38v13.01h-1.37zM220.86 171.44h-1.39v-9.16h1.39v9.16zm-1.51-11.64c0-.32.09-.55.24-.7a.77.77 0 01.58-.22c.22 0 .41.08.58.22.16.15.24.4.24.7 0 .31-.08.55-.24.7a.83.83 0 01-.58.23.77.77 0 01-.58-.23c-.15-.15-.24-.39-.24-.7zM227.67 171.61a4.14 4.14 0 01-3.2-1.25 4.76 4.76 0 01-1.18-3.42 5.3 5.3 0 011.1-3.53c.71-.87 1.69-1.3 2.92-1.3 1.15 0 2.05.38 2.72 1.13a4.37 4.37 0 011.01 3v.87h-6.32c.04 1.08.31 1.9.83 2.45.51.57 1.23.84 2.17.84 1 0 1.97-.2 2.93-.62v1.24c-.5.2-.96.35-1.39.46-.44.08-.97.13-1.6.13zm-.38-8.33c-.73 0-1.32.24-1.76.72a3.43 3.43 0 00-.77 1.98h4.8c0-.87-.21-1.54-.59-2a2.1 2.1 0 00-1.68-.7zM239.1 171.44h-6.65v-.94l5-7.14h-4.7v-1.08h6.22v1.08l-4.93 7h5.05v1.08zM247.51 171.44v-5.92c0-.75-.17-1.3-.51-1.68-.33-.36-.87-.55-1.6-.55-.95 0-1.65.26-2.1.8-.44.5-.67 1.38-.67 2.56v4.8h-1.38v-13.02h1.38v3.94c0 .48-.01.87-.07 1.18h.09c.27-.44.67-.79 1.16-1.04a3.78 3.78 0 011.73-.38c1.12 0 1.95.27 2.52.8.56.54.84 1.37.84 2.54v5.97h-1.39zM257.39 171.44l-.28-1.3h-.07c-.46.57-.9.96-1.37 1.17-.44.2-1 .3-1.69.3a3.1 3.1 0 01-2.14-.7 2.58 2.58 0 01-.77-2c0-1.85 1.47-2.83 4.43-2.91l1.56-.05v-.57c0-.72-.15-1.25-.46-1.59-.3-.34-.8-.51-1.49-.51-.75 0-1.63.24-2.59.7l-.42-1.06a6.43 6.43 0 013.1-.79c1.1 0 1.9.24 2.43.74.53.48.78 1.25.78 2.32v6.25h-1.02zm-3.14-.97c.86 0 1.54-.24 2.04-.72.5-.46.74-1.13.74-1.99v-.82l-1.39.05c-1.1.05-1.9.22-2.38.52-.5.3-.74.78-.74 1.42 0 .5.16.89.45 1.14.3.26.74.4 1.28.4zM262.58 162.28v5.94c0 .76.17 1.3.51 1.68.34.36.87.55 1.6.55.95 0 1.65-.26 2.1-.79.44-.53.67-1.38.67-2.57v-4.8h1.38v9.15h-1.14l-.21-1.23h-.07c-.29.46-.68.8-1.18 1.04a4 4 0 01-1.73.36c-1.11 0-1.95-.27-2.5-.8-.56-.53-.84-1.37-.84-2.53v-6h1.4zM277.69 168.94c0 .86-.3 1.51-.96 1.97-.63.46-1.52.7-2.67.7a5.72 5.72 0 01-2.84-.58v-1.28a6.29 6.29 0 002.88.72c.73 0 1.28-.12 1.67-.34.4-.24.58-.59.58-1.07 0-.36-.15-.66-.46-.92a7.6 7.6 0 00-1.81-.9 9.89 9.89 0 01-1.82-.83 2.4 2.4 0 01-.8-.8 2.1 2.1 0 01-.26-1.08c0-.74.3-1.34.9-1.77.6-.42 1.45-.65 2.5-.65 1 0 1.96.2 2.9.6l-.5 1.13a6.67 6.67 0 00-2.5-.56c-.65 0-1.14.1-1.48.3-.33.21-.5.5-.5.86 0 .24.07.45.19.62.12.19.32.34.6.5.29.15.82.39 1.6.68 1.1.4 1.82.79 2.21 1.2.38.4.57.9.57 1.5zM283.82 171.61a4.14 4.14 0 01-3.2-1.25 4.76 4.76 0 01-1.18-3.42 5.3 5.3 0 011.1-3.53c.71-.87 1.69-1.3 2.92-1.3 1.15 0 2.05.38 2.72 1.13a4.37 4.37 0 011.01 3v.87h-6.32c.04 1.08.31 1.9.83 2.45.51.57 1.23.84 2.17.84 1 0 1.97-.2 2.93-.62v1.24c-.5.2-.96.35-1.39.46-.44.08-.97.13-1.6.13zm-.38-8.33c-.73 0-1.32.24-1.76.72a3.43 3.43 0 00-.77 1.98h4.8c0-.87-.21-1.54-.59-2a2.1 2.1 0 00-1.68-.7zM295.82 171.44v-5.92c0-.75-.17-1.3-.51-1.68-.33-.36-.88-.55-1.6-.55-.95 0-1.66.26-2.1.77-.45.54-.67 1.4-.67 2.57v4.81h-1.38v-9.16h1.13l.22 1.25h.07c.29-.44.68-.8 1.2-1.04a3.75 3.75 0 011.7-.38c1.1 0 1.94.28 2.49.8.56.54.84 1.4.84 2.56v5.97h-1.39z" fill="#111827" fill-rule="nonzero"/></g></g><g><path d="M313.5 203.94a4 4 0 00-4-4H139.15a4 4 0 00-4 4v40a4 4 0 004 4H309.5a4 4 0 004-4v-40z" fill="#e5e7eb"/><path d="M167.15 218.2a7.75 7.75 0 10.02 15.5 7.75 7.75 0 00-.02-15.5zm0 3.42a1.32 1.32 0 010 2.64 1.32 1.32 0 010-2.64zm1.75 7.96c0 .2-.16.36-.37.36h-2.75a.36.36 0 01-.37-.36v-.76c0-.2.16-.38.37-.38h.38v-2h-.38a.36.36 0 01-.37-.37v-.75c0-.2.16-.38.37-.38h2c.2 0 .38.17.38.38v3.12h.37c.2 0 .37.18.37.38v.76zM200.8 231.28l-2.42-7.84h-.05c.08 1.6.12 2.66.12 3.19v4.65h-1.89v-10h2.89l2.36 7.65h.05l2.5-7.65h2.89v10h-1.98v-4.73c0-.23 0-.48.02-.77 0-.3.02-1.07.08-2.33h-.06l-2.57 7.83h-1.95zM215.62 231.28h-5.76v-10h5.76v1.74h-3.64v2.2h3.38v1.73h-3.38v2.58h3.64v1.75zM225.99 231.28h-2.11v-4.31h-3.97v4.3h-2.11v-9.99h2.11v3.92h3.97v-3.92h2.11v10zM230.72 225.72h.69c.67 0 1.16-.11 1.48-.34.33-.22.48-.57.48-1.05 0-.47-.15-.8-.49-1-.32-.21-.83-.31-1.51-.31h-.65v2.7zm0 1.72v3.84h-2.11v-10h2.91c1.36 0 2.37.25 3.01.74.66.5.98 1.25.98 2.26 0 .59-.17 1.1-.49 1.57-.32.46-.77.8-1.37 1.07l2.94 4.36h-2.35l-2.38-3.84h-1.14zM241.68 221.34h2.1v9.94h-2.1zM255.28 231.28h-2.69l-4.35-7.56h-.06c.09 1.33.13 2.28.13 2.85v4.7h-1.9v-9.99h2.68l4.34 7.5h.04c-.07-1.31-.1-2.23-.1-2.77v-4.73h1.91v10zM259.98 231.28h-2.08v-10h5.72v1.74h-3.64v2.57h3.4v1.74h-3.4v3.95zM274.75 226.27c0 1.65-.42 2.92-1.23 3.82a4.6 4.6 0 01-3.53 1.33 4.6 4.6 0 01-3.53-1.33c-.82-.9-1.23-2.17-1.23-3.84 0-1.66.4-2.92 1.23-3.8.83-.89 2-1.32 3.54-1.32s2.72.43 3.53 1.33c.81.88 1.22 2.15 1.22 3.8zm-7.3 0c0 1.12.22 1.96.64 2.52.42.57 1.06.85 1.9.85 1.7 0 2.54-1.12 2.54-3.37 0-2.26-.84-3.38-2.52-3.38-.84 0-1.49.28-1.9.86-.44.56-.65 1.4-.65 2.52zM282.81 228.5c0 .9-.32 1.62-.96 2.13-.66.52-1.56.79-2.72.79a6.46 6.46 0 01-2.83-.6v-1.98c.68.3 1.25.52 1.71.65.48.1.9.18 1.29.18.46 0 .81-.1 1.06-.27a.92.92 0 00.38-.8c0-.2-.05-.36-.17-.51-.1-.16-.26-.31-.47-.45a12 12 0 00-1.3-.67c-.6-.3-1.07-.56-1.38-.83-.3-.27-.54-.57-.72-.92a2.62 2.62 0 01-.28-1.24c0-.88.3-1.58.9-2.08.6-.5 1.42-.76 2.48-.76.52 0 1.01.06 1.49.18.47.13.96.3 1.48.52l-.68 1.65a9.52 9.52 0 00-1.32-.46c-.35-.08-.7-.12-1.04-.12-.4 0-.71.1-.92.28a.93.93 0 00-.32.72c0 .19.04.35.12.5.1.13.23.27.42.4.19.13.63.36 1.35.7.94.45 1.57.9 1.92 1.34.35.45.51 1 .51 1.66z" fill-rule="nonzero"/></g><g><path d="M148.14 284.82h4.5v6.13a13.15 13.15 0 01-4.3.66c-1.86 0-3.28-.54-4.29-1.64-1-1.1-1.5-2.64-1.5-4.64 0-1.97.56-3.5 1.7-4.62 1.12-1.11 2.68-1.66 4.66-1.66a9 9 0 013.63.73l-.7 1.67a7 7 0 00-2.98-.69c-1.3 0-2.32.41-3.08 1.23a4.7 4.7 0 00-1.15 3.36c0 1.49.35 2.64 1.03 3.4.69.78 1.66 1.17 2.95 1.17.65 0 1.33-.09 2.07-.24v-3.15h-2.54v-1.71zM163.57 286.8c0 1.51-.4 2.7-1.16 3.55a4.18 4.18 0 01-3.24 1.26c-.86 0-1.63-.2-2.3-.58a3.97 3.97 0 01-1.52-1.7 5.63 5.63 0 01-.53-2.53c0-1.5.38-2.67 1.15-3.5a4.2 4.2 0 013.25-1.27c1.34 0 2.4.43 3.19 1.3a5.02 5.02 0 011.16 3.47zm-6.73 0c0 2.14.79 3.2 2.37 3.2 1.55 0 2.34-1.06 2.34-3.2 0-2.1-.79-3.16-2.36-3.16-.82 0-1.42.27-1.8.82a4.24 4.24 0 00-.55 2.34zM174.03 286.8c0 1.51-.4 2.7-1.17 3.55a4.18 4.18 0 01-3.23 1.26c-.86 0-1.63-.2-2.3-.58a3.97 3.97 0 01-1.52-1.7 5.63 5.63 0 01-.53-2.53c0-1.5.38-2.67 1.15-3.5a4.2 4.2 0 013.25-1.27c1.34 0 2.4.43 3.18 1.3a5.02 5.02 0 011.17 3.47zm-6.73 0c0 2.14.79 3.2 2.36 3.2 1.56 0 2.35-1.06 2.35-3.2 0-2.1-.79-3.16-2.36-3.16-.83 0-1.43.27-1.8.82a4.24 4.24 0 00-.55 2.34zM184.1 282.2v1.08l-1.58.29a2.81 2.81 0 01.5 1.62c0 .95-.33 1.7-1 2.25-.65.55-1.56.82-2.7.82-.3 0-.57-.02-.8-.07-.44.26-.64.57-.64.92 0 .21.1.36.29.48.2.1.56.16 1.1.16h1.6c1.03 0 1.8.22 2.33.65.53.43.79 1.06.79 1.88 0 1.05-.43 1.85-1.28 2.42-.88.58-2.13.85-3.75.85a5.2 5.2 0 01-2.9-.67c-.65-.44-.99-1.07-.99-1.9 0-.56.19-1.04.55-1.43.36-.4.85-.65 1.5-.8-.25-.13-.48-.3-.65-.56a1.38 1.38 0 01.03-1.64c.21-.24.5-.48.88-.72-.48-.2-.87-.55-1.16-1a2.87 2.87 0 01-.45-1.64c0-1 .31-1.78.94-2.32.64-.57 1.54-.84 2.7-.84a7.05 7.05 0 011.48.17h3.2zm-7.27 10.68c0 .43.2.75.57.98.4.22.92.34 1.6.34 1.09 0 1.87-.15 2.4-.46.52-.31.8-.7.8-1.22 0-.4-.16-.68-.44-.85-.29-.18-.82-.26-1.6-.26h-1.5a2.1 2.1 0 00-1.33.4c-.34.27-.5.63-.5 1.07zm.84-7.69c0 .59.16 1.03.45 1.34.3.3.73.46 1.28.46 1.15 0 1.71-.6 1.71-1.81 0-.6-.13-1.06-.42-1.4-.28-.33-.7-.49-1.29-.49-.56 0-1 .16-1.28.48-.3.33-.45.8-.45 1.42zM185.77 278.43h2.06v13.01h-2.06zM194.62 291.61a4.47 4.47 0 01-3.37-1.26 4.71 4.71 0 01-1.22-3.46c0-1.5.38-2.7 1.13-3.56a3.86 3.86 0 013.1-1.3c1.22 0 2.17.37 2.9 1.11.7.74 1.06 1.76 1.06 3.06v1.07h-6.17c.04.89.28 1.59.72 2.07.46.48 1.11.72 1.94.72a7.07 7.07 0 003.04-.67v1.6c-.48.21-.96.38-1.45.47-.5.1-1.05.15-1.68.15zm-.36-8.1c-.63 0-1.13.21-1.5.6-.38.4-.6.98-.67 1.74h4.2c-.03-.78-.2-1.36-.56-1.73a1.9 1.9 0 00-1.47-.6zM210.39 291.44l-3.55-10.2h-.07c.09 1.5.14 2.93.14 4.26v5.94h-1.81v-12.22h2.82l3.4 9.72h.04l3.5-9.72h2.82v12.22h-1.92v-6.04c0-.62.02-1.4.04-2.38.03-.98.07-1.56.08-1.76h-.07l-3.66 10.18h-1.76zM226.48 291.44l-.4-1.28h-.07a3.7 3.7 0 01-1.35 1.15c-.44.2-1.03.3-1.73.3-.9 0-1.62-.25-2.12-.73a2.75 2.75 0 01-.77-2.09c0-.94.36-1.66 1.06-2.16.7-.48 1.78-.75 3.24-.78l1.59-.06v-.5c0-.57-.14-1.02-.41-1.31-.28-.3-.7-.45-1.29-.45-.48 0-.92.07-1.37.2-.42.15-.83.32-1.25.5l-.63-1.4a7.62 7.62 0 013.34-.8c1.18 0 2.05.25 2.65.77.6.51.91 1.32.91 2.41v6.23h-1.4zm-2.93-1.33c.72 0 1.28-.2 1.71-.6.45-.4.65-.96.65-1.68v-.8l-1.18.05c-.92.03-1.6.19-2.02.46-.43.27-.63.7-.63 1.27 0 .4.12.73.37.96.24.22.6.34 1.1.34zM235.31 291.61a3.26 3.26 0 01-2.72-1.26h-.12c.07.79.12 1.25.12 1.42v3.78h-1.97V282.2h1.6l.27 1.23h.1a3.1 3.1 0 012.76-1.4c1.14 0 2.05.43 2.68 1.25.65.84.98 2.02.98 3.52 0 1.51-.33 2.7-1 3.55a3.25 3.25 0 01-2.7 1.26zm-.48-7.97c-.77 0-1.35.22-1.7.68-.37.46-.54 1.18-.54 2.2v.28c0 1.13.17 1.94.53 2.45.36.5.94.76 1.75.76.68 0 1.2-.28 1.57-.84.36-.55.55-1.36.55-2.38 0-1.05-.19-1.82-.55-2.35-.36-.55-.9-.8-1.6-.8zM247.5 288.8c0 .91-.32 1.6-1 2.1-.64.47-1.58.71-2.82.71a6.56 6.56 0 01-2.96-.56v-1.7a7.3 7.3 0 003.03.76c1.22 0 1.82-.36 1.82-1.1a.83.83 0 00-.2-.58 2.19 2.19 0 00-.66-.5c-.3-.15-.73-.34-1.28-.56a5.93 5.93 0 01-2.16-1.23 2.28 2.28 0 01-.56-1.61c0-.8.3-1.4.95-1.84.64-.44 1.51-.66 2.6-.66s2.11.22 3.09.66l-.64 1.48c-.99-.41-1.83-.62-2.51-.62-1.05 0-1.56.3-1.56.9 0 .28.14.52.41.73.28.2.86.48 1.76.82.77.29 1.32.56 1.67.8.34.26.6.53.77.86.17.33.25.7.25 1.15zM262.27 286.8c0 1.51-.4 2.7-1.16 3.55a4.18 4.18 0 01-3.24 1.26c-.86 0-1.63-.2-2.3-.58a3.97 3.97 0 01-1.52-1.7 5.63 5.63 0 01-.53-2.53c0-1.5.38-2.67 1.15-3.5a4.2 4.2 0 013.25-1.27c1.34 0 2.4.43 3.19 1.3a5.02 5.02 0 011.16 3.47zm-6.73 0c0 2.14.79 3.2 2.36 3.2 1.56 0 2.35-1.06 2.35-3.2 0-2.1-.79-3.16-2.36-3.16-.82 0-1.42.27-1.8.82a4.24 4.24 0 00-.55 2.34zm-.27-7.05c0-.34.08-.6.27-.75.19-.16.41-.23.69-.23.29 0 .53.09.7.26.19.17.27.41.27.72 0 .3-.1.53-.27.7a.9.9 0 01-.7.28c-.28 0-.5-.09-.69-.24-.19-.17-.27-.41-.27-.74zm3.29 0c0-.34.08-.6.27-.75.19-.16.41-.23.68-.23.3 0 .53.09.7.26.2.17.28.41.28.72 0 .3-.09.53-.27.72a.99.99 0 01-.7.26c-.28 0-.5-.09-.7-.24-.18-.17-.26-.41-.26-.74zM269.17 283.69h-2.26v7.75h-1.97v-7.75h-1.53v-.93l1.53-.6v-.6c0-1.1.25-1.9.77-2.43.51-.53 1.3-.78 2.34-.78.69 0 1.37.12 2.04.34l-.51 1.49a4.54 4.54 0 00-1.39-.24c-.44 0-.77.14-.98.4-.2.28-.3.71-.3 1.26v.6h2.26v1.49zm6.21 0h-2.26v7.75h-1.97v-7.75h-1.52v-.93l1.52-.6v-.6c0-1.1.26-1.9.77-2.43.52-.53 1.29-.78 2.35-.78.68 0 1.37.12 2.04.34l-.52 1.49c-.5-.16-.96-.24-1.38-.24-.45 0-.78.14-.98.4-.2.28-.3.71-.3 1.26v.6h2.25v1.49zM285.09 291.44h-1.97v-5.68c0-.72-.14-1.25-.43-1.6-.29-.35-.75-.52-1.37-.52-.84 0-1.44.24-1.83.73-.38.5-.56 1.32-.56 2.47v4.6h-1.97v-9.24h1.54l.27 1.21h.1c.28-.44.67-.78 1.19-1.02a3.98 3.98 0 011.7-.36c2.22 0 3.33 1.13 3.33 3.39v6.02zM291.87 291.61a4.47 4.47 0 01-3.38-1.26 4.71 4.71 0 01-1.21-3.46c0-1.5.37-2.7 1.13-3.56a3.86 3.86 0 013.1-1.3c1.21 0 2.17.37 2.89 1.11.7.74 1.06 1.76 1.06 3.06v1.07h-6.16c.03.89.27 1.59.72 2.07.46.48 1.1.72 1.93.72a7.07 7.07 0 003.05-.67v1.6c-.48.21-.96.38-1.46.47-.5.1-1.04.15-1.67.15zm-.36-8.1c-.64 0-1.13.21-1.51.6-.38.4-.6.98-.67 1.74h4.2c-.02-.78-.2-1.36-.55-1.73a1.9 1.9 0 00-1.47-.6zM305.82 291.44h-1.97v-5.68c0-.72-.13-1.25-.43-1.6-.29-.35-.75-.52-1.37-.52-.83 0-1.43.24-1.83.73-.37.5-.56 1.32-.56 2.47v4.6h-1.97v-9.24h1.54l.27 1.21h.1c.28-.44.67-.78 1.19-1.02a3.98 3.98 0 011.71-.36c2.2 0 3.32 1.13 3.32 3.39v6.02z" fill="#1a202c" fill-rule="nonzero"/></g></g></g></g></g></svg>