<svg viewBox="0 0 642 70" xmlns="http://www.w3.org/2000/svg" fill-rule="evenodd" clip-rule="evenodd" stroke-linejoin="round" stroke-miterlimit="2"><g><g><path d="M617 37.1a16 16 0 00-16-16H41a16 16 0 000 32h560a16 16 0 0016-16z" fill="#d1d5db"/><path d="M234.6 37.1a16 16 0 00-16-16H41a16 16 0 000 32h177.6a16 16 0 0016-16z" fill="#7533ff"/><path d="M53 34.3c0 .8-.2 1.4-.6 1.9-.4.4-1 .8-1.8 1 1 .1 1.6.4 2 .8.5.5.8 1.1.8 1.9a3 3 0 01-1.2 2.5c-.8.6-1.9 1-3.3 1-1.3 0-2.4-.3-3.2-.7V41a7 7 0 003 .7c1 0 1.6-.2 2-.5.5-.3.7-.8.7-1.5 0-.6-.2-1-.7-1.4-.5-.2-1.3-.4-2.3-.4h-1v-1.5h1c1.8 0 2.8-.6 2.8-1.9 0-.5-.2-.8-.5-1.1-.3-.3-.8-.4-1.4-.4a4 4 0 00-1.3.2c-.4.1-.9.3-1.4.7l-.9-1.3a6 6 0 013.7-1.1c1.1 0 2 .2 2.6.7.7.5 1 1.2 1 2zM58.7 36a4 4 0 012.7 1c.7.5 1 1.4 1 2.4 0 1.2-.3 2.2-1.1 2.9-.8.7-1.8 1-3.2 1-1.3 0-2.3-.2-3-.6V41c.4.3.9.5 1.4.6l1.5.2c.9 0 1.5-.2 2-.6.3-.4.6-.9.6-1.6 0-1.4-1-2-2.6-2h-1l-.9.2-.8-.5.4-5.6h6v1.7h-4.4l-.2 2.8.6-.1h1zM66.5 41.5a24 24 0 01-1.4 3.7h-1.3l.8-4h1.8v.3zM75.6 34.3c0 .8-.3 1.4-.7 1.9-.4.4-1 .8-1.8 1 1 .1 1.6.4 2.1.8.5.5.7 1.1.7 1.9a3 3 0 01-1.2 2.5c-.7.6-1.8 1-3.3 1-1.3 0-2.3-.3-3.2-.7V41a7 7 0 003.1.7c.9 0 1.6-.2 2-.5.4-.3.7-.8.7-1.5 0-.6-.3-1-.8-1.4-.5-.2-1.2-.4-2.3-.4h-1v-1.5h1c1.9 0 2.8-.6 2.8-1.9 0-.5-.2-.8-.5-1.1-.3-.3-.8-.4-1.4-.4a4 4 0 00-1.2.2c-.4.1-1 .3-1.5.7l-.9-1.3a6 6 0 013.7-1.1c1.1 0 2 .2 2.7.7.6.5 1 1.2 1 2zM85.1 36.6c0 2.2-.4 4-1.4 5-.9 1.1-2.2 1.7-4 1.7l-1.5-.1v-1.6c.4.2.9.2 1.4.2 1.2 0 2.1-.3 2.7-1 .6-.6 1-1.7 1-3.1-.4.5-.7.8-1.2 1-.4.2-1 .3-1.5.3-1 0-1.8-.3-2.4-1-.6-.5-.9-1.4-.9-2.5a4 4 0 011-2.9c.7-.7 1.6-1 2.8-1 .8 0 1.5.2 2.1.6.6.4 1 1 1.4 1.7.3.8.5 1.7.5 2.7zm-4-3.5c-.6 0-1.1.2-1.4.6-.4.4-.5 1-.5 1.8 0 .6.1 1.1.4 1.5.3.4.8.6 1.5.6.6 0 1-.2 1.5-.6.4-.4.6-.8.6-1.3s0-.9-.2-1.3l-.8-1c-.3-.2-.7-.3-1-.3zM92.1 35.1c0 .8.1 1.4.3 1.8.1.4.4.6.7.6.7 0 1-.8 1-2.3 0-1.6-.3-2.4-1-2.4-.3 0-.6.2-.7.6a5 5 0 00-.3 1.7zm3.6 0c0 1.2-.3 2.1-.7 2.7-.4.6-1 1-1.9 1a2 2 0 01-1.8-1c-.5-.6-.7-1.5-.7-2.7 0-2.3.8-3.5 2.5-3.5.8 0 1.5.3 1.9.9.4.6.7 1.5.7 2.6zm3.9 4.6c0 .8 0 1.4.2 1.8.2.3.4.5.8.5.6 0 1-.7 1-2.3 0-1.5-.4-2.3-1-2.3-.4 0-.6.2-.8.6l-.2 1.7zm3.5 0c0 1.2-.2 2.1-.7 2.7-.4.6-1 1-1.8 1s-1.5-.4-1.9-1c-.4-.6-.6-1.5-.6-2.7 0-2.4.8-3.6 2.5-3.6.8 0 1.4.3 1.8 1 .5.6.7 1.5.7 2.6zm-2.3-8l-6.4 11.4H93l6.4-11.4h1.5z" fill="#fff" fill-rule="nonzero"/></g></g></svg>