<?xml version="1.0" encoding="UTF-8" standalone="no"?>
<svg
   xmlns:dc="http://purl.org/dc/elements/1.1/"
   xmlns:cc="http://creativecommons.org/ns#"
   xmlns:rdf="http://www.w3.org/1999/02/22-rdf-syntax-ns#"
   xmlns:svg="http://www.w3.org/2000/svg"
   xmlns="http://www.w3.org/2000/svg"
   id="svg8"
   version="1.1"
   viewBox="0 0 142.21944 77.963889"
   height="77.96389mm"
   width="142.21944mm">
  <defs
     id="defs2" />
  <metadata
     id="metadata5">
    <rdf:RDF>
      <cc:Work
         rdf:about="">
        <dc:format>image/svg+xml</dc:format>
        <dc:type
           rdf:resource="http://purl.org/dc/dcmitype/StillImage" />
        <dc:title></dc:title>
      </cc:Work>
    </rdf:RDF>
  </metadata>
  <g
     transform="translate(-167.15463,-197.11348)"
     id="layer1">
    <path
       id="path4540"
       d="m 184.89311,274.82611 c -0.16918,-0.27373 20.09817,-28.35114 21.41673,-29.66969 0.43903,-0.43903 0.58076,-0.36043 1.07562,0.59652 0.31349,0.60621 0.81567,1.1022 1.11597,1.1022 0.42427,0 0.29248,-0.45223 -0.59116,-2.02848 -0.62543,-1.11566 -1.24817,-2.15537 -1.38386,-2.31046 -0.20471,-0.234 -14.82999,0.64832 -15.0006,0.90496 -0.38809,0.58382 -23.33076,30.56155 -23.67118,30.92965 -0.9896,1.07003 -0.90562,-0.0442 0.0981,-1.30206 0.58055,-0.72753 6.02555,-7.83153 12.1,-15.78667 6.07445,-7.95514 11.07793,-14.50511 11.11884,-14.55549 0.14435,-0.17778 14.05928,-1.17851 14.92453,-1.07335 0.66538,0.0809 1.19143,0.66043 2.17811,2.39967 l 1.30086,2.29306 2.91648,-0.0606 c 1.60406,-0.0333 2.96466,-0.1127 3.02355,-0.17639 0.0589,-0.0637 0.16735,-3.86497 0.24103,-8.44731 l 0.13397,-8.33153 -0.9778,-0.36908 -0.9778,-0.36907 v -12.74172 c 0,-9.8712 0.0994,-12.77846 0.44098,-12.90481 0.24253,-0.0897 2.57377,-0.56251 5.18054,-1.05068 3.73453,-0.69937 4.79939,-0.79334 5.02168,-0.44319 0.18945,0.29842 0.28388,0.18367 0.28752,-0.34936 0.004,-0.61292 -0.19553,-0.79375 -0.87655,-0.79375 -0.48507,0 -0.88194,-0.15573 -0.88194,-0.34606 0,-0.19033 0.39687,-0.44566 0.88194,-0.56741 0.68637,-0.17227 0.88195,-0.44756 0.88195,-1.24144 0,-0.67156 0.18079,-1.02009 0.52916,-1.02009 0.33297,0 0.52917,0.33582 0.52917,0.90572 0,0.74517 0.12506,0.86602 0.70556,0.68178 0.48423,-0.15369 0.70555,-0.0634 0.70555,0.28786 0,0.28148 -0.3175,0.59482 -0.70555,0.6963 -0.47455,0.1241 -0.70556,0.48119 -0.70556,1.09066 0,0.81226 0.10627,0.8849 1.0256,0.70103 0.85572,-0.17114 1.13246,-0.0382 1.67084,0.80257 0.35489,0.55423 0.82896,1.16644 1.0535,1.36047 0.22454,0.19402 1.53641,2.59325 2.91527,5.33162 l 2.50701,4.97884 v 22.9788 c 0,15.08401 -0.1212,22.97879 -0.35278,22.97879 -0.2315,0 -0.3552,-7.91281 -0.35984,-23.01875 l -0.007,-23.01875 -2.27573,-4.23333 -2.27572,-4.23333 0.0615,4.7625 c 0.0432,3.34476 0.097,3.8888 0.18078,1.82757 0.0851,-2.09552 0.24118,-2.89453 0.54556,-2.79369 0.28161,0.0933 0.46074,1.23918 0.52774,3.3759 0.0912,2.90916 0.038,3.23465 -0.52916,3.2346 -0.60157,-5e-5 -0.62505,1.3642 -0.50984,29.63334 0.0861,21.12103 0.0109,29.63339 -0.26154,29.63339 -0.26871,0 -0.41035,-5.68686 -0.47665,-19.1382 l -0.0943,-19.13819 -0.0851,19.13819 c -0.0551,12.3853 -0.20878,19.1382 -0.43563,19.1382 -0.22829,0 -0.38288,-9.25888 -0.44324,-26.54653 l -0.0927,-26.54653 -0.0859,26.54653 c -0.0563,17.40521 -0.20742,26.54653 -0.43872,26.54653 -0.23206,0 -0.35278,-9.06244 -0.35278,-26.48177 v -26.48176 l -0.97014,0.11162 c -0.96129,0.11061 -0.97107,0.13817 -1.0726,3.02205 -0.0696,1.97685 -0.23933,2.914 -0.52916,2.92159 -1.11232,0.0291 -7.73697,1.00787 -7.8956,1.16651 -0.19187,0.19187 -0.7799,29.00004 -0.80587,39.47995 -0.0111,4.48573 -0.13093,6.26181 -0.42243,6.26181 -0.30388,0 -0.35684,-3.57935 -0.20915,-14.13659 l 0.19776,-14.13658 -1.29015,0.19011 c -0.70959,0.10457 -2.6795,0.29358 -4.37759,0.42003 l -3.08742,0.22992 -1.17436,1.63391 c -0.6459,0.89866 -4.94515,7.07227 -9.5539,13.71914 -4.60874,6.64687 -8.52291,11.9966 -8.69816,11.8883 -0.17524,-0.10831 0.53383,-1.41916 1.57571,-2.913 18.09796,-25.94874 17.29187,-24.76469 16.85937,-24.76469 -0.18077,0 -4.81591,6.15157 -10.30032,13.67014 -11.26619,15.44482 -10.43666,14.36277 -10.69297,13.94806 z m 22.16226,-28.32375 c -0.11992,-0.19403 -0.37678,-0.35278 -0.57081,-0.35278 -0.19403,0 -0.25467,0.15875 -0.13475,0.35278 0.11992,0.19403 0.37678,0.35278 0.57081,0.35278 0.19402,0 0.25466,-0.15875 0.13475,-0.35278 z m 13.31736,-19.07923 3.43958,-0.41067 v -12.48005 c 0,-11.65595 -0.0408,-12.48005 -0.61806,-12.48005 -0.33993,0 -2.2843,0.3175 -4.32083,0.70555 -2.03652,0.38806 -3.74277,0.70556 -3.79166,0.70556 -0.0489,0 -0.0889,5.56886 -0.0889,12.37525 v 12.37525 l 0.97014,-0.19009 c 0.53357,-0.10455 2.51795,-0.37489 4.40972,-0.60075 z m -1.36575,-4.42522 c 0.23161,-1.38704 -0.55937,-2.65378 -1.2387,-1.98375 -0.53819,0.53084 -1.01152,0.57211 -1.01152,0.0882 0,-0.19403 0.23812,-0.35278 0.52916,-0.35278 0.64026,0 0.70433,-0.5842 0.0882,-0.80425 -0.2565,-0.0916 -0.31008,-0.28838 -0.1281,-0.47037 0.18199,-0.18199 0.37877,-0.1284 0.47038,0.12809 0.0866,0.24254 0.45239,0.44097 0.81282,0.44097 0.76205,0 1.2489,0.63607 1.11433,1.45588 -0.0518,0.31566 0.15059,0.66787 0.44978,0.78268 0.64514,0.24756 0.74431,1.06273 0.10301,0.84668 -0.24253,-0.0817 -0.6508,0.10351 -0.90726,0.41158 -0.40167,0.48251 -0.44076,0.40728 -0.2821,-0.54293 z m -1.10342,-0.0171 c 0.14,-0.58244 0.055,-0.71766 -0.35292,-0.56114 -0.33162,0.12725 -0.4818,0.0395 -0.39223,-0.22924 0.21807,-0.65422 0.70931,-0.63322 1.13947,0.0487 0.28697,0.45494 0.2624,0.72092 -0.0977,1.05834 -0.39879,0.37363 -0.4495,0.31948 -0.29658,-0.31668 z m 2.61616,-1.05533 c -0.4285,-0.4285 -0.24375,-0.80429 0.29398,-0.59794 0.29104,0.11168 0.52917,0.34483 0.52917,0.51809 0,0.36986 -0.486,0.417 -0.82315,0.0798 z m 0.11759,-1.5287 c 0,-0.19403 0.23813,-0.35278 0.52917,-0.35278 0.29104,0 0.52917,0.15875 0.52917,0.35278 0,0.19403 -0.23813,0.35278 -0.52917,0.35278 -0.29104,0 -0.52917,-0.15875 -0.52917,-0.35278 z m -0.17639,-1.05833 c 0.11992,-0.19403 0.37678,-0.35278 0.57081,-0.35278 0.19403,0 0.25467,0.15875 0.13475,0.35278 -0.11992,0.19403 -0.37678,0.35278 -0.57081,0.35278 -0.19402,0 -0.25466,-0.15875 -0.13475,-0.35278 z m -2.44018,-0.30543 c -0.15196,-0.24589 -0.18103,-0.54234 -0.0646,-0.65878 0.31573,-0.31573 0.65997,0.14862 0.48944,0.6602 -0.11949,0.35848 -0.20259,0.35821 -0.42485,-10e-4 z m 0.85268,-0.73209 c 0,-0.3995 0.15875,-0.72637 0.35278,-0.72637 0.19403,0 0.35278,0.22876 0.35278,0.50835 0,0.27959 -0.15875,0.60646 -0.35278,0.72637 -0.19403,0.11992 -0.35278,-0.10884 -0.35278,-0.50835 z m 0.93076,0.15557 c 0.11169,-0.29104 0.33985,-0.52916 0.50702,-0.52916 0.16719,0 0.21259,0.23812 0.10091,0.52916 -0.11169,0.29105 -0.33985,0.52917 -0.50702,0.52917 -0.16718,0 -0.21259,-0.23812 -0.10091,-0.52917 z m -2.40503,-5.11446 c 0.0879,-2.46484 0.2261,-3.17581 0.61737,-3.17581 0.27727,0 0.62319,-0.002 0.76871,-0.004 0.14552,-0.002 0.35407,1.30749 0.46344,2.91042 l 0.19886,2.91443 0.0657,-3.04906 c 0.0531,-2.46297 0.17714,-3.09182 0.64538,-3.2715 0.31881,-0.12234 0.62201,-0.17901 0.67377,-0.12594 0.0518,0.0531 0.14293,1.52459 0.2026,3.27003 l 0.10849,3.17352 -1.04685,0.22432 c -0.57576,0.12338 -1.44371,0.24347 -1.92878,0.26687 l -0.88195,0.0426 z m 11.18187,-9.62401 c -0.48449,-0.6917 -0.53537,0.11214 -0.53537,8.45697 0,7.06338 0.10319,9.25576 0.44097,9.36849 0.34306,0.1145 0.46193,-1.76319 0.53537,-8.45697 0.0793,-7.22942 0.009,-8.72626 -0.44097,-9.36849 z m -1.24093,8.0357 c 0,-5.33577 -0.0664,-9.70139 -0.14753,-9.70139 -0.0811,0 -0.39865,0.0964 -0.70556,0.21413 -0.46366,0.17792 -0.55802,0.89378 -0.55802,4.23333 0,2.44428 -0.13824,4.0192 -0.35278,4.0192 -0.22001,0 -0.35278,2.05787 -0.35278,5.46806 v 5.46806 h 1.05834 1.05833 z m 80.08057,57.46166 v -5.50916 l -2.8076,-8.6029 -2.80759,-8.6029 -0.57578,-9.96087 -0.57578,-9.96087 -2.30557,-2.57608 c -1.26808,-1.41684 -2.37526,-2.5064 -2.46043,-2.42124 -0.34648,0.34649 1.07167,18.43667 1.52091,19.40089 0.43157,0.92631 0.34089,1.31893 -1.14071,4.93889 -1.80651,4.41381 -2.89285,6.44311 -3.97202,7.41974 -0.40359,0.36524 -0.63928,0.817 -0.52376,1.00392 0.25407,0.41111 0.87527,19.04261 0.64266,19.27523 -0.48602,0.48602 -0.63503,-1.05957 -0.86215,-8.94246 -0.13719,-4.76152 -0.34983,-8.7577 -0.47254,-8.88042 -0.12272,-0.12271 -1.93352,0.0353 -4.02402,0.35108 -2.0905,0.3158 -14.11966,2.08699 -26.73146,3.93596 -12.61181,1.84898 -23.36712,3.45146 -23.9007,3.56105 l -0.97014,0.19926 v 4.91086 c 0,3.03872 -0.13449,4.91086 -0.35278,4.91086 -0.19403,0 -0.37695,-0.83344 -0.40651,-1.85209 -0.0296,-1.01864 -0.0906,-2.01083 -0.13569,-2.20486 -0.0451,-0.19403 -0.10028,-1.66246 -0.12266,-3.26319 -0.0326,-2.33377 -0.14554,-2.91042 -0.56986,-2.91042 -1.01578,0 -0.51045,-0.67552 2.10247,-2.81062 1.52756,-1.24821 4.7005,-4.6175 7.56289,-8.03089 l 4.93125,-5.88049 16.69059,-3.91105 16.69058,-3.91105 -0.11606,-6.86615 -0.11607,-6.86614 -1.03046,-0.90763 c -1.3524,-1.19121 -1.29986,-1.63065 0.24599,-2.05748 1.87831,-0.51863 2.52798,-1.28933 3.31526,-3.93288 0.573,-1.92403 0.97935,-2.60065 2.13773,-3.55963 0.78663,-0.65122 1.98736,-1.73967 2.66827,-2.41877 1.09246,-1.08954 1.21412,-1.38777 1.03468,-2.53634 -0.11284,-0.72221 -0.046,-1.39889 0.15018,-1.52013 0.4358,-0.26934 0.47439,-4.05742 0.0413,-4.05742 -0.39285,0 -1.56936,-1.76381 -1.3337,-1.99946 0.0959,-0.0959 0.50546,0.003 0.91013,0.2194 0.68179,0.36489 0.73577,0.30165 0.73577,-0.86209 0,-1.02446 -0.16724,-1.31945 -0.90761,-1.60094 -1.41079,-0.53638 -0.96888,-1.49828 0.85396,-1.85876 0.84055,-0.16622 1.61171,-0.21879 1.7137,-0.11681 0.10198,0.10199 0.008,0.69347 -0.20815,1.31441 -0.58796,1.68661 -0.5084,4.43192 0.1356,4.67905 0.80838,0.3102 0.64366,1.01464 -0.17639,0.75437 -0.64144,-0.20359 -0.70555,-0.0634 -0.70555,1.54291 0,0.97176 0.15933,1.86531 0.35407,1.98567 0.19474,0.12035 0.25613,0.60905 0.13642,1.086 -0.32315,1.28754 0.41299,2.64287 2.18807,4.02848 1.63365,1.27521 3.24128,3.47044 4.17094,5.69542 0.29347,0.70236 1.57113,2.40764 2.83926,3.78949 1.26812,1.38185 2.30568,2.67448 2.30568,2.8725 0,0.19803 -0.39687,0.51094 -0.88194,0.69536 -0.48789,0.1855 -0.87947,0.61506 -0.87641,0.96141 0.003,0.34435 0.2395,4.43609 0.52546,9.09276 0.28596,4.65667 0.52159,8.64659 0.52363,8.8665 0.002,0.2199 0.28152,0.47309 0.62107,0.56263 0.46291,0.12208 1.35186,2.46928 3.5533,9.38215 1.61477,5.07063 2.83571,9.3815 2.71321,9.57972 -0.12251,0.19821 -0.45149,0.36039 -0.73108,0.36039 -0.41751,0 -0.50835,0.85104 -0.50835,4.7625 0,2.93981 -0.13501,4.7625 -0.35278,4.7625 -0.22012,0 -0.35277,-2.07157 -0.35277,-5.50917 z m -1.58504,-14.11997 c -2.60644,-8.12676 -3.00108,-9.21396 -3.00108,-8.26776 0,0.72974 5.34992,17.02013 5.53032,16.83973 0.0916,-0.0916 -1.04655,-3.94899 -2.52924,-8.57197 z m -42.44477,2.87042 c 15.35774,-2.42632 27.94466,-4.45038 27.97094,-4.49791 0.0263,-0.0475 0.52869,-0.72143 1.11649,-1.49754 1.03783,-1.37032 4.56589,-9.25936 4.27221,-9.55302 -0.0804,-0.0804 -3.30381,0.5591 -7.16311,1.42114 -3.85931,0.86203 -7.10094,1.48331 -7.20363,1.38063 -0.24792,-0.24792 -0.26753,-0.44288 -0.319,-3.17062 l -0.0441,-2.33715 -1.14653,0.21992 c -0.63059,0.12096 -8.09516,1.84205 -16.58794,3.82464 l -15.44142,3.60473 -4.93419,5.88102 c -2.7138,3.23456 -5.50992,6.3355 -6.21359,6.89098 -2.38865,1.88559 -2.77255,2.22898 -2.50072,2.23683 0.14929,0.004 12.83685,-1.97732 28.19459,-4.40365 z m -7.92408,2.08169 c -0.11722,-0.11722 -0.4215,-0.12975 -0.67616,-0.0278 -0.28142,0.11261 -0.19783,0.19621 0.21314,0.21313 0.37189,0.0153 0.58025,-0.0681 0.46302,-0.18528 z m 4.58611,-0.70555 c -0.11722,-0.11723 -0.42149,-0.12976 -0.67615,-0.0278 -0.28143,0.11262 -0.19783,0.19621 0.21313,0.21314 0.37189,0.0153 0.58025,-0.0681 0.46302,-0.18529 z m 2.30041,-0.37328 c -0.24254,-0.0979 -0.63941,-0.0979 -0.88195,0 -0.24253,0.0979 -0.0441,0.17794 0.44098,0.17794 0.48507,0 0.6835,-0.0801 0.44097,-0.17794 z m 2.47616,-0.35054 c -0.23884,-0.0966 -0.71509,-0.10251 -1.05834,-0.0131 -0.34324,0.0894 -0.14782,0.16851 0.43426,0.1757 0.58209,0.007 0.86292,-0.066 0.62408,-0.16263 z m 2.46944,-0.35278 c -0.23884,-0.0966 -0.71509,-0.10251 -1.05833,-0.0131 -0.34324,0.0895 -0.14783,0.16851 0.43426,0.1757 0.58208,0.007 0.86291,-0.066 0.62407,-0.16263 z m 2.11667,-0.35278 c -0.23884,-0.0966 -0.71509,-0.10251 -1.05833,-0.0131 -0.34325,0.0894 -0.14783,0.1685 0.43425,0.17569 0.58209,0.007 0.86292,-0.066 0.62408,-0.16262 z m 2.28634,-0.36455 c -0.33955,-0.0887 -0.89517,-0.0887 -1.23472,0 -0.33955,0.0887 -0.0617,0.16133 0.61736,0.16133 0.6791,0 0.95691,-0.0726 0.61736,-0.16133 z m 10.3818,-1.40652 c 4.98238,-0.7267 8.99066,-1.43165 8.90729,-1.56656 -0.0834,-0.13491 -0.42925,-0.18467 -0.76861,-0.11059 -0.33935,0.0741 -4.26825,0.6973 -8.73089,1.38494 -8.43525,1.29976 -9.4078,1.47182 -8.81945,1.56038 0.19403,0.0292 4.42927,-0.54147 9.41166,-1.26817 z m 3.00639,-12.82423 1.69306,-0.36282 -0.12196,-1.74974 c -0.11288,-1.61946 -0.0521,-1.77632 0.81671,-2.10663 1.48277,-0.56375 1.59831,-0.46204 1.59831,1.40701 0,1.21256 0.14342,1.76388 0.45884,1.76388 0.59547,0 6.63353,-1.31858 6.73636,-1.47108 0.0432,-0.064 -0.24839,-4.66249 -0.64793,-10.21881 l -0.72644,-10.1024 -5.99722,1.76406 c -3.29847,0.97024 -6.13226,1.88898 -6.29731,2.04166 -0.37985,0.35136 0.11759,19.39769 0.50661,19.39769 0.15835,0 1.04979,-0.16327 1.98097,-0.36282 z m 0.45834,-10.03921 c 0,-2.67763 0.10977,-3.42057 0.52917,-3.58151 0.32288,-0.1239 0.52916,-0.65823 0.52916,-1.37064 0,-0.64217 0.19844,-1.25872 0.44098,-1.37012 0.24253,-0.11139 0.0838,-0.11392 -0.35278,-0.006 -0.43656,0.1083 -0.79375,0.0535 -0.79375,-0.1218 0,-0.17529 0.9501,-0.58287 2.11134,-0.90572 2.34877,-0.65302 2.84708,-0.71069 2.78577,-0.32242 -0.023,0.14552 -0.023,0.84503 0,1.55447 0.0359,1.10747 0.14156,1.2638 0.74733,1.10538 0.66242,-0.17322 0.70879,0.001 0.75848,2.85525 0.0291,1.67187 0.0688,3.23581 0.0882,3.47542 0.0334,0.41308 -2.56811,1.27055 -5.52097,1.81972 l -1.32292,0.24604 v -3.37845 z m 1.76389,2.50772 c 0,-0.0733 -0.23813,-0.33082 -0.52917,-0.57236 -0.43339,-0.35968 -0.52916,-0.33558 -0.52916,0.13319 0,0.3148 0.23812,0.57236 0.52916,0.57236 0.29104,0 0.52917,-0.0599 0.52917,-0.13319 z m 4.58611,-1.4975 c 0,-0.46877 -0.0958,-0.49288 -0.52917,-0.13319 -0.29104,0.24154 -0.52916,0.4991 -0.52916,0.57236 0,0.0733 0.23812,0.13319 0.52916,0.13319 0.29105,0 0.52917,-0.25756 0.52917,-0.57236 z m -2.82222,-0.45658 c 0,-0.17785 -0.15738,-0.37629 -0.34974,-0.44097 -0.19235,-0.0647 -0.38573,-0.55415 -0.42972,-1.08773 -0.044,-0.53357 -0.20108,-0.97014 -0.3491,-0.97014 -0.50609,0 -0.7203,1.76561 -0.27875,2.29764 0.48002,0.57839 1.40731,0.71096 1.40731,0.2012 z m 1.94028,-0.0294 c 0.11991,-0.19403 0.0499,-0.35278 -0.15557,-0.35278 -0.20548,0 -0.3736,0.15875 -0.3736,0.35278 0,0.19403 0.07,0.35278 0.15557,0.35278 0.0856,0 0.25368,-0.15875 0.3736,-0.35278 z m -0.58833,-1.98695 c -0.17232,-0.89478 -1.35195,-1.0921 -1.35195,-0.22614 0,0.84709 0.74387,1.61033 1.16197,1.19223 0.17342,-0.17342 0.25891,-0.60816 0.18998,-0.96609 z m 0.41194,-1.54083 c 0,-0.19403 -0.15875,-0.35278 -0.35278,-0.35278 -0.19403,0 -0.35278,0.15875 -0.35278,0.35278 0,0.19403 0.15875,0.35278 0.35278,0.35278 0.19403,0 0.35278,-0.15875 0.35278,-0.35278 z m -1.05834,-0.35278 c 0,-0.19403 -0.15875,-0.35278 -0.35277,-0.35278 -0.19403,0 -0.35278,0.15875 -0.35278,0.35278 0,0.19403 0.15875,0.35278 0.35278,0.35278 0.19402,0 0.35277,-0.15875 0.35277,-0.35278 z m 1.62425,-0.96279 c -0.3586,-0.3586 -0.65449,0.18129 -0.36026,0.65736 0.22226,0.35963 0.30536,0.35991 0.42485,0.001 0.0817,-0.2451 0.0526,-0.54155 -0.0646,-0.65878 z m -2.2748,-1.44942 c 0.10273,-1.07716 0.0192,-1.32942 -0.4037,-1.21877 -0.46518,0.12171 -0.6198,1.16237 -0.39844,2.68166 0.11329,0.77759 0.68852,-0.27148 0.80214,-1.46289 z m 2.67764,-8.49481 c 2.49771,-0.7462 2.54476,-0.78155 2.05457,-1.54292 -0.27592,-0.42857 -0.61221,-1.38381 -0.7473,-2.12275 -0.1441,-0.78825 -0.72218,-1.84884 -1.39869,-2.56615 l -1.15308,-1.22262 -0.83736,0.97865 c -0.46055,0.53825 -1.4869,1.42095 -2.28077,1.96155 -1.46698,0.99897 -1.97375,1.78565 -2.77562,4.30876 -0.24666,0.77611 -0.55806,1.67368 -0.69201,1.9946 -0.25787,0.61784 -0.12385,0.58721 7.83026,-1.78912 z m 4.84597,-1.35201 c -1.17071,-1.84249 -2.32395,-3.26319 -2.64886,-3.26319 -0.35796,0 -0.0767,1.93066 0.42402,2.91042 0.17352,0.33954 0.69742,0.61736 1.16421,0.61736 0.46679,0 0.94683,0.15875 1.06674,0.35277 0.11992,0.19403 0.30629,0.35278 0.41417,0.35278 0.10788,0 -0.0813,-0.43656 -0.42028,-0.97014 z m 2.01695,25.59403 c -0.50228,-0.50227 -0.57523,-4.16278 -0.083,-4.16278 0.59749,0 1.07074,1.3151 1.07074,2.97542 0,1.647 -0.23984,1.9353 -0.98777,1.18736 z m -0.33514,-12.60953 c -0.65629,-0.5475 -0.79375,-1.01755 -0.79375,-2.71428 v -2.0521 l 0.84379,0.87393 c 0.60362,0.62518 0.89012,1.40109 1.00655,2.72601 0.0895,1.01865 0.067,1.8468 -0.05,1.84035 -0.11705,-0.006 -0.56999,-0.30972 -1.00655,-0.67391 z m 0.15627,-2.74723 c -0.0894,-0.34324 -0.1685,-0.14782 -0.17569,0.43426 -0.007,0.58209 0.066,0.86292 0.16262,0.62408 0.0966,-0.23884 0.10252,-0.71509 0.0131,-1.05834 z m -66.27291,-4.50482 c -0.12137,-0.12138 -0.13685,-0.84567 -0.0344,-1.60955 0.19346,-1.44236 0.0963,-1.53462 -1.49411,-1.41868 -0.65549,0.0478 -0.66262,0.0173 -0.10047,-0.43027 0.46058,-0.36666 0.50692,-0.57986 0.19403,-0.89275 -0.31289,-0.31289 -0.30732,-0.41106 0.0233,-0.41106 0.23893,0 0.52929,0.24725 0.64525,0.54944 0.11596,0.3022 0.41534,0.47097 0.66529,0.37506 0.49779,-0.19102 0.98792,0.70888 0.66801,1.2265 -0.10994,0.17789 0.0483,0.41867 0.35164,0.53507 0.30334,0.1164 0.55152,0.36278 0.55152,0.5475 0,0.18472 -0.17576,0.22723 -0.39057,0.0945 -0.26607,-0.16444 -0.31025,0.0117 -0.1386,0.55253 0.16089,0.5069 0.12168,0.71338 -0.10846,0.57115 -0.19824,-0.12253 -0.41699,-0.0531 -0.48611,0.15425 -0.0691,0.20737 -0.22499,0.27772 -0.34636,0.15635 z m -0.99934,-0.88175 c 0,-0.19403 0.16812,-0.35278 0.3736,-0.35278 0.20547,0 0.27548,0.15875 0.15556,0.35278 -0.11991,0.19403 -0.28803,0.35278 -0.3736,0.35278 -0.0856,0 -0.15556,-0.15875 -0.15556,-0.35278 z m -0.52917,-1.05833 c 0.11992,-0.19403 0.37678,-0.35278 0.57081,-0.35278 0.19402,0 0.25466,0.15875 0.13475,0.35278 -0.11992,0.19402 -0.37678,0.35277 -0.57081,0.35277 -0.19403,0 -0.25467,-0.15875 -0.13475,-0.35277 z m 2.64583,-0.70556 c 0,-0.19403 0.15875,-0.35278 0.35278,-0.35278 0.19403,0 0.35278,0.15875 0.35278,0.35278 0,0.19403 -0.15875,0.35278 -0.35278,0.35278 -0.19403,0 -0.35278,-0.15875 -0.35278,-0.35278 z m -0.35277,-1.05833 c 0,-0.19403 0.16812,-0.35278 0.37359,-0.35278 0.20548,0 0.27549,0.15875 0.15557,0.35278 -0.11991,0.19402 -0.28803,0.35277 -0.3736,0.35277 -0.0856,0 -0.15556,-0.15875 -0.15556,-0.35277 z m -0.97014,-1.06933 c -0.98359,-0.39535 -1.02852,-0.87951 -0.0882,-0.95034 0.38806,-0.0292 0.70556,0.1051 0.70556,0.29852 0,0.19342 0.15875,0.25356 0.35278,0.13365 0.19402,-0.11992 0.35277,0.0295 0.35277,0.33195 0,0.61752 -0.18507,0.64357 -1.32291,0.18622 z"
       style="fill:#ffffff;stroke-width:0.35277781" />
  </g>
</svg>
